<svg xmlns="http://www.w3.org/2000/svg" width="38" height="39" viewBox="0 0 38 39"><path d="M33.5 22.2V3.23a.64.64 0 0 0-.65-.64h-3.22V.64a.64.64 0 0 0-.65-.64h-4.5a.64.64 0 0 0-.65.64v1.94H9.66V.64A.64.64 0 0 0 9.02 0H4.5a.64.64 0 0 0-.65.64v1.94H.64a.64.64 0 0 0-.64.64v32.85c0 .35.29.64.64.64H25.2a8.38 8.38 0 0 0 8.3-14.5zM25.11 1.3h3.22v3.86h-3.22zm-19.97 0h3.22v3.86H5.15zM1.3 3.86h2.57V5.8c0 .35.3.64.65.64H9c.36 0 .65-.29.65-.64V3.86h14.17V5.8c0 .35.29.64.65.64h4.5c.36 0 .65-.29.65-.64V3.86h2.57v5.16H1.3zm0 6.45H32.2v11.35l-.38-.1a9.1 9.1 0 0 0-1.16-.24l-.27-.03a8.66 8.66 0 0 0-1.4 0v-7.76H4.5V32.2h17.15c.02.06.05.11.06.17l.18.47.11.25.24.48.11.2.3.5.13.17.35.47.15.17.3.34H1.29zm24.67 11.8l-.2.1-.36.2a9.7 9.7 0 0 0-1.18.84l-.33.3-.22.2-.34.38-.14.15v-3.67h4.5v.88h-.03c-.59.15-1.16.36-1.7.62zm-4.34 5.07l-.06.22-.14.57-.07.45-.05.37a8.38 8.38 0 0 0-.01 1.54v.13l.05.3v.01l.02.15h-3.97V26.4h4.5v.05c-.1.23-.2.47-.27.72zM5.8 26.4h4.5v4.5H5.8zm0-5.8h4.5v4.5H5.8zm21.9-1.29h-4.51v-4.5h4.5zm-5.8 0h-4.51v-4.5h4.5zm0 5.8h-4.51V20.6h4.5zM11.6 20.6h4.5v4.5h-4.5zm4.5-1.29h-4.5v-4.5h4.5zm-5.8 0H5.8v-4.5h4.5zm1.3 7.09h4.5v4.5h-4.5zm18.03 10.3a7.04 7.04 0 0 1-4.56-1.67l-.2-.18a7.39 7.39 0 0 1-.9-.98l-.18-.24c-.14-.2-.27-.42-.4-.64l-.07-.16c-.1-.18-.18-.37-.26-.56l-.1-.26a7.58 7.58 0 0 1-.35-1.48l-.01-.06a6.59 6.59 0 0 1-.02-1.58v-.06l.11-.65.02-.06c.04-.22.1-.43.16-.64l.03-.07a7.23 7.23 0 0 1 .49-1.14l.06-.11.08-.14a7.47 7.47 0 0 1 1.35-1.65l.15-.13c.16-.14.32-.27.5-.39l.07-.06c.84-.58 1.81-.98 2.85-1.15h.01a7.04 7.04 0 0 1 1.91-.07l.12.02.63.1.07.02c.23.05.44.11.66.19l.05.01a7.09 7.09 0 0 1-2.27 13.79zm3.86-7.68h-3.22v-3.22a.64.64 0 1 0-1.29 0v3.22h-3.22a.64.64 0 1 0 0 1.3h3.22v3.21a.64.64 0 0 0 1.3 0v-3.22h3.21a.64.64 0 0 0 0-1.29z"/></svg>