<svg xmlns="http://www.w3.org/2000/svg" width="24" height="19" viewBox="0 0 24 19"><path fill="#1da1f2" d="M23.99 2.15c-.85.36-1.76.6-2.72.72A4.62 4.62 0 0 0 23.35.35c-.9.52-1.92.9-3 1.1A4.8 4.8 0 0 0 16.9.02a4.64 4.64 0 0 0-4.72 4.54c0 .36.04.7.12 1.04-3.93-.2-7.4-2-9.73-4.75-.4.67-.64 1.45-.64 2.29a4.5 4.5 0 0 0 2.1 3.78 4.8 4.8 0 0 1-2.14-.57v.05a4.6 4.6 0 0 0 3.79 4.47 4.97 4.97 0 0 1-2.14.07 4.72 4.72 0 0 0 4.41 3.16 9.72 9.72 0 0 1-6.98 1.88c2.09 1.3 4.57 2.04 7.24 2.04 8.67 0 13.42-6.92 13.42-12.93l-.01-.59a9.35 9.35 0 0 0 2.36-2.35z"/></svg>