<svg xmlns="http://www.w3.org/2000/svg" width="27" height="16" viewBox="0 0 27 16"><path d="M26.18 14.33a13.78 13.78 0 0 0-2.7-3.2l-.04-.03-.01-.01-.02-.02c-.6-.55-.96-.93-1.12-1.12-.28-.37-.35-.74-.2-1.11.12-.29.53-.88 1.24-1.8l.9-1.16c1.57-2.11 2.26-3.45 2.05-4.03l-.08-.14c-.06-.08-.2-.16-.43-.23a2.07 2.07 0 0 0-.88-.03l-3.94.03c-.06-.03-.16-.03-.28 0l-.17.04-.07.04-.06.04a.6.6 0 0 0-.15.14 1 1 0 0 0-.13.24 22.26 22.26 0 0 1-2.4 4.56c-.29.42-.52.72-.71.92-.2.2-.37.36-.52.47-.16.12-.28.17-.36.15a1.63 1.63 0 0 1-.23-.05.84.84 0 0 1-.31-.34 1.49 1.49 0 0 1-.16-.53 6.17 6.17 0 0 1-.04-1.21l.01-.58a34.79 34.79 0 0 1 .06-2.1l.01-.75a2.29 2.29 0 0 0-.2-1.07.68.68 0 0 0-.27-.32 1.63 1.63 0 0 0-.46-.19 9.13 9.13 0 0 0-1.85-.18c-1.7-.02-2.79.09-3.27.33-.2.1-.37.24-.53.41-.16.2-.18.31-.06.33.54.08.93.28 1.16.59l.08.17c.07.11.13.32.2.63a10.5 10.5 0 0 1-.2 4.47l-.16.3-.07.07c-.12.04-.24.07-.37.07s-.28-.07-.47-.2c-.18-.12-.37-.3-.56-.52-.2-.23-.42-.54-.67-.94-.25-.41-.5-.88-.77-1.43l-.22-.4a28.34 28.34 0 0 1-1.19-2.53.87.87 0 0 0-.33-.44l-.06-.04a.79.79 0 0 0-.22-.12c-.1-.04-.2-.07-.32-.09l-3.75.03c-.39 0-.65.08-.78.26l-.06.08a.46.46 0 0 0-.04.22c0 .1.03.22.08.37A45.44 45.44 0 0 0 3.55 9a35.08 35.08 0 0 0 2.8 3.73l.35.33a14.15 14.15 0 0 0 2.38 1.69 7.63 7.63 0 0 0 3.8.96h1.57c.32-.03.57-.13.73-.3l.05-.07a1.36 1.36 0 0 0 .15-.63c0-.4.03-.75.1-1.07.06-.31.14-.55.23-.71a1.72 1.72 0 0 1 .53-.6l.1-.05c.22-.07.48 0 .78.21.3.22.57.48.84.8.26.31.57.67.93 1.06.37.39.69.69.96.88l.28.16c.18.11.42.21.7.3.3.1.56.12.78.07l3.5-.05c.35 0 .62-.06.81-.17.2-.12.3-.24.34-.38.04-.14.04-.29.01-.47a1.85 1.85 0 0 0-.1-.36z"/></svg>