<svg xmlns="http://www.w3.org/2000/svg" viewBox="3466 1331 20.046 20.046">
  <defs>
    <style>
      .cls-1 {
        fill: #ff7100;
      }
    </style>
  </defs>
  <path id="plus-orange" class="cls-1" d="M10.023,0A10.023,10.023,0,1,0,20.046,10.023,9.994,9.994,0,0,0,10.023,0ZM15.49,10.479a.43.43,0,0,1-.456.456H11.162a.215.215,0,0,0-.228.228v3.873a.43.43,0,0,1-.456.456H9.568a.43.43,0,0,1-.456-.456V11.162a.215.215,0,0,0-.228-.228H5.012a.43.43,0,0,1-.456-.456V9.568a.43.43,0,0,1,.456-.456H8.884a.215.215,0,0,0,.228-.228V5.012a.43.43,0,0,1,.456-.456h.911a.43.43,0,0,1,.456.456V8.884a.215.215,0,0,0,.228.228h3.873a.43.43,0,0,1,.456.456Z" transform="translate(3466 1331)"/>
</svg>
