<svg xmlns="http://www.w3.org/2000/svg" width="24" height="24" viewBox="0 0 24 24"><path fill="#fff" d="M17.17 24H6.83A6.84 6.84 0 0 1 0 17.17V6.83A6.84 6.84 0 0 1 6.83 0h10.34A6.84 6.84 0 0 1 24 6.83v10.34A6.84 6.84 0 0 1 17.17 24zM6.83 2.06a4.78 4.78 0 0 0-4.77 4.77v10.34a4.78 4.78 0 0 0 4.77 4.77h10.34a4.78 4.78 0 0 0 4.77-4.77V6.83a4.78 4.78 0 0 0-4.77-4.77zM12 18.14a6.15 6.15 0 1 1 .01-12.3 6.15 6.15 0 0 1-.01 12.3zm0-10.23a4.1 4.1 0 1 0 .01 8.19A4.1 4.1 0 0 0 12 7.9zm7.88-2.4a1.48 1.48 0 1 1-2.95 0 1.48 1.48 0 0 1 2.95 0z"/></svg>