<svg xmlns="http://www.w3.org/2000/svg" width="35" height="27" viewBox="0 0 35 27"><path d="M34.29 21.82h-.72V18.5c0-.4-.32-.74-.71-.74h-1.07v-3.7a5.83 5.83 0 0 0-5.72-5.91h-6.43V3.7h2.5c.4 0 .72-.33.72-.74V1.48c0-.82-.64-1.48-1.43-1.48h-7.86c-.79 0-1.43.66-1.43 1.48v1.48c0 .4.32.74.72.74h2.5v4.44H8.93a5.83 5.83 0 0 0-5.72 5.92v3.7H2.14c-.4 0-.71.33-.71.73v3.33H.7c-.39 0-.71.33-.71.74v2.22C0 26 .96 27 2.14 27h30.72c1.18 0 2.14-1 2.14-2.22v-2.22c0-.4-.32-.74-.71-.74zM13.57 2.22v-.74h7.86v.74zm4.64 1.48v4.44H16.8V3.7zM4.64 14.05a4.37 4.37 0 0 1 4.29-4.43h17.14c2.37 0 4.29 1.99 4.29 4.43v3.7H4.64zm28.93 10.73c0 .4-.32.74-.71.74H2.14a.73.73 0 0 1-.71-.74V23.3h27.14v-1.48H2.86v-2.59h29.28v3.33c0 .41.32.74.72.74h.71zm-27.5-9.62H7.5a2.91 2.91 0 0 1 2.86-2.95v-1.48c-2.37 0-4.29 1.99-4.29 4.43z"/></svg>