<svg xmlns="http://www.w3.org/2000/svg" width="26" height="15" viewBox="0 0 26 15"><path d="M25.83.08a.43.43 0 0 0-.38-.06 41.33 41.33 0 0 1-24.9 0 .43.43 0 0 0-.38.06A.4.4 0 0 0 0 .4v14.18c0 .13.06.25.17.33.11.08.25.1.38.06a41.33 41.33 0 0 1 24.9 0 .43.43 0 0 0 .38-.06.4.4 0 0 0 .17-.33V.41a.4.4 0 0 0-.17-.33zm-.67 13.95a42.2 42.2 0 0 0-24.32 0V.97a42.2 42.2 0 0 0 24.32 0zM9.65 7.6a.43.43 0 0 0-.6 0l-3.42 3.32c-1.24.22-2.49.5-3.7.83a.4.4 0 0 0-.3.5.42.42 0 0 0 .53.29 41.43 41.43 0 0 1 3.79-.84.48.48 0 0 0 .07-.03h.01l.02-.01.02-.01.01-.01.02-.02h.01l.02-.02 3.22-3.13 2.13 2.08c.17.16.44.16.6 0a.4.4 0 0 0 0-.58l-1.12-1.1L13.4 6.5l5 4.87h.01a.45.45 0 0 0 .05.04l.02.01a.55.55 0 0 0 .04.02l.02.01a.32.32 0 0 0 .03.02h.02a.44.44 0 0 0 .04.01h.02a41.49 41.49 0 0 1 5.31 1.08.4.4 0 0 0 .11-.8c-1.69-.46-3.43-.82-5.17-1.07l-5.2-5.05a.43.43 0 0 0-.6 0L10.36 8.3zm9.03-.48c.9 0 1.64-.71 1.64-1.59 0-.88-.74-1.59-1.64-1.59-.9 0-1.64.71-1.64 1.59 0 .88.74 1.6 1.64 1.6zm0-2.36c.44 0 .8.34.8.77s-.36.77-.8.77a.79.79 0 0 1-.8-.77c0-.43.36-.77.8-.77z"/></svg>