<svg xmlns="http://www.w3.org/2000/svg" width="29" height="30" viewBox="0 0 29 30"><path fill="#252525" d="M24.9 1.35a2.97 2.97 0 0 0-4.7.62l-2.73 4.67a20.09 20.09 0 0 0-3.3-.28c-2.38 0-4.55.4-6.27 1.05L6.62 4.88v-.02c-.14-.23 0-.57.31-.75.16-.1.34-.13.5-.1.09.02.23.06.3.2.14.23.44.31.67.18a.49.49 0 0 0 .25-.43.5.5 0 0 0-.07-.24c-.13-.23.02-.57.32-.75.3-.18.68-.13.81.1a.48.48 0 0 0 .66.18.49.49 0 0 0 .19-.67A5.13 5.13 0 0 0 1.68 7.7a.49.49 0 1 0 .85-.49c-.1-.17.1-.62.46-.82.3-.18.67-.14.8.1a.49.49 0 1 0 .85-.5c-.08-.13-.05-.28-.02-.35.06-.16.18-.3.34-.4.16-.09.34-.12.5-.09.08.02.23.06.3.2L7 7.8c-1.66.8-2.77 1.9-3.02 3.14l-.03.06c-.67 1.69-1 3.5-1 5.37 0 7.13 5.03 12.93 11.22 12.93s11.22-5.8 11.22-12.93c0-1.88-.34-3.68-1-5.37l-.03-.06c-.28-1.43-1.68-2.68-3.94-3.54l2.32-3.96.08-.02 3 3a1.5 1.5 0 0 0 2.07 0 1.46 1.46 0 0 0 0-2.07zM5.64 4.2c-.4-.07-.81 0-1.18.21-.36.21-.64.54-.77.91v.02a1.71 1.71 0 0 0-1.2.21c-.17.1-.32.23-.45.37a4.11 4.11 0 0 1 2-4.36 4.15 4.15 0 0 1 4.73.42 1.72 1.72 0 0 0-1.14 1.09h-.02A1.72 1.72 0 0 0 5.67 4.2h-.02zm11.3 3.35l-.54.91c-.73-.08-1.48-.14-2.24-.14-2.17 0-4 .35-5.39.85l-.44-.87c1.6-.6 3.65-.95 5.83-.95.94 0 1.87.07 2.77.2zm-1.55 5.6a1.46 1.46 0 0 0 1.98-.56l1.53-2.6c1.8.58 2.53 1.32 2.58 1.48-.1.4-2.3 2.22-7.32 2.22-5.02 0-7.23-1.82-7.32-2.17.04-.18.51-.64 1.47-1.1l.53 1.05c.03.05.06.09.1.12l.01.02.12.08.04.02a.48.48 0 0 0 .34 0l.03-.02h.02l.05-.05.09-.06a.38.38 0 0 0 .05-.08l.04-.08a.54.54 0 0 0 .02-.1l.02-.07v-.01l-.02-.1-.03-.1-.5-1c1.17-.4 2.8-.74 4.94-.74.57 0 1.14.04 1.7.09l-1.04 1.76a1.45 1.45 0 0 0 .57 2zM3.92 16.36c0-1.17.15-2.3.43-3.4 1.16 1.99 4.62 3.44 8.92 3.62a17.64 17.64 0 0 0 1.8 0c4.3-.18 7.76-1.63 8.92-3.62.28 1.1.43 2.23.43 3.4 0 6.59-4.6 11.95-10.25 11.95S3.92 22.96 3.92 16.37zm10.25-.74c-4.88 0-9-1.96-9.24-4.4.14-.98 1.08-1.87 2.51-2.56l.44.86c-1.28.61-2 1.35-2 1.96 0 1.29 3.23 3.17 8.29 3.17 5.06 0 8.3-1.88 8.3-3.17 0-.8-1.23-1.74-3.06-2.38l.5-.85c2.05.74 3.32 1.8 3.5 2.94-.22 2.45-4.34 4.43-9.24 4.43zm12.34-9.9l-3-3a1 1 0 0 0-.86-.29c-.32.04-.6.23-.75.5l-5.37 9.15a.5.5 0 0 1-.66.2.5.5 0 0 1-.23-.3.48.48 0 0 1 .04-.37l5.37-9.15a2 2 0 0 1 3.15-.43l3 3c.1.1.15.22.15.34 0 .14-.05.26-.15.35a.5.5 0 0 1-.69 0zM7.34 18.56a.49.49 0 0 0-.97 0 7.33 7.33 0 0 0 7.31 7.32c.27 0 .49-.22.49-.49a.49.49 0 0 0-.49-.48 6.35 6.35 0 0 1-6.34-6.35zm4.39-7.32a.49.49 0 1 0-.49.49c.27 0 .49-.22.49-.49zm1.46.98a.49.49 0 1 0-.97 0 .49.49 0 0 0 .97 0zm.5-1.96a.49.49 0 0 0-.5-.48.49.49 0 0 0 0 .97c.27 0 .5-.22.5-.49z"/></svg>