<svg xmlns="http://www.w3.org/2000/svg" width="20" height="20" viewBox="0 0 20 20"><path d="M6.35.87a5.36 5.36 0 0 0-5.4 5.3v7.66a5.35 5.35 0 0 0 5.4 5.29h7.86c2.98 0 5.4-2.37 5.4-5.29V6.17c0-2.92-2.42-5.3-5.4-5.3zm0 1.57h7.86c2.12 0 3.8 1.65 3.8 3.73v7.66a3.74 3.74 0 0 1-3.8 3.72H6.35a3.74 3.74 0 0 1-3.8-3.72V6.17a3.74 3.74 0 0 1 3.8-3.73zm8.94 1.57a1.1 1.1 0 0 0-1.12 1.09c0 .61.5 1.1 1.12 1.1a1.1 1.1 0 0 0 1.12-1.1c0-.6-.5-1.09-1.12-1.09zM10.28 5.3a4.76 4.76 0 0 0-4.8 4.7 4.76 4.76 0 0 0 4.8 4.69c2.64 0 4.8-2.11 4.8-4.69 0-2.59-2.16-4.7-4.8-4.7zm0 1.56c1.77 0 3.2 1.4 3.2 3.14a3.16 3.16 0 0 1-3.2 3.13c-1.77 0-3.2-1.4-3.2-3.13a3.16 3.16 0 0 1 3.2-3.14z"/></svg>