<svg xmlns="http://www.w3.org/2000/svg" width="39" height="17" viewBox="0 0 39 17"><path d="M24.72.62h-1.01v.02h-.78v.03h-.65v.01h-.55V.7h-.48v.01h-.44v.02h-.4v.03h-.35v.01h-.33v.02h-.3V.8h-.26v.03h-.23v.02h-.16v.01h-.17v.02h-.1v.01h-.12v.03h-.08v.02h-.06v.01h-.07v.02h-.08V1h-.07v.01h-.05v.02h-.04v.01h-.06v.03h-.06v.02h-.03v.01h-.06v.02h-.03v.01h-.05v.03h-.03v.02h-.04v.01h-.03v.02h-.03v.03h-.05v.01h-.03v.02h-.03v.01h-.03v.02h-.01v.03h-.05v.01h-.01v.02h-.03v.01h-.03v.03h-.03v.02h-.02v.01h-.04v.02h-.02v.01h-.01v.03h-.05v.02h-.01v.01h-.02v.02h-.01v.03h-.02v.01H17v.02h-.01v.01h-.02v.03h-.04v.02h-.02v.01h-.01v.02h-.02v.01h-.01v.03h-.03v.02h-.02v.01h-.01v.02h-.02v.01h-.03v.03h-.01v.02h-.01v.01h-.02v.02h-.03v.03h-.01v.01h-.02v.03h-.01v.03h-.02v.02h-.03v.03h-.01v.01h-.02v.05h-.01v.01h-.03v.05h-.02v.01h-.01v.03h-.02v.05h-.01v.01h-.03v.03h-.02v.05h-.01v.03h-.02v.04h-.03v.03h-.01v.05h-.02v.03h-.01v.06h-.02v.03h-.03v.04h-.01v.05h-.02v.04h-.01v.05h-.03v.04h-.02v.06h-.01v.05h-.02v.06h-.03v.04h-.01v.06h-.02v.08h-.01v.06h-.02v.04h-.03v.08h-.01v.07h-.02v.08h-.01v.07h-.03v.08h-.02v.09h-.01v.09h-.02v.09h-.01v.12h-.03v.13h-.02v.2h-.01v.16h-.02v.18h-.03v.2h-.01v.21h-.02v.24h-.01v.24h-.02v.25h-.03v.32h-.01v.36h-.02V7h-.01v3.19h.01v.5h.02v.36h.01v.3h.03v.27h.02v.24h.01v.23h.02v.19h.01v.21h.03v.18h.02v.18h.01v.17h.02v.15h.03v.1h.01v.09h.02v.11h.01v.09h.02v.07h.03v.09h.01v.05h.02v.07h.01v.08h.03v.07h.02v.06h.01v.05h.02v.06h.01v.06h.03v.04h.02v.06h.01v.06h.02v.05h.03v.04h.01v.06h.02v.03h.01v.06h.03v.03h.02v.05h.01v.03h.02v.04h.01v.03h.03v.03h.02v.05h.01v.03h.02v.04h.03v.03h.01V15h.02v.04h.01v.03h.02v.02h.03v.04h.01v.02h.02v.04h.01v.02h.03v.01h.02v.05h.01v.01h.02v.02h.01v.01h.03v.02h.02v.06h.02v.01h.03v.03h.02v.02h.01v.01h.02v.02h.03v.01h.01v.03h.02v.02h.01v.01h.05v.02h.01v.03h.02v.01h.01v.02h.03v.01h.03v.02h.02v.03h.01v.01h.03v.02h.03v.01h.02v.03h.04v.02h.02v.01h.03v.02h.03v.03h.03v.01h.01v.02h.05v.01h.03v.02h.04v.03h.02v.01h.03v.02h.04v.01h.03V16h.06v.02h.03v.01h.05v.02h.04v.01h.05v.03h.06v.02h.04v.01h.05v.02h.04v.03h.08v.01h.06v.02h.07v.01h.1v.02h.07v.03h.09v.01h.1v.02h.12v.01h.12v.03h.15v.02h.15v.01h.15v.02h.17v.01h.2v.03h.29v.02h.33v.01h.36v.02h.45v.03h.5v.01h.58v.02h.67v.01h.77v.02h.93v.03h1.09v.01h3.44v-.01h1.05v-.03h.81v-.02h.68v-.01h.57v-.02h.5v-.01h.47v-.03h.37v-.02h.4v-.01h.32v-.02h.32v-.03h.3v-.01h.25v-.02h.18v-.01h.17v-.02h.13v-.03h.1v-.01h.11v-.02h.08v-.01h.07v-.03h.08v-.02h.07v-.01h.05v-.02h.06v-.01h.04v-.03h.05v-.02h.06v-.01h.06v-.02h.02v-.03h.03v-.01h.05v-.02h.03v-.01h.04V16h.03v-.03h.05v-.01h.03v-.02h.04v-.01h.02v-.03h.01v-.02h.05v-.01h.01v-.02h.03v-.01h.02v-.03h.04v-.02h.02v-.01h.04v-.02h.02v-.03h.03v-.01h.01v-.02h.03v-.01h.02v-.03h.01v-.02h.05v-.01h.01v-.02h.02v-.01h.01v-.03h.02v-.02h.03v-.01h.01v-.02h.02v-.03h.01v-.01h.03v-.02h.03v-.01h.02v-.02h.03v-.03h.01v-.01h.02v-.02h.01v-.04h.02v-.02h.03v-.01h.01v-.02h.02v-.01h.01v-.05h.03v-.01h.02v-.02h.01v-.04h.02v-.02h.01v-.04h.03v-.02h.02v-.03h.01V15h.02v-.02h.01v-.03h.03v-.04h.02v-.03h.01v-.05h.02v-.03h.03v-.03h.01v-.04h.02v-.03h.01v-.05h.03v-.03h.02v-.06h.01v-.03h.02v-.06h.01v-.04h.03v-.05h.02v-.06h.01v-.06h.02v-.04H38v-.06H38v-.06h.02v-.05h.01v-.06h.02v-.07h.03v-.08h.01v-.07h.02v-.05h.01v-.09h.03v-.07h.02v-.09h.01v-.11h.02v-.09h.01v-.1h.03v-.15h.02v-.17h.01v-.18h.02v-.18h.03v-.21h.01v-.19h.02v-.23h.01v-.25h.03v-.26h.02v-.31h.01v-.35h.02v-.5h.01V7h-.01v-.48h-.02v-.36h-.01v-.3h-.02v-.27h-.03v-.24h-.01v-.24h-.02V4.9h-.01v-.2h-.03v-.18h-.02v-.19h-.01v-.17h-.02v-.13h-.03v-.12h-.01v-.09h-.02v-.09h-.01v-.09h-.02v-.08h-.03v-.07h-.01v-.08h-.02v-.07h-.01v-.08h-.03v-.04h-.02v-.06h-.01v-.08H38v-.06H38v-.04h-.03v-.06h-.02v-.05h-.01v-.06h-.02v-.04h-.03v-.05h-.01v-.04h-.02v-.05h-.01v-.04h-.02v-.03h-.03V2.5h-.01v-.03h-.02v-.05h-.01v-.03h-.03v-.04h-.02v-.03h-.01v-.05h-.02v-.03h-.03v-.01h-.01v-.05h-.02v-.03h-.01v-.01h-.02v-.05h-.03v-.01h-.01v-.05h-.02v-.01h-.01V2h-.02v-.03h-.03v-.03h-.01v-.03h-.02V1.9h-.01v-.03h-.03v-.02h-.02v-.01h-.01v-.02h-.02v-.03h-.01v-.01h-.03v-.02h-.02v-.01h-.01v-.02h-.02V1.7h-.03v-.01h-.01v-.02h-.02v-.01h-.01v-.02h-.05v-.03h-.01V1.6h-.02v-.02h-.01v-.01h-.03v-.03h-.02v-.02h-.01v-.01h-.02v-.02h-.04v-.03h-.02v-.01h-.01v-.02h-.05v-.01h-.01V1.4h-.03v-.03h-.03v-.01h-.03v-.02h-.02v-.01h-.04V1.3h-.02v-.02h-.03v-.01h-.03v-.02h-.03v-.01h-.04v-.03h-.03v-.02h-.03v-.01h-.05v-.02h-.03v-.03h-.04v-.01h-.03V1.1h-.06v-.01h-.03v-.02h-.06v-.03h-.06v-.01h-.04v-.02h-.05V1h-.07V.97h-.08V.95h-.06V.94h-.07V.92h-.08V.89h-.12V.88h-.1V.86h-.17V.85h-.16V.83h-.23V.8h-.27V.79h-.3V.77h-.33V.76h-.34V.73h-.4V.71h-.44V.7h-.48V.68h-.55V.67h-.63V.64h-.8V.62h-1V.61h-4.68zM.18 3.22c.33.96 1.92 6.12 1.92 6.12v4.2h1.53v-4.2l1.9-6.12h-1.6L2.87 7.26 1.79 3.22zm17.35.07h4.81v1.46h-1.68v8.79h-1.52V4.75h-1.6zm9.77 0h1.38v3.35c.45-.55.96-.87 1.47-.87.55 0 .9.33 1.1.9.08.31.19.79.19 1.52v3.06c0 .7-.08 1.2-.17 1.53-.18.57-.57.87-1.12.87-.5 0-1-.3-1.47-.87v.76H27.3zM7.28 5.77c-.69 0-1.21.21-1.6.74-.3.39-.45 1.01-.45 1.84v2.75c0 .82.14 1.4.44 1.78a2 2 0 0 0 1.61.8c.62 0 1.25-.27 1.64-.8.3-.38.43-.96.43-1.78V8.35c0-.83-.17-1.45-.46-1.84-.39-.53-1-.74-1.6-.74zm28.82.81c.28.39.45 1 .45 1.82v1.56H33.8v1.36c0 .71.19 1.07.66 1.07.34 0 .55-.19.63-.56v-.96h1.45v.21c0 .45-.03.76-.04.9-.05.31-.16.6-.33.84-.38.56-.94.83-1.66.83-.73 0-1.28-.26-1.68-.78-.3-.38-.48-.96-.48-1.77V8.43c0-.82.17-1.46.46-1.85.4-.52.95-.79 1.65-.79s1.25.27 1.64.79zm-25.68-.77v6.13c0 .53.07.89.16 1.12.16.38.47.6.91.6.51 0 .98-.33 1.53-.96v.84h1.46V5.81h-1.46v5.9c-.3.44-.56.68-.84.68-.18 0-.28-.07-.31-.29V5.81zm11.7.1h1.44v6.19c.03.22.13.29.31.29.28 0 .53-.24.84-.68v-5.8h1.45v7.63h-1.45v-.84c-.55.63-1.02.96-1.53.96a.92.92 0 0 1-.91-.6c-.1-.23-.15-.59-.15-1.12zm7.28 1.14c-.23 0-.49.13-.72.36v4.63c.23.23.5.35.72.35.4 0 .58-.29.58-1.05v-3.3c0-.77-.18-.99-.58-.99zm5.06 0c-.46 0-.66.2-.66.91v.84h1.3v-.82c0-.71-.18-.93-.64-.93zm-27.18.03c.46 0 .7.34.62 1.11v3.06c.08.76-.16 1.15-.62 1.15-.45 0-.67-.39-.6-1.15V8.19c-.07-.77.15-1.11.6-1.11z"/></svg>