<svg xmlns="http://www.w3.org/2000/svg" width="39" height="39" viewBox="0 0 39 39"><path d="M38.77 28.42a.77.77 0 0 0-1.1 0l-7.72 7.87V.79a.79.79 0 0 0-.78-.79.79.79 0 0 0-.78.79v35.5l-7.72-7.87a.77.77 0 0 0-1.1 0 .8.8 0 0 0 0 1.12l9.05 9.23c.15.15.35.23.55.23.2 0 .4-.08.55-.23l9.05-9.23a.8.8 0 0 0 0-1.12zm-37-26.83h23.38a.8.8 0 0 0 .77-.8.79.79 0 0 0-.77-.79H1.78A.79.79 0 0 0 1 .79c0 .44.35.8.78.8zm0 9.29h23.38a.8.8 0 0 0 .77-.8.78.78 0 0 0-.77-.79H1.78a.78.78 0 0 0-.78.79c0 .44.35.8.78.8zm0 9.29h23.38a.8.8 0 0 0 .77-.8.78.78 0 0 0-.77-.79H1.78a.78.78 0 0 0-.78.79c0 .44.35.8.78.8zm15.25 7.7H1.78a.78.78 0 0 0-.78.79c0 .44.35.8.78.8h15.24a.8.8 0 0 0 .78-.8.78.78 0 0 0-.78-.79zm0 9.29H1.78a.78.78 0 0 0-.78.79c0 .44.35.79.78.79h15.24c.43 0 .78-.35.78-.79a.78.78 0 0 0-.78-.79z"/></svg>