<svg xmlns="http://www.w3.org/2000/svg" width="92" height="73" viewBox="0 0 92 73"><path d="M80.96 42.83c-.36-.14-.74-.22-1.1-.33-2.19-12.44-13.24-21.64-26.35-21.64a26.77 26.77 0 0 0-24.62 16.28 19.13 19.13 0 0 0-12.54 1.04A18.3 18.3 0 0 0 5.52 54.75C5.52 64.81 13.89 73 24.18 73h50.83c8.82 0 16-7.02 16-15.64 0-6.43-3.95-12.14-10.05-14.53zM50.25 8.4a2.7 2.7 0 0 0-3.77 0l-5.85 5.72a18.61 18.61 0 0 0-8.45-3.39V2.61c0-1.44-1.2-2.61-2.67-2.61a2.64 2.64 0 0 0-2.66 2.61v8.08a18.78 18.78 0 0 0-8.46 3.42L12.55 8.4a2.7 2.7 0 0 0-3.77 0 2.57 2.57 0 0 0 0 3.69l5.84 5.71a17.86 17.86 0 0 0-3.5 8.27H2.67a2.64 2.64 0 0 0-2.66 2.61c0 1.44 1.19 2.61 2.66 2.61h8.44c.2 1.13.47 2.24.85 3.32.7-.41 1.4-.83 2.15-1.16a23.8 23.8 0 0 1 11.73-2.05 32.34 32.34 0 0 1 17.84-14.11c.62-.2 1.23-.44 1.87-.6l4.7-4.6a2.57 2.57 0 0 0 0-3.69z"/></svg>