<svg xmlns="http://www.w3.org/2000/svg" width="27" height="16" viewBox="0 0 27 16"><path fill="#252525" d="M26.74 14.17a14.08 14.08 0 0 0-2.76-3.26l-.03-.03-.02-.01-.01-.02h-.02c-.6-.56-.97-.94-1.13-1.14-.29-.37-.35-.75-.2-1.13.12-.29.54-.9 1.26-1.83l.91-1.18c1.62-2.14 2.31-3.51 2.1-4.11l-.08-.14c-.06-.08-.2-.16-.44-.23a2.15 2.15 0 0 0-.9-.03l-4.02.03c-.06-.03-.16-.02-.28 0l-.18.05-.07.03-.06.04a.7.7 0 0 0-.15.15 1 1 0 0 0-.14.24 22.14 22.14 0 0 1-2.45 4.64 4.92 4.92 0 0 1-1.26 1.42c-.15.12-.27.17-.36.15l-.23-.05a1 1 0 0 1-.32-.34 1.6 1.6 0 0 1-.16-.55 6.16 6.16 0 0 1-.04-1.23l.01-.59.02-1.15.04-.99.01-.76c0-.27-.01-.48-.05-.64-.03-.15-.08-.3-.14-.44a.74.74 0 0 0-.29-.34 1.68 1.68 0 0 0-.47-.19 9.5 9.5 0 0 0-1.89-.18C11.21.34 10.1.45 9.6.7c-.2.1-.37.24-.53.41-.17.21-.19.32-.07.34.56.08.96.28 1.19.6l.08.17c.07.12.13.33.2.64a10.9 10.9 0 0 1 0 3.89 2.3 2.3 0 0 1-.36.96l-.07.07a.97.97 0 0 1-.38.07.88.88 0 0 1-.48-.19 3.32 3.32 0 0 1-.58-.54c-.2-.23-.42-.54-.68-.95-.25-.41-.5-.9-.78-1.46l-.22-.4A31.84 31.84 0 0 1 5.7 1.73a.9.9 0 0 0-.33-.45l-.07-.04a.8.8 0 0 0-.23-.12 1.7 1.7 0 0 0-.32-.09l-3.83.03c-.39 0-.66.09-.8.26l-.05.09c-.03.04-.04.12-.04.22s.02.23.08.38a46.33 46.33 0 0 0 3.54 6.74 36.2 36.2 0 0 0 2.86 3.79l.35.34c.23.22.55.49.99.8.43.31.91.62 1.44.92.52.3 1.14.55 1.84.74.7.19 1.38.27 2.04.23h1.6c.33-.03.58-.13.75-.31l.05-.07a.84.84 0 0 0 .1-.25c.04-.12.06-.25.06-.39-.01-.4.02-.76.09-1.08.07-.32.15-.56.23-.72.1-.17.2-.3.3-.42.12-.11.2-.18.24-.2l.11-.05c.23-.07.5 0 .8.22.3.22.58.49.85.81.26.32.58.68.95 1.08.38.4.7.7.98.89l.28.17c.19.11.43.21.73.31.3.09.56.11.78.07l3.58-.06c.36 0 .63-.06.83-.17.2-.12.3-.25.35-.39a1.72 1.72 0 0 0-.1-.84z"/></svg>