<svg xmlns="http://www.w3.org/2000/svg" width="19" height="15" viewBox="0 0 19 15"><path d="M16.9 8.8l-.23-.07a5.51 5.51 0 0 0-5.5-4.44 5.58 5.58 0 0 0-5.14 3.34 4.12 4.12 0 0 0-2.62.21 3.77 3.77 0 0 0-2.26 3.41A3.83 3.83 0 0 0 5.05 15h10.61A3.28 3.28 0 0 0 19 11.79a3.2 3.2 0 0 0-2.1-2.99zM10.5 1.73a.57.57 0 0 0-.79 0L8.48 2.9c-.5-.37-1.11-.6-1.76-.7V.54c0-.3-.25-.54-.56-.54-.3 0-.56.24-.56.54V2.2c-.65.09-1.25.33-1.76.7L2.62 1.73a.57.57 0 0 0-.79 0 .51.51 0 0 0 0 .75l1.22 1.18a3.6 3.6 0 0 0-.73 1.7H.56c-.31 0-.56.24-.56.53 0 .3.25.54.56.54h1.76a4 4 0 0 0 .18.68c.14-.08.29-.17.45-.24A5.03 5.03 0 0 1 5 6.44l.38.01a6.75 6.75 0 0 1 3.73-2.9l.39-.12.98-.95a.51.51 0 0 0 0-.75z"/></svg>