<svg xmlns="http://www.w3.org/2000/svg" width="165" height="165" viewBox="0 0 165 165"><path fill="#af936c" d="M82.5 165C37 165 0 127.99 0 82.5S37 0 82.5 0C127.99 0 165 37.01 165 82.5S127.99 165 82.5 165zm0-163.16C38.03 1.84 1.84 38.03 1.84 82.5s36.19 80.65 80.66 80.65 80.66-36.18 80.66-80.65c0-44.47-36.19-80.66-80.66-80.66zm50.38 49.52c.24.22.4.53.4.88 0 .36-.18.68-.44.9a70.94 70.94 0 0 1 6.31 23.12 70.13 70.13 0 0 1 6.24-23 69.43 69.43 0 0 0-6.72-11.4 71.16 71.16 0 0 0-5.8 9.5zm-1 61.52c.06-.02.12-.05.2-.05.06 0 .11.03.18.04a70.24 70.24 0 0 0 5.35-16.67l.18-.69a18.3 18.3 0 0 0-1.77 5.72.32.32 0 0 1-.34.22.32.32 0 0 1-.3-.33c.03-.98.1-1.88.18-2.7.35-3.13 1.15-5.15 2.43-6.14a2.08 2.08 0 0 1-.05-.12c-.41-1.02-.37-2 .15-2.76.23-.35.55-.62.91-.8.04-.4.06-.78.08-1.16a5.34 5.34 0 0 0-3.51 1.88c-1.07 1.28-1.2 2.77-1.07 4.61 0 .8.07 1.66.16 2.65.3 3.47.7 8.21-2.04 13.93l-.35.69-.4.79-.22.4.22.49zm.28-32.28a6.46 6.46 0 0 1-.11-2l.14-1.21.4-2.78c.78-5.18 1.25-8.31-1.55-14.43a53.7 53.7 0 0 0-5.41-8.34c-3.36-4.26-7.32-8-11.78-11.1l-.2-.14-.16-.13a.3.3 0 0 1-.14-.24c0-.11.03-.2.1-.27l.43-.38c.12-.1.28-.11.4-.02l.28.19a56.17 56.17 0 0 1 6.8 5.57c.88-1.39 1.8-2.74 2.77-4.07a1.04 1.04 0 0 1-.21-.61c0-.22.08-.41.2-.58a70.07 70.07 0 0 0-5.83-6.64.96.96 0 0 1-.78-.01c-.63.63-1.25 1.27-1.86 1.93a6.6 6.6 0 0 1-.36 1.89c-.73 2.08-3.22 4.17-6.58 4.17-.44 0-.89-.03-1.33-.1-2.5-.4-4.5-1.89-7.03-3.78a55.36 55.36 0 0 0-5.42-3.7 17.88 17.88 0 0 0-4.52-1.76c-1.7.27-2.22.31-3.26.34a11.02 11.02 0 0 1-4.65.74c-.1 0-.34.03-.7.03-.9 0-2.3-.13-3.95-.77a20.22 20.22 0 0 1-3.25-.34l-.87.24c-1.44.43-2.67.94-3.66 1.52a57.15 57.15 0 0 0-5.42 3.7c-2.53 1.89-4.54 3.38-7.03 3.78a7.88 7.88 0 0 1-2.12.06c-2.96-.3-5.12-2.22-5.8-4.13l-.02-.07a6.63 6.63 0 0 1-.33-1.82c-.6-.66-1.23-1.3-1.86-1.93a.95.95 0 0 1-.78.01 66.12 66.12 0 0 0-5.83 6.64c.12.17.2.36.2.58 0 .23-.09.44-.21.61.97 1.32 1.89 2.69 2.76 4.07a56.2 56.2 0 0 1 6.8-5.57l.28-.19a.32.32 0 0 1 .4.02l.43.38c.08.07.12.17.1.27a.3.3 0 0 1-.13.24l-.18.14-.18.12a55.03 55.03 0 0 0-17.2 19.46c-2.79 6.11-2.32 9.24-1.54 14.42l.4 2.78.14 1.21c.09.74-.01 1.5-.12 2-.54 2.73-2.86 4.42-5.31 4.98 2.45.55 4.77 2.23 5.31 4.96.15.74.2 1.41.12 2-.04.42-.1.82-.15 1.21-.13.99-.26 1.91-.4 2.78-.77 5.18-1.24 8.31 1.56 14.43a54.51 54.51 0 0 0 11.2 14.61l.44.42c.12.12.14.32.03.45l-.36.44a.34.34 0 0 1-.23.12h-.02a.35.35 0 0 1-.22-.08l-.26-.25-.22-.21c-.9-.84-1.78-1.7-2.63-2.6l-.82 1.16c.12.18.21.38.21.61 0 .22-.08.41-.2.58a70.7 70.7 0 0 0 5.83 6.64.97.97 0 0 1 .38-.08c.15 0 .28.03.4.09l.2-.2a3.44 3.44 0 0 1-2.45-1.43c-.47-.68-.9-1.88-.22-3.7.58-1.54 2.01-2.46 3.84-2.46 1.23 0 2.5.41 3.58 1.17l.52.34c.68.44 1.6 1.03 2.2 1.81.08.06.14.16.14.26 0 .13-.07.25-.17.3l1.66 1.47a190.58 190.58 0 0 0 2.84 2.49v-.01a57.16 57.16 0 0 0 3.96 3.1 29.51 29.51 0 0 0 4.39 2.61c1.98.93 4.04 1.53 6.1 1.53 2.92 0 5.64-1.22 8.1-3.62v-.67l.32.34.33-.34v.68l.03.03a12.72 12.72 0 0 0 4.8 3.05c2.93.97 5.9.5 8.75-.73 3.29-1.41 6.38-3.8 8.95-5.98 1-.84 1.95-1.68 2.84-2.47l1.6-1.42a.32.32 0 0 1-.09-.07.32.32 0 0 1-.03-.41c.65-.89 1.64-1.56 2.37-2.06l.34-.23a6.33 6.33 0 0 1 3.59-1.17c1.83 0 3.26.92 3.84 2.46.68 1.82.25 3.01-.22 3.7a3.43 3.43 0 0 1-2.32 1.4l.23.23a.97.97 0 0 1 .78-.01c.74-.74 1.47-1.49 2.17-2.26a72.57 72.57 0 0 0 3.66-4.38c-.12-.17-.2-.36-.2-.58 0-.23.09-.43.21-.61-.28-.38-.55-.77-.82-1.17-.85.9-1.72 1.77-2.63 2.61l-.47.45a.31.31 0 0 1-.23.09h-.02a.3.3 0 0 1-.23-.12l-.36-.44a.33.33 0 0 1 .04-.45l.24-.23.2-.19a55.27 55.27 0 0 0 11.2-14.62c2.79-6.11 2.32-9.24 1.54-14.42a153.7 153.7 0 0 1-.54-3.99 6.46 6.46 0 0 1 .11-2c.55-2.73 2.87-4.4 5.32-4.96-2.45-.56-4.77-2.25-5.32-4.98zm-24.82 55.6c1.03-1.09 1.82-2.21 2.56-3.25 1.13-1.6 2.11-2.99 3.59-3.74.03-.25.1-.5.22-.74.14-.26.36-.56.75-.79l-.01-.01a.47.47 0 0 1 .05-.41c.21-.26.71-.28.86-.28h.13c.26.02.59.09.7.34.05.11.02.32-.05.41-.13.16-.36.23-.55.27-.51.14-.74.49-.83.74-.17.46-.07.97.12 1.22.42.57.99.69 1.39.69.77 0 1.57-.44 2-1.09.25-.38.47-1 .13-1.77-.45-1.05-1.19-1.56-2.25-1.56-.76 0-1.62.27-2.45.64v.01c-1.28.67-3.03 2.23-5.06 4.04-.93.82-1.91 1.7-2.95 2.57l-1 1.02c-2.13 2.19-4.94 5.07-9.4 6.7 4.57-.14 8.83-1.9 12.05-5.02zm-60.9-8.41c-.35.77-.12 1.39.13 1.77a2.49 2.49 0 0 0 2 1.09c.4 0 .97-.12 1.39-.69.19-.25.3-.75.12-1.21a1.2 1.2 0 0 0-.82-.75c-.2-.03-.43-.1-.56-.26-.07-.1-.1-.31-.05-.42.1-.25.44-.32.7-.34h.13c.15 0 .64.02.85.27.08.1.11.31.06.42v.01c.38.23.6.53.73.79a2.22 2.22 0 0 1 .22.66c1.58.73 2.6 2.16 3.77 3.82.73 1.04 1.53 2.17 2.56 3.26a17.96 17.96 0 0 0 12.03 5c-4.46-1.63-7.27-4.51-9.4-6.7-.36-.37-.7-.74-1.04-1.06a90.38 90.38 0 0 1-2.9-2.54c-2.01-1.78-3.75-3.33-5.03-4.01-2.53-1.16-4.12-.88-4.9.89zm8.53 11.79c.02.07.04.14.04.21 0 .07-.02.12-.04.18 1.9 1.4 3.87 2.69 5.89 3.89a.69.69 0 0 1 .4-.13.7.7 0 0 1 .4.13c.92-.56 1.84-1.13 2.74-1.72a20.4 20.4 0 0 1-6.94-4.58 63.1 63.1 0 0 1-2.5 2.02zm7.02 4.85l.01.04v.05c1.93 1.1 3.93 2.1 5.96 3.01.1-.08.23-.14.38-.14.14 0 .27.06.38.14 2.05-.9 4.04-1.9 5.97-2.98l-.02-.08.01-.06-1.13-.7c-.45.04-.9.06-1.38.06-2.3 0-4.73-.49-7.02-1.34a68.6 68.6 0 0 1-3.16 2zm13.04-.58a.74.74 0 0 1 .39-.12c.16 0 .3.06.43.15.65-.38 1.3-.77 1.93-1.18-1 .42-2.06.72-3.18.89l.43.26zm-42.29-30.98c.07-.01.12-.04.19-.04s.13.03.2.05l.22-.48-.22-.39-.42-.83-.33-.67c-2.74-5.72-2.33-10.46-2.04-13.93.09-.99.16-1.85.16-2.62.13-1.87 0-3.36-1.07-4.64-.8-.95-1.9-1.6-3.12-1.82.02.45.06.9.1 1.36.19.15.36.33.5.54.51.76.57 1.74.15 2.77l-.05.1c1.33 1.04 2.15 3.19 2.47 6.53a34.27 34.27 0 0 1 .15 2.33c0 .18-.12.33-.33.32a.34.34 0 0 1-.33-.27 18.83 18.83 0 0 0-1.68-5.53 70.3 70.3 0 0 0 5.45 17.22zm.97.27l.11.1-.09-.15-.02.05zm.42.9c0 .34-.15.65-.39.87a69.82 69.82 0 0 0 5.95 9.71c.1-.03.2-.06.32-.06s.23.03.34.06l.89-1.25a56.14 56.14 0 0 1-7.17-9.68c.04.1.06.23.06.35zm13.82 19.29a.9.9 0 0 1 .08.37c0 .14-.03.26-.08.38a71.59 71.59 0 0 0 5.82 4.99.8.8 0 0 1 .4-.12c.14 0 .27.05.4.11.83-.64 1.65-1.3 2.45-1.98-.28-.32-.54-.65-.77-.98-.97-.97-1.68-1.89-2.31-2.7-.92-1.17-1.65-2.12-2.77-2.64-.04.12-.08.21-.12.28a3.16 3.16 0 0 1-2.43 1.61l-.67.68zm41.2 10.55a.72.72 0 0 1 .43-.15c.14 0 .27.05.39.12l.43-.26a13.57 13.57 0 0 1-3.19-.89c.64.4 1.29.8 1.94 1.18zm1.17.53l.01.06-.01.09a69.03 69.03 0 0 0 5.95 2.97.67.67 0 0 1 .4-.14c.14 0 .26.06.37.14a70.26 70.26 0 0 0 5.97-3.01l-.01-.05v-.04a65.56 65.56 0 0 1-3.15-2 20.5 20.5 0 0 1-7.03 1.34c-.46 0-.92-.02-1.37-.06l-1.13.7zm13.03-.55a.7.7 0 0 1 .4-.13.7.7 0 0 1 .4.13 71.23 71.23 0 0 0 5.88-3.89c-.02-.06-.04-.11-.04-.18 0-.07.02-.14.04-.21a65.84 65.84 0 0 1-2.5-2.02 20.45 20.45 0 0 1-6.94 4.58c.9.59 1.82 1.17 2.76 1.72zm21.3-19.23c.1-.04.22-.07.34-.07.12 0 .22.03.33.06a69.7 69.7 0 0 0 5.94-9.71 1.2 1.2 0 0 1-.33-1.24 56.36 56.36 0 0 1-7.17 9.7l.89 1.26zm6.64-11.49l-.03-.05-.09.17.12-.12zm-20.85 25.92a.86.86 0 0 1 .39-.11.8.8 0 0 1 .4.12 71.6 71.6 0 0 0 5.82-4.99.91.91 0 0 1 0-.75 73 73 0 0 1-.65-.66 3.18 3.18 0 0 1-2.71-1.84c-1.04.53-1.75 1.45-2.62 2.57-.64.82-1.35 1.73-2.32 2.7-.24.33-.5.66-.77.98.8.68 1.62 1.33 2.46 1.98zm28.39-55.92v-.68c-.3-.18-.55-.42-.74-.72-.52-.76-.57-1.74-.15-2.76l.05-.12c-1.62-1.25-2.47-4.14-2.6-8.84 0-.17.12-.31.29-.33.17-.02.33.1.35.27.7 3.99 1.73 5.87 2.5 6.76a70.3 70.3 0 0 0-6.27-23.32c-.07.01-.12.04-.19.04s-.13-.03-.2-.04c-.5 1.08-.97 2.16-1.42 3.26.5.81.97 1.64 1.41 2.47l.42.83.34.67c2.74 5.72 2.34 10.47 2.04 13.93-.09.99-.16 1.85-.16 2.62-.13 1.87 0 3.36 1.07 4.64a5.32 5.32 0 0 0 3.26 1.84v-.52zm-7.54-30.01a1.18 1.18 0 0 1-.03-1.77 70.09 70.09 0 0 0-5.94-9.71c-.1.03-.22.07-.33.07-.12 0-.23-.04-.34-.07a66.9 66.9 0 0 0-2.8 4.14 55.99 55.99 0 0 1 8.19 10.2c.4-.96.8-1.91 1.25-2.86zM40.35 41.65c-.11.03-.22.07-.34.07-.12 0-.22-.04-.32-.07a69.82 69.82 0 0 0-5.95 9.71c.24.22.39.53.39.88s-.17.67-.42.89c.44.95.85 1.9 1.25 2.86a55.97 55.97 0 0 1 8.2-10.2 68.75 68.75 0 0 0-2.81-4.14zM33.13 53.4c-.07.01-.13.04-.2.04s-.12-.03-.19-.04a70.31 70.31 0 0 0-6.28 23.32c.78-.89 1.8-2.77 2.5-6.76a.33.33 0 0 1 .65.06c-.13 4.69-.98 7.59-2.6 8.84l.04.11c.43 1.03.37 2.01-.14 2.77-.2.3-.44.53-.74.72a71.16 71.16 0 0 0 0 1.2 5.32 5.32 0 0 0 3.26-1.84c1.07-1.28 1.2-2.77 1.07-4.61 0-.8-.07-1.65-.16-2.64-.3-3.47-.7-8.22 2.04-13.94l.28-.56.46-.92c.46-.84.93-1.67 1.43-2.5-.45-1.09-.92-2.18-1.42-3.25zm56.06-22.3a18.07 18.07 0 0 0 1.66-.22 13.57 13.57 0 0 0 4.25-1.5 20.42 20.42 0 0 0 .44-.28l.17-.11c.07-.05.17-.07.25-.05l.34.07a.33.33 0 0 1-.1-.17.33.33 0 0 1 .1-.32 7.98 7.98 0 0 0 .9-.92c-.66.4-1.51.69-2.55.61-1.25-.09-1.8-.33-3.86-1.25l-.4-.17c-.97-.43-1.35-.03-2.26 1.12-.15.19-.3.39-.48.59a.32.32 0 0 1-.25.12.33.33 0 0 1-.2-.08.3.3 0 0 1-.05-.04 3.97 3.97 0 0 1-.8 2.68h.07a24.1 24.1 0 0 0 2.77-.07zm-2.06-2.99l.06-.1c.36-.63.81-1.39 1.17-1.71.4-.36.8-.72 1.8-.72.25 0 .52.02.84.07.85.12 1.5.46 2.14.78.52.27 1.01.52 1.61.67.52.13 2.13.35 3.43-1.4.2-.28.5-1.09.37-1.4 0-.03-.02-.05-.05-.06l-.07.05c-.26.19-.73.52-1.4.59l.22-.01h.02c.16 0 .3.11.32.27a.33.33 0 0 1-.23.37c-.18.05-.4.07-.63.07-.6 0-1.37-.16-2.26-.47a8.09 8.09 0 0 0-3.37-.39 4.44 4.44 0 0 0-.17.04l-.12.03h-.02a4.36 4.36 0 0 0-1.03.38c-.56.3-1.07.71-1.6 1.3l-.17.2a19.58 19.58 0 0 0-.92 1.17 5.54 5.54 0 0 1 .06.27zM90.09 20l.26-.05c.18-.04.34.08.37.25a.33.33 0 0 1-.24.39c-.06 0-.11.02-.17.03a5.9 5.9 0 0 0-2.37 1.2c-1.2 1-1.65 1.86-1.93 3.7l-.06.35-.06.46a9.7 9.7 0 0 1-.34 1.55 9.4 9.4 0 0 0 .75-.77l.01-.01.02-.03.09-.1.07-.09h.01l.01-.02c.26-.3.62-.75 1.1-1.17.51-.46 1.15-.9 1.92-1.14.32-.15.66-.29 1.04-.38a5.95 5.95 0 0 0 1.78-4.34c-.01-.26-.05-.31-.05-.32-.02-.01-.07-.04-.3-.05a6.17 6.17 0 0 0-2.03.2c-1.03.3-1.76.57-2.65 1.1a8.75 8.75 0 0 0-2.18 1.81 6.43 6.43 0 0 0-1.36 3.37 15.46 15.46 0 0 1-.1.63l-.01.01a7.13 7.13 0 0 1-.04.2c-.12.5-.3 1.01-.67 1.54a1.57 1.57 0 0 1 .57.48c.64-.3 1.32-1.38 1.46-2.05.09-.42.1-.89.13-1.39.06-1.29.13-2.75 1.33-3.85.9-.82 1.84-1.09 3.64-1.51zm-8.07 9.16l-.1.12a.34.34 0 0 1-.08.15 1.62 1.62 0 0 0-.17.81v.01c.06.55.49.93.83.93.34 0 .76-.38.83-.93v-.01a1.29 1.29 0 0 0-.04-.43 1.73 1.73 0 0 0-.19-.48 1.26 1.26 0 0 0-.12-.17.77.77 0 0 0-.48-.3.78.78 0 0 0-.48.3zm4.34-.75c-.89.44-1.69.94-2.39 1.48l.02.29c.18-.12.36-.26.55-.44.11-.11.3-.12.43-.02.13.11.16.3.06.44-.4.6-.96 1.02-1.3 1.23l-.08.16a4.58 4.58 0 0 0 .95-.38 3.32 3.32 0 0 0 1.76-2.76zm9.6-3.97a.32.32 0 0 1 .37-.26c.56.09.98-.3 1.36-.63.3-.25.54-.47.83-.47.04 0 .15.02.19.04.32.12.54.36.65.69l.07.33c1.16-.8 2.35-1.57 3.58-2.29l-.01-.06v-.04a67.36 67.36 0 0 0-5.96-3 .7.7 0 0 1-.38.13.67.67 0 0 1-.39-.14c-1.05.46-2.09.96-3.11 1.48.01.48.03 1.1-.08 1.55-.13.53-.29 1-.54 1.49a65.12 65.12 0 0 1 .33.19c.71 0 1.48.23 2.06.61.44.3.79.48 1.07.6a.33.33 0 0 1-.04-.22zm-.13-6.23a71.28 71.28 0 0 0-5.87-2.18.59.59 0 0 1-.38.15.58.58 0 0 1-.38-.15c-.97.32-1.93.66-2.88 1.01.5.77.91 1.73 1.1 2.92a11.04 11.04 0 0 1 2.08-.86 7.3 7.3 0 0 1 2.18-.41c.56 0 .97.13 1.22.38.11.12.19.26.23.42.89-.44 1.79-.87 2.7-1.28zm-17.02 2.5l.25.2c.01-.98.2-2.7 1.23-4.17.1-.23.4-.58.88-.5.39.06.59.4.74.67.08.12.15.25.22.32.12.11.24.13.29.12a.33.33 0 0 1 .13 0c.02.01.17.02.31-.12.08-.07.15-.2.23-.32.15-.27.35-.61.74-.67.47-.08.77.28.88.5a7.51 7.51 0 0 1 1.22 4.17l.26-.2c.14-1.06-.85-4.88-3.69-5.85-2.85.97-3.83 4.79-3.7 5.86zm3.61-2.7a1.1 1.1 0 0 1-.73-.3 2.1 2.1 0 0 1-.34-.47c-.08-.14-.2-.34-.28-.35-.14-.03-.2.13-.2.14l-.02.05c-1.22 2.46-.84 4.21-.73 4.6a4.96 4.96 0 0 1 1.41 1.67c.3.6.43 1.21.48 1.9.08-.51.1-1.2.12-2.04l.04-1.38c.01-.18.16-.32.34-.31.1 0 .18.04.24.11.05.05.07.12.08.2l.04 1.37c.02.84.04 1.53.12 2.05.05-.64.16-1.22.41-1.77.3-.64.76-1.22 1.48-1.8.11-.4.5-2.15-.73-4.6a.32.32 0 0 1-.03-.05c0-.02-.06-.16-.2-.14-.07.01-.19.21-.27.35-.1.16-.2.33-.34.47a1.1 1.1 0 0 1-.81.3.8.8 0 0 1-.08 0zm6.07-2.44a71.12 71.12 0 0 0-5.63-1.42.53.53 0 0 1-.14.1 7.3 7.3 0 0 1 3.2 2.24c.84-.33 1.7-.64 2.57-.92zm11.43 14l.17.36a.32.32 0 0 1-.09.38c.77.34 1.4.7 2.09 1.18a71.9 71.9 0 0 0-2.17-1.92zm-2.43.64c-.16-.04-.27-.01-.3.07a.17.17 0 0 0 .02.19.3.3 0 0 1 .08.06c1.09.82 2.05 1.77 2.8 2.54l.56.59a11.31 11.31 0 0 1 .93 1.1 6.92 6.92 0 0 0 1.75 1.72c.12.04.2.16.2.29 0 .18-.12.34-.33.33a.3.3 0 0 1-.17-.04 11.45 11.45 0 0 1-2.27-1.76c-.87-.88-2.32-2.36-3.5-3.28a11.4 11.4 0 0 0-.8-.58h-.02l-.04-.02c-.1-.06-.51-.18-.82-.06-.17.07-.33.17-.52.29-.2.14-.45.3-.77.44.54.24 1.06.5 1.56.79 2.44 1.39 4.13 2.5 5.5 3.39 2.21 1.46 3.43 2.26 5.46 2.68.32.06.7.13 1.1.18.38.05.73.07 1.08.07.67 0 1.28-.13 1.84-.36a9 9 0 0 1-.43-.05c-1.38-.21-3.33-1.45-4.7-2.54a28.26 28.26 0 0 1-2.01-1.84c-.72-.7-1.54-1.5-2.44-2.26a7.44 7.44 0 0 0-.82-.6 12.8 12.8 0 0 0-2.94-1.34zm5.82 1.54a.93.93 0 0 1 .43-.12 1 1 0 0 1 .43.11 71.34 71.34 0 0 1 5.86-5.05c-.02-.07-.04-.14-.04-.21 0-.06.02-.12.04-.18a71.1 71.1 0 0 0-5.89-3.89.69.69 0 0 1-.4.13.7.7 0 0 1-.4-.13c-1.36.82-2.7 1.68-4 2.57-.1.39-.26.76-.45 1.05 0 0-.31.5-.9 1.01l.04.04c.02.02.22.18.5.49a73.23 73.23 0 0 1 4.78 4.18zm8.37-1.36a3.76 3.76 0 0 0-.4-.11c-1-.21-1.87.2-2.23 1.04-.31.73-.15 1.57.4 2.15.44.46.99.72 1.5.72.43 0 .78-.17.97-.47.23-.35.22-.87-.04-1.46v-.02c-.16-.18-.36-.46-.33-.72.04-.38.5-.5.99-.08.06.05.55.5.5.9a.4.4 0 0 1-.14.26c.43.88.33 1.9-.3 2.7-.63.8-1.95 1.4-3.6.46l-.01-.01-.12-.07h-.01c-.31.2-.68.3-1.1.3-.14 0-.27 0-.41-.03a71.93 71.93 0 0 1 .38.43c.93.79 1.8 1.34 2.76 1.48.18.03.39.02.62-.01a3.9 3.9 0 0 0 2.17-1.18c.15-.17.28-.35.39-.56.17-.35.3-.71.36-1.08.43-2.19-.33-3.8-2.15-4.57a6.55 6.55 0 0 0-.2-.07zm-3.88 1.06a3.13 3.13 0 0 1 4.23-1.63c.33.12.64.26.92.42a5.13 5.13 0 0 1 2.68 4.17c.46-.5.94-.99 1.42-1.47a.91.91 0 0 1 0-.75 71.77 71.77 0 0 0-5.82-4.99.8.8 0 0 1-.4.12.86.86 0 0 1-.4-.11 69.94 69.94 0 0 0-5.82 5.01c.05.11.07.22.07.35 0 .15-.04.29-.1.42.57.58 1.14 1.18 1.7 1.78.3.12.58.2.81.23a1 1 0 0 0 .46-.02c.21-.1.32-.17.39-.25a3.04 3.04 0 0 1-.42-1.12 3.74 3.74 0 0 1 .28-2.16zM77.85 28.8v-.28a.32.32 0 0 1-.23.1h-.02a.32.32 0 0 1-.25-.12l-.48-.59c-.9-1.15-1.3-1.55-2.27-1.12l-.4.18c-2.06.91-2.6 1.15-3.85 1.24l-.3.01a4.4 4.4 0 0 1-2.25-.6c.27.32.57.62.9.9.08.08.12.2.1.32a.33.33 0 0 1-.1.17 26.05 26.05 0 0 1 .36-.07c.1-.02.18 0 .25.06l.15.1a18.44 18.44 0 0 0 .46.3 12.14 12.14 0 0 0 4.24 1.48 17.68 17.68 0 0 0 1.74.23c.85.07 1.75.1 2.68.07h.06a3.78 3.78 0 0 1-.8-2.38zm4.29-14.65c-1.9.4-3.78.87-5.63 1.42.87.29 1.73.6 2.58.92a7.29 7.29 0 0 1 3.19-2.25.54.54 0 0 1-.14-.09zm-6.34 1.88a.59.59 0 0 1-.38.15.59.59 0 0 1-.38-.15 74.97 74.97 0 0 0-5.87 2.18c.91.41 1.81.84 2.7 1.29a.88.88 0 0 1 .23-.43c.25-.25.66-.38 1.22-.38a7.1 7.1 0 0 1 2.28.46c.72.22 1.32.45 1.98.8.19-1.19.6-2.14 1.1-2.91-.95-.35-1.9-.7-2.88-1.01zm5.42 9.9c-.15-.97-.3-1.98-1.36-3.36a8.24 8.24 0 0 0-2.18-1.81 10.6 10.6 0 0 0-2.66-1.1 6.16 6.16 0 0 0-2.32-.15c0 .01-.04.06-.05.33-.03.89.16 2.62 1.78 4.33.38.1.72.23 1.04.39a5.81 5.81 0 0 1 2.55 1.76 13.62 13.62 0 0 1 .48.55l.02.03.04.04v.01l.01.01.01.01.06.07.02.03c.22.25.48.54.79.8-.2-.55-.3-1.23-.4-2l-.06-.35c-.28-1.84-.73-2.7-1.93-3.7a6.27 6.27 0 0 0-2.38-1.2l-.16-.03a.33.33 0 0 1-.25-.39c.04-.17.2-.28.38-.25l.26.05c1.8.42 2.74.69 3.64 1.51 1.2 1.1 1.27 2.56 1.33 3.84.02.51.04.98.13 1.4.14.67.81 1.76 1.46 2.05a1.89 1.89 0 0 1 .57-.47 4.34 4.34 0 0 1-.72-1.8l-.1-.6zm-1.46 4.8a3.6 3.6 0 0 0 .66.45c.31.17.63.28.93.37l-.09-.16c-.33-.2-.9-.62-1.3-1.23a.34.34 0 0 1 .07-.44c.13-.1.32-.09.44.02.18.18.36.32.54.44 0-.1 0-.2.02-.29a13.9 13.9 0 0 0-2.4-1.48l.06.37c.17.9.58 1.51 1.07 1.95zm-5.8-5.99a2.2 2.2 0 0 0-.31-.04l-.06-.01-.51-.02a8.1 8.1 0 0 0-2.55.44 7.2 7.2 0 0 1-2.26.47c-.24 0-.45-.02-.63-.07a.34.34 0 0 1-.23-.37c.03-.16.14-.26.34-.27h.21a2.84 2.84 0 0 1-1.47-.64.18.18 0 0 0-.04.07c-.13.31.16 1.12.37 1.4 1.3 1.76 2.92 1.53 3.43 1.4.6-.15 1.09-.4 1.6-.67.64-.32 1.3-.66 2.15-.78.32-.05.6-.07.85-.07 1 0 1.4.36 1.75.69.39.35.85 1.1 1.2 1.72l.04.06.05.06.04-.27-.06-.08-.52-.68-.3-.37-.2-.24a8.05 8.05 0 0 0-.92-.86 4.77 4.77 0 0 0-1.96-.87zm-5.23-6a.67.67 0 0 1-.4.14.7.7 0 0 1-.37-.13c-2.03.9-4.03 1.9-5.97 3l.01.04v.06c1.22.72 2.4 1.5 3.57 2.29l.07-.33c.11-.33.33-.57.65-.69a.66.66 0 0 1 .2-.04c.28 0 .53.22.81.47.39.33.81.72 1.36.63.18-.03.34.09.37.26.02.08 0 .16-.03.23a6.9 6.9 0 0 0 1.06-.61 3.92 3.92 0 0 1 2.11-.61l.3-.19a6.12 6.12 0 0 1-.55-1.49 6.38 6.38 0 0 1-.08-1.55 63.48 63.48 0 0 0-3.12-1.48zM66.08 26a3.66 3.66 0 0 1-.43-1.02c-1.3-.9-2.64-1.76-4.01-2.57a.68.68 0 0 1-.4.13.69.69 0 0 1-.4-.13 71.23 71.23 0 0 0-5.88 3.89c.02.06.04.12.04.18 0 .07-.02.14-.04.21 2.05 1.58 4 3.27 5.86 5.05a1 1 0 0 1 .42-.11c.17 0 .31.05.44.12 1.5-1.43 3.08-2.8 4.7-4.1a5.8 5.8 0 0 1 .63-.6A5.1 5.1 0 0 1 66.1 26zm-1.11 4.29a.32.32 0 0 1-.07-.36l.17-.35c-.74.62-1.47 1.26-2.18 1.92.7-.5 1.33-.85 2.1-1.2a.3.3 0 0 1-.02-.01zm2.77.21h.01c.08-.07.09-.16.06-.22-.04-.08-.16-.1-.32-.07-1.6.53-2.85 1.17-3.75 1.94-.9.76-1.71 1.56-2.44 2.26-.75.72-1.4 1.35-2.01 1.84-1.37 1.09-3.32 2.33-4.7 2.54l-.43.05c.3.13.62.22.95.28.7.12 1.43.1 2.22-.02l.85-.15c2.02-.42 3.25-1.22 5.47-2.68 1.36-.89 3.05-2 5.49-3.39a19.85 19.85 0 0 1 1.56-.8c-.32-.13-.56-.29-.77-.43a3.02 3.02 0 0 0-.53-.29c-.3-.12-.68-.01-.82.06h-.02c-.3.2-.57.4-.83.6a40.05 40.05 0 0 0-3.5 3.28c-.54.55-1.46 1.31-2.27 1.76a.3.3 0 0 1-.16.04.33.33 0 0 1-.28-.16.33.33 0 0 1 .1-.44 6.82 6.82 0 0 0 1.78-1.74c.26-.33.53-.67.9-1.05l.6-.64.43-.44a20.7 20.7 0 0 1 2.4-2.13zM60.43 33a.94.94 0 0 1-.11-.42c0-.13.02-.24.07-.35a70.44 70.44 0 0 0-5.83-5.01.86.86 0 0 1-.39.11.8.8 0 0 1-.4-.12 69.79 69.79 0 0 0-5.82 5 .9.9 0 0 1 0 .74l1.42 1.46a5.3 5.3 0 0 1 3.74-4.63 3.13 3.13 0 0 1 4.2 1.98l.07.19c.26.87.2 1.93-.32 2.8a1 1 0 0 0 .39.24c.22.09.7.01 1.27-.2.56-.61 1.13-1.2 1.7-1.79zm-4.44 2.77c-1.65.94-2.97.34-3.6-.46a2.52 2.52 0 0 1-.3-2.7.41.41 0 0 1-.13-.27c-.05-.39.44-.84.5-.89.15-.12.37-.28.58-.28a.4.4 0 0 1 .41.36c.03.26-.17.54-.33.72l-.01.04c-.25.58-.26 1.1-.03 1.44.19.3.54.47.96.47.52 0 1.07-.26 1.51-.72.55-.58.71-1.42.4-2.15-.36-.84-1.23-1.25-2.23-1.04h-.04a3.74 3.74 0 0 0-.56.18c-1.82.76-2.58 2.38-2.15 4.57a4.31 4.31 0 0 0 .36 1.08 3.54 3.54 0 0 0 1.47 1.38c.36.18.71.29 1.02.34.26.05.5.06.7.03a5.63 5.63 0 0 0 3.15-1.92l-.36.02c-.46 0-.86-.1-1.17-.3l-.15.1zm20.18 108.71l-.01.04c1.93 1.1 3.92 2.1 5.97 3.01a.7.7 0 0 1 .37-.13c.14 0 .27.06.37.13a67.43 67.43 0 0 0 5.97-3.01v-.04-.01c-1.02-.6-2-1.21-2.98-1.85a5.23 5.23 0 0 1-3.34 1.33h-.01a5.28 5.28 0 0 1-3.36-1.34 66.78 66.78 0 0 1-2.98 1.87zm6.7-3.94a.77.77 0 0 1-.37.1.77.77 0 0 1-.37-.1l-1.1.79c.45.14.94.21 1.47.21.54 0 1.02-.07 1.47-.2a75.8 75.8 0 0 1-1.1-.8zm-7.03 4.55a.77.77 0 0 1-.42.14.74.74 0 0 1-.39-.12 70.51 70.51 0 0 1-5.86 2.96c1.92.82 3.88 1.54 5.86 2.18a.6.6 0 0 1 .39-.15c.15 0 .28.06.38.15 2-.65 3.97-1.37 5.89-2.19-2-.9-3.95-1.9-5.85-2.97zm.67 5.62c1.44.43 2.9.8 4.36 1.14a70.35 70.35 0 0 0 3.26 0c1.47-.33 2.92-.71 4.36-1.14a70.9 70.9 0 0 1-5.6-2.12.69.69 0 0 1-.39.14.68.68 0 0 1-.4-.14 70.88 70.88 0 0 1-5.59 2.12zm12.69-.46c.1-.09.23-.15.38-.15s.28.06.38.15a67.82 67.82 0 0 0 5.87-2.18 70.4 70.4 0 0 1-5.86-2.96.75.75 0 0 1-.39.12.77.77 0 0 1-.42-.14 71.15 71.15 0 0 1-5.85 2.97c1.92.82 3.89 1.54 5.89 2.19zm36.65-110.19c.13.17.21.37.21.59 0 .24-.09.45-.22.62a70.83 70.83 0 0 1 6.01 9.82c.08-.02.14-.05.22-.05.08 0 .14.03.2.05a71.4 71.4 0 0 1 6-9.78 69.94 69.94 0 0 0-6.7-7.77 70.63 70.63 0 0 0-5.72 6.52zm-7.08-7.86a.92.92 0 0 1-.01.77 67.88 67.88 0 0 1 5.87 6.69.9.9 0 0 1 .36-.08 1 1 0 0 1 .35.07 72.8 72.8 0 0 1 5.76-6.57 69.94 69.94 0 0 0-6.65-5.77c-2 1.54-3.89 3.18-5.68 4.89zm-7.14-5.89l.03.18c0 .07-.02.13-.04.2 2.05 1.57 4 3.25 5.89 5.05.12-.06.25-.1.4-.1a.9.9 0 0 1 .4.1 72.56 72.56 0 0 1 5.6-4.84 69.61 69.61 0 0 0-6.6-4.36 69.92 69.92 0 0 0-5.68 3.77zm-7.15-4.55l.01.04v.06a71.74 71.74 0 0 1 5.92 3.92.85.85 0 0 1 .42-.13c.15 0 .3.06.42.13a71.05 71.05 0 0 1 5.4-3.62c-2.1-1.2-4.28-2.3-6.52-3.27a70.52 70.52 0 0 0-5.65 2.87zm-7.01-3.54c2 .9 3.95 1.9 5.86 2.98a.74.74 0 0 1 .41-.14c.16 0 .3.06.42.14a70.1 70.1 0 0 1 5.16-2.65 68.81 68.81 0 0 0-6.46-2.35c-1.84.6-3.64 1.28-5.4 2.02zm-6.8-2.64c1.9.63 3.76 1.34 5.6 2.12a.68.68 0 0 1 .4-.14c.14 0 .27.06.38.14a70.34 70.34 0 0 1 4.72-1.83 68.75 68.75 0 0 0-6.38-1.52c-1.6.36-3.17.77-4.72 1.23zm-6.53-1.82c1.7.39 3.38.84 5.04 1.35a.65.65 0 0 1 .4-.16c.16 0 .3.07.4.16a74.7 74.7 0 0 1 3.78-1.05c-2.2-.36-4.42-.61-6.68-.76-.98.13-1.96.29-2.94.46zm-2.03-.42a.58.58 0 0 1 .78 0l.93-.18a70.32 70.32 0 0 0-2.64 0l.93.18zm-7.1 1.77a.64.64 0 0 1 .4-.16c.16 0 .3.07.41.16 1.66-.51 3.34-.96 5.04-1.35-.98-.17-1.96-.33-2.94-.46-2.26.15-4.49.4-6.68.76 1.27.32 2.53.67 3.78 1.05zm-7.06 2.59a.66.66 0 0 1 .39-.14c.15 0 .28.06.4.14 1.83-.78 3.7-1.49 5.59-2.12a72.44 72.44 0 0 0-4.72-1.23c-2.16.4-4.3.92-6.38 1.52 1.6.56 3.18 1.17 4.72 1.83zm-7.11 3.5a.75.75 0 0 1 .41-.14c.16 0 .3.06.42.14a71.49 71.49 0 0 1 5.86-2.98 71.03 71.03 0 0 0-5.4-2.02c-2.2.68-4.35 1.46-6.45 2.35 1.77.81 3.48 1.7 5.16 2.65zm-7.1 4.58a.87.87 0 0 1 .43-.13c.16 0 .3.06.42.13a71.37 71.37 0 0 1 5.93-3.92l-.01-.06v-.04a72.63 72.63 0 0 0-5.64-2.87 69.17 69.17 0 0 0-6.53 3.27 71.02 71.02 0 0 1 5.4 3.62zm-7.05 5.96a.9.9 0 0 1 .4-.1.9.9 0 0 1 .4.1 70.83 70.83 0 0 1 5.89-5.05c-.02-.07-.04-.13-.04-.2l.03-.18a69.87 69.87 0 0 0-5.68-3.77 69.61 69.61 0 0 0-6.6 4.36 72.72 72.72 0 0 1 5.6 4.84zm-7.03 7.91a.9.9 0 0 1 .71.01 71.07 71.07 0 0 1 5.88-6.69.92.92 0 0 1-.1-.39c0-.14.03-.26.08-.38a71.29 71.29 0 0 0-5.68-4.89 69.94 69.94 0 0 0-6.66 5.77 72.74 72.74 0 0 1 5.77 6.57zm-6.94 11.43c.07-.01.13-.04.2-.04.09 0 .15.03.23.05a70.84 70.84 0 0 1 6-9.82 1.02 1.02 0 0 1-.21-.62c0-.22.08-.42.2-.59a70.91 70.91 0 0 0-5.71-6.52 69.94 69.94 0 0 0-6.7 7.77 71.7 71.7 0 0 1 5.99 9.77zm-6.87 25.19a70.9 70.9 0 0 1 6.3-23.12 1.19 1.19 0 0 1-.42-.9c0-.35.15-.66.4-.88a71.2 71.2 0 0 0-5.8-9.5 69.43 69.43 0 0 0-6.72 11.4 70.12 70.12 0 0 1 6.24 23zm-.33 6.88v-.39a2.55 2.55 0 0 1-1.75-.13.5.5 0 0 1-.34.17c-.27 0-.65-.26-.86-.59-.24-.37-.22-.83.04-1.09.17-.16.42-.15.8-.06.22.05.51.12.86.12l.14-.01c.23 0 .71-.16 1.07-.48-.03-.74-.06-1.48-.11-2.21a1.7 1.7 0 0 0-1.21-.46c-1.1 0-2.37.78-2.53 2.04a2.92 2.92 0 0 0 .77 2.31c.76.86 1.97 1.4 3.12 1.37v-.59zm-6.27-29.1a68.96 68.96 0 0 0-6.1 28.46c0 10.38 2.29 20.24 6.39 29.09a69.5 69.5 0 0 0 5.14-17.51c-1.89.34-4.24-.87-4.37-4.07-.1-2.55 2.07-4 3.7-4.44-1.63-.42-3.8-1.89-3.7-4.44.11-2.84 2.02-4.13 3.73-4.13.43 0 .85.08 1.24.23a69.55 69.55 0 0 0-6.03-23.19zm12.87 60.87a1.15 1.15 0 0 1 .03-1.77 71.1 71.1 0 0 1-5.75-18.78 2.72 2.72 0 0 0-.76-.61l-.27.13a70.08 70.08 0 0 1-5.46 18.48 69.47 69.47 0 0 0 6.88 11.41c2-2.84 3.78-5.8 5.33-8.86zm7.03 11.31c-.13-.17-.21-.37-.21-.59 0-.24.09-.45.22-.62a71.04 71.04 0 0 1-6.01-9.82c-.08.02-.14.05-.22.05-.08 0-.14-.03-.21-.04a71.86 71.86 0 0 1-5.52 9.12 69.95 69.95 0 0 0 6.86 7.78 72.17 72.17 0 0 0 5.09-5.88zm7.08 7.86a.94.94 0 0 1-.08-.38c0-.14.04-.27.1-.39-.75-.75-1.48-1.5-2.2-2.28a77.5 77.5 0 0 1-3.68-4.4c-.11.04-.23.07-.36.07-.12 0-.24-.03-.35-.07a72.99 72.99 0 0 1-5.13 5.92c2.16 2.07 4.44 4 6.85 5.77 1.7-1.35 3.3-2.77 4.85-4.24zm7.14 5.89l-.03-.18c0-.07.02-.13.04-.2-2.05-1.57-4.01-3.25-5.89-5.05a.9.9 0 0 1-.4.1.9.9 0 0 1-.4-.1 73.15 73.15 0 0 1-4.77 4.18 69.56 69.56 0 0 0 6.85 4.37 72.64 72.64 0 0 0 4.6-3.12zm7.15 4.55l-.01-.05v-.05a69.28 69.28 0 0 1-5.92-3.92.87.87 0 0 1-.42.13.87.87 0 0 1-.42-.13 72.8 72.8 0 0 1-4.33 2.95 69.1 69.1 0 0 0 6.88 3.27 67.97 67.97 0 0 0 4.22-2.2zm7 3.54c-1.99-.9-3.94-1.9-5.85-2.98a.75.75 0 0 1-.42.14.75.75 0 0 1-.4-.14 72.9 72.9 0 0 1-3.73 1.97c2.28.9 4.62 1.68 7.02 2.34 1.14-.41 2.27-.86 3.39-1.33zm6.8 2.64a69.31 69.31 0 0 1-5.59-2.12.68.68 0 0 1-.4.14.66.66 0 0 1-.38-.14c-.9.38-1.8.75-2.73 1.1 2.45.63 4.94 1.13 7.48 1.49.54-.15 1.09-.3 1.63-.47zm1.5.47a.59.59 0 0 1-.8 0l-.7.21c1.08.13 2.17.23 3.27.3-.6-.16-1.18-.33-1.77-.51zm14.16 0a.59.59 0 0 1-.8 0l-1.77.52a69.4 69.4 0 0 0 3.27-.3l-.7-.22zm7.07-2.59a.66.66 0 0 1-.39.14.68.68 0 0 1-.4-.14c-1.83.78-3.7 1.5-5.59 2.12l1.63.47c2.54-.36 5.03-.86 7.47-1.49-.91-.35-1.82-.72-2.72-1.1zm7.1-3.5a.74.74 0 0 1-.4.14.74.74 0 0 1-.42-.14 71.5 71.5 0 0 1-5.86 2.98c1.11.47 2.24.92 3.4 1.33 2.38-.66 4.73-1.44 7-2.34a73.46 73.46 0 0 1-3.71-1.97zm7.1-4.58a.87.87 0 0 1-.42.13.85.85 0 0 1-.42-.13 72.22 72.22 0 0 1-5.93 3.93l.01.04v.05c1.36.78 2.77 1.52 4.2 2.2a69.1 69.1 0 0 0 6.89-3.27 72.53 72.53 0 0 1-4.33-2.95zm7.06-5.95c-.12.05-.26.09-.4.09a.9.9 0 0 1-.4-.1 68.91 68.91 0 0 1-5.88 5.05c.01.07.04.13.04.2 0 .06-.03.12-.04.18a72.73 72.73 0 0 0 4.6 3.12 69.56 69.56 0 0 0 6.85-4.37 75.65 75.65 0 0 1-4.77-4.17zm7.03-7.92a1 1 0 0 1-.35.07c-.13 0-.25-.03-.36-.07a76.77 76.77 0 0 1-3.69 4.4c-.7.78-1.44 1.53-2.19 2.28a.9.9 0 0 1 .02.77 72.12 72.12 0 0 0 4.85 4.24c2.4-1.78 4.7-3.7 6.85-5.77a73 73 0 0 1-5.13-5.92zm6.94-11.43c-.07.01-.13.04-.2.04-.09 0-.16-.03-.23-.05a70.82 70.82 0 0 1-6 9.82c.12.17.21.38.21.62 0 .22-.08.42-.2.6a73.13 73.13 0 0 0 5.07 5.87 69.95 69.95 0 0 0 6.87-7.78 71.9 71.9 0 0 1-5.52-9.12zm.56-2.07c.26.22.43.54.43.91 0 .35-.15.65-.4.87a71.32 71.32 0 0 0 5.34 8.86 69.47 69.47 0 0 0 6.88-11.4 70.08 70.08 0 0 1-5.46-18.5 3.16 3.16 0 0 1-.27-.12c-.18.1-.45.27-.76.6a70.95 70.95 0 0 1-5.76 18.78zm6.64-29.99v.59c1.15.02 2.36-.5 3.12-1.37.42-.48.9-1.27.77-2.31-.16-1.26-1.44-2.04-2.53-2.04-.3 0-.83.07-1.2.46-.06.73-.1 1.47-.12 2.21.36.32.84.47 1.07.48l.14.01c.34 0 .63-.07.87-.12.37-.09.62-.1.8.06.25.26.27.71.03 1.09-.21.33-.59.59-.86.59-.13.02-.26-.08-.34-.17a2.5 2.5 0 0 1-1.75.13v.39zm5.98 28.44c4.1-8.85 6.4-18.7 6.4-29.08a68.96 68.96 0 0 0-6.11-28.46 69.57 69.57 0 0 0-6.03 23.19c.39-.15.8-.23 1.23-.23 1.72 0 3.63 1.29 3.74 4.13.1 2.55-2.07 4.02-3.7 4.44 1.63.43 3.8 1.89 3.7 4.44-.11 2.84-2.02 4.13-3.74 4.13a3.5 3.5 0 0 1-.63-.06 69.53 69.53 0 0 0 5.14 17.5zM82.5 157.41c-41.3 0-74.9-33.61-74.9-74.91S41.2 7.59 82.5 7.59c41.3 0 74.9 33.61 74.9 74.91s-33.6 74.91-74.9 74.91zM67.43 29.35a.3.3 0 0 1-.17-.2c-.03-.13-.27-.25-.44-.08l-.55.72 1.19-.42a.27.27 0 0 1-.03-.02zm4.35-5.23c-.14.02-.29.05-.43.09.14-.04.29-.06.43-.09zm6.5 3.66v0zm-.48-1.19a9.1 9.1 0 0 0-.06-.06l.06.06zm-.39-.38zm3.95 2.99zm16.8-.15c-.12-.11-.39-.03-.42.1a.33.33 0 0 1-.17.2.27.27 0 0 1-.03.02l1.19.42c-.18-.25-.37-.5-.57-.74zM32.2 68.07a.33.33 0 0 1-.3-.44 54.07 54.07 0 0 1 20.74-26.57c.15-.1.36-.06.46.09.1.15.06.35-.1.45a53.43 53.43 0 0 0-20.5 26.25.33.33 0 0 1-.3.22zm100.58 0a.34.34 0 0 1-.3-.22 53.44 53.44 0 0 0-20.51-26.25.32.32 0 1 1 .36-.54 54.06 54.06 0 0 1 20.76 26.57.33.33 0 0 1-.2.42l-.1.02zm8.44 20.45a.5.5 0 0 1 .34-.17c.27 0 .65.26.86.59.24.38.22.83-.04 1.09-.17.17-.42.15-.8.06-.23-.05-.52-.12-.86-.12l-.14.01c-.17 0-.47.1-.76.26.1.93.2 1.85.33 2.77.25.1.5.12.68.12 1.1 0 2.37-.78 2.53-2.03a2.92 2.92 0 0 0-.77-2.32 4.16 4.16 0 0 0-3-1.37l.07.95c.52-.1 1.07-.06 1.56.16zm-2 2.3c-.23.43-.17.95.18 1.56v.01a71 71 0 0 1-.18-1.58v.01zm-20.92 34.44a.33.33 0 0 1-.24-.11.32.32 0 0 1 .02-.46 53.23 53.23 0 0 0 14.4-21.49.34.34 0 0 1 .41-.2c.17.07.26.25.2.42a53.86 53.86 0 0 1-14.57 21.75.32.32 0 0 1-.22.09zM22.4 88.78c-.42.48-.9 1.27-.77 2.32.16 1.25 1.44 2.03 2.53 2.03.18 0 .43-.02.68-.12.13-.92.24-1.84.33-2.77a1.84 1.84 0 0 0-.76-.26l-.14-.01c-.34 0-.63.07-.87.12-.37.09-.62.1-.8-.06-.25-.26-.27-.72-.03-1.09.21-.33.6-.59.86-.59.1 0 .26.08.34.17a2.54 2.54 0 0 1 1.56-.16l.06-.95c-1.1.01-2.26.54-3 1.37zm3.19 3.6c.35-.61.41-1.13.18-1.56a70.97 70.97 0 0 1-.18 1.56zm21.1 32.88a.31.31 0 0 1-.22-.09 53.79 53.79 0 0 1-14.57-21.75.34.34 0 0 1 .2-.42c.16-.05.35.03.41.2a53.28 53.28 0 0 0 14.4 21.49c.13.12.14.32.02.46a.33.33 0 0 1-.24.11zm70.65-23.7a8.1 8.1 0 0 0 1.78-1.71c.34-.18.54-.06.62.35a8.86 8.86 0 0 1-3.06 2.58c-.79.37-1.56.56-2.33.56-1.15 0-1.97-.32-2.46-.98a3.26 3.26 0 0 1-.52-1.96c0-.9.17-1.81.52-2.71a11.72 11.72 0 0 1 2.07-3.33 11.12 11.12 0 0 1 2.72-2.4 4.36 4.36 0 0 1 2.17-.64c1.37 0 2.06.58 2.06 1.74 0 1.69-.97 3.2-2.91 4.54-.45.3-.9.57-1.32.79a8.09 8.09 0 0 1-2.95.96 5.96 5.96 0 0 0-.47 1.9c0 .9.48 1.36 1.44 1.36.6 0 1.26-.21 1.98-.63.21-.12.43-.26.66-.42zm.21-5.08c1.18-1.29 1.77-2.51 1.77-3.65 0-.49-.19-.74-.55-.74-.5 0-1.2.62-2.1 1.85l-.23.33a23.02 23.02 0 0 0-2.4 4.23 4.4 4.4 0 0 0 2.64-1.18c.29-.24.58-.52.87-.84zm.78-20.49c.1-.03.22.01.33.11.12.11.16.22.14.35-.7.99-1.4 1.74-2.12 2.23-.73.51-1.47.76-2.23.76-1.21 0-1.82-.61-1.82-1.82 0-.42.2-1.18.62-2.29-.47.61-.92 1.15-1.36 1.63-1.5 1.65-2.74 2.48-3.72 2.48-.87 0-1.45-.36-1.75-1.07a3.64 3.64 0 0 1-.23-1.39c0-.6.08-1.19.23-1.77.44-1.66 1.48-3.25 3.15-4.79.76-.71 1.54-1.29 2.32-1.75a8.59 8.59 0 0 1 4.79-1.25 8.6 8.6 0 0 1 2.12.22c.1.06.15.12.15.2 0 .08-.07.24-.23.47-.05.08-.73 1.63-2.04 4.66l-.01.03c-1.17 2.68-1.75 4.31-1.75 4.88 0 .4.15.59.46.59.32 0 .76-.24 1.3-.72.46-.41 1.02-1 1.65-1.76zm-5.5-1.39a20.2 20.2 0 0 0 2.1-3.24c.49-.97.73-1.72.73-2.23 0-.48-.18-.71-.55-.71-.84 0-1.91.79-3.22 2.36-.34.41-.7.87-1.06 1.39-1.8 2.5-2.7 4.37-2.7 5.6 0 .47.2.7.62.7.57 0 1.61-.91 3.14-2.73.3-.35.6-.73.93-1.14zm15.37-9.81c-.32.41-.72.61-1.18.61-.88 0-1.32-.51-1.32-1.52 0-.46.16-.89.48-1.3.32-.4.72-.6 1.19-.6.87 0 1.31.51 1.31 1.51 0 .47-.16.9-.48 1.3zm-1.14 3.2c-.86 1.71-1.7 3.42-2.53 5.13-1.34 2.76-2.01 4.38-2.01 4.85 0 .33.14.5.43.5.38 0 .97-.32 1.74-.97a8.7 8.7 0 0 0 1.47-1.44c.08-.02.19.01.31.1.13.09.19.2.16.33a9.44 9.44 0 0 1-1.51 1.63c-1.04.88-1.98 1.32-2.84 1.32-1.3 0-1.94-.62-1.94-1.86 0-.52.61-2.12 1.83-4.81.49-1.01 1.06-2.24 1.7-3.69.1-.28.02-.43-.27-.43-.57 0-.85-.19-.85-.58 0-.39.22-.57.66-.54 1.11.08 2.17.03 3.18-.16.18-.02.32.02.43.14.1.12.11.28.04.48zm-20.12 33.22a7.84 7.84 0 0 0 1.67-1.78c.13-.06.26-.02.4.09.15.12.22.27.22.45a11.38 11.38 0 0 1-2.8 2.68c-.8.49-1.55.73-2.28.73-1.68 0-2.53-1.07-2.53-3.22 0-1.86.83-3.8 2.47-5.82.79-.96 1.56-1.69 2.33-2.2a4.55 4.55 0 0 1 2.5-.82c1.3 0 1.94.7 1.94 2.09 0 .65-.19 1.15-.56 1.5-.38.35-.77.52-1.18.52-.78 0-1.17-.37-1.17-1.12 0-.37.2-.71.6-1.03.4-.33.6-.57.6-.72 0-.26-.12-.39-.38-.39-.68 0-1.46.77-2.35 2.29-.28.48-.57 1.04-.87 1.67-1.17 2.48-1.75 4.31-1.75 5.47 0 .57.24.85.74.85.52 0 1.15-.27 1.88-.82.17-.12.34-.27.52-.42zm-.44-32.63c0 .12-.03.22-.08.3-.08.14-.24.2-.46.2h-2.28l-3.63 7.72c-.2.44-.3.82-.3 1.13 0 .52.19.77.58.77.7 0 1.68-.72 2.95-2.17.28-.1.49-.04.62.19-1.25 1.79-2.6 2.68-4.04 2.68-.86 0-1.48-.2-1.84-.61-.27-.31-.4-.72-.4-1.25 0-.47.1-.96.34-1.48l.06-.12 3.3-6.85-1.64-.01c-.35 0-.52-.17-.52-.5 0-.34.17-.51.52-.51h2.12l2.45-5.23c.23-.5.68-.74 1.35-.74.37 0 .65.04.82.13.16.08.23.19.23.34v.28l-.23.47-2.26 4.75h1.8c.22 0 .38.07.46.2.05.08.08.18.08.31zm-6.84 31.35c.1-.03.2.01.32.12.12.1.17.22.14.35a8.79 8.79 0 0 1-2.1 2.21c-.73.52-1.49.77-2.25.77-1.21 0-1.82-.6-1.82-1.82 0-.41.2-1.18.62-2.29a17 17 0 0 1-3.19 3.33c-.67.5-1.27.75-1.8.78h-.09c-1.32 0-1.98-.82-1.98-2.45 0-1.8.7-3.53 2.07-5.2.38-.46.82-.92 1.3-1.37l.5-.44c2.02-1.71 4.1-2.56 6.22-2.56h.42a8.4 8.4 0 0 1 2.1.23c.1.05.15.12.15.19 0 .09-.07.24-.23.48-.05.07-.73 1.61-2.02 4.61l-.03.07c-1.17 2.69-1.75 4.32-1.75 4.89 0 .39.15.58.47.58.32 0 .76-.24 1.31-.73.46-.41 1-.99 1.63-1.75zm-9.59 2.48c.3 0 .74-.26 1.31-.77.72-.64 1.63-1.67 2.77-3.1.93-1.2 1.63-2.28 2.11-3.24.48-.97.72-1.71.72-2.23 0-.47-.18-.7-.55-.7-1.06 0-2.48 1.24-4.28 3.74l-.77 1.11a13.18 13.18 0 0 0-1.8 3.59c-.09.33-.13.63-.13.9 0 .22.04.38.13.5.1.14.27.2.5.2zm8.74-38.8c1.66-2.58 2.49-4.38 2.49-5.39 0-.29-.12-.43-.35-.43-.31 0-.93.66-1.86 1.96a23.62 23.62 0 0 0-2.37 4.13l-1.98 4.31a19.93 19.93 0 0 0 4.07-4.58zm2.68-6.79c.8 0 1.2.48 1.2 1.44 0 .75-.34 1.79-1.05 3.14a19.43 19.43 0 0 1-2.36 3.53 21.29 21.29 0 0 1-5.24 4.77c-1.22 2.74-2.1 4.83-2.66 6.26a9.21 9.21 0 0 0-.67 2.2c0 .39.17.58.54.58h.13a4.64 4.64 0 0 0 2-.89 5.89 5.89 0 0 0 1.52-1.28c.38.05.58.2.58.46a6.8 6.8 0 0 1-4.1 2.39l-.44.02c-.57 0-1.03-.11-1.36-.32-.46-.29-.7-.79-.7-1.5 0-.55.24-1.49.7-2.82.35-.99.83-2.2 1.44-3.62l.36-.87a68.43 68.43 0 0 1 3.17-6.5 25.23 25.23 0 0 1 3.37-4.74l.1-.1c1.35-1.43 2.51-2.15 3.47-2.15zm-10-5.85c.4-.37.94-.63 1.58-.78.55-.13.82-.05.82.23 0 .08-.04.2-.12.35l-2.39 4.22-1.8 3.16-3.22 5.62c-.98 1.68-1.97 3.45-2.95 5.31 1.5.05 2.54.08 3.1.08.63 0 1.5-.05 2.64-.16.34.15.38.39.12.73-.8.37-2.96.55-6.48.55a32.55 32.55 0 0 0-.66 1.25l.3.17c1.5.94 2.26 2.19 2.26 3.74 0 1.24-.43 2.23-1.3 2.97-.3.27-.63.48-.97.65a4.1 4.1 0 0 1-1.92.46 3.1 3.1 0 0 1-2.34-1.01 3.63 3.63 0 0 1-.95-2.6c0-.91.59-2.46 1.78-4.66-1.65-.49-3.71-.8-6.17-.93-.44.36-.89.71-1.33 1.04-7.26 5.52-14.26 8.27-21.01 8.27-3.26 0-5.99-.68-8.19-2.05-2.5-1.55-3.76-3.73-3.76-6.52 0-3.26 1.78-6.01 5.35-8.26a20.24 20.24 0 0 1 11.02-3.11c4.3 0 7.68.86 10.16 2.56.08.08.12.16.12.24 0 .44-.23.59-.7.46-1.83-1.47-4.59-2.21-8.26-2.21-3.88 0-7.46 1.13-10.75 3.38-3.46 2.35-5.2 5.08-5.2 8.18 0 1.97 1 3.57 3 4.81a12.77 12.77 0 0 0 6.78 1.71c7.09 0 14.2-2.85 21.34-8.54l-3.73-.07-16.14-.08h-1.28c-.25-.05-.38-.18-.38-.39 0-.23.35-.55 1.06-.95a4 4 0 0 1 1.91-.6c.39 0 2.85.08 7.38.23 5.08.18 8.58.3 10.52.35h2.35a31.5 31.5 0 0 0 1.77-1.54l7.57-7.41 7.16-7 1.8-1.76zm-7.5 12.1l5.6-8.62.69-1.08-.31-.04-.39.41c-.69.73-2.25 2.35-4.7 4.87a573.5 573.5 0 0 1-7.1 7.25c-1 .98-2.07 1.95-3.21 2.91l5.66.23A269.28 269.28 0 0 1 84 63.07zm8.02 19.09c0-.28-.12-.42-.35-.42a.47.47 0 0 0-.28.11c-.34.23-.87.85-1.59 1.85l-.2.3a23.33 23.33 0 0 0-2.16 3.83l-1.98 4.3a19.56 19.56 0 0 0 4.07-4.57l.06-.1c.8-1.25 1.4-2.32 1.8-3.19.42-.9.63-1.6.63-2.11zm-.63-1.24c.3-.1.56-.15.82-.15.8 0 1.2.48 1.2 1.43 0 .75-.35 1.8-1.05 3.14a19.17 19.17 0 0 1-2.77 4.02 22.41 22.41 0 0 1-4.83 4.29c-1 2.24-1.77 4.05-2.33 5.42-.67 1.66-1 2.68-1 3.03 0 .39.18.58.54.58.14 0 .3-.02.46-.06a5.32 5.32 0 0 0 1.67-.83 5.84 5.84 0 0 0 1.51-1.28c.4.05.59.21.59.47a6.95 6.95 0 0 1-3.77 2.33c-.26.05-.52.07-.77.07-1.37 0-2.06-.6-2.06-1.82 0-.96.71-3.1 2.14-6.44a64.69 64.69 0 0 1 3.53-7.37 25.09 25.09 0 0 1 3.37-4.73c.33-.36.64-.67.95-.94a5.84 5.84 0 0 1 1.8-1.16zm-8.4-6.16c0-.57-.18-1.09-.56-1.57-.2-.26-.45-.5-.75-.73-1.47 2.89-2.21 4.63-2.21 5.25 0 .74.32 1.11.97 1.11.59 0 1.17-.42 1.72-1.27.1-.15.2-.3.27-.46.38-.72.57-1.49.57-2.33zM72.43 98.54c.93-1.2 1.64-2.28 2.11-3.24.48-.97.72-1.71.72-2.23 0-.47-.18-.7-.54-.7-.84 0-1.91.78-3.22 2.36-.34.41-.7.87-1.07 1.38-1.8 2.51-2.7 4.38-2.7 5.6 0 .47.21.7.63.7.56 0 1.61-.91 3.14-2.73.3-.34.6-.73.93-1.14zm3.45-7.18c1.17 0 2 .07 2.53.23.1.05.15.12.15.19 0 .09-.08.24-.23.48-.05.07-.74 1.64-2.06 4.68-1.16 2.69-1.74 4.32-1.74 4.89 0 .39.15.58.46.58.6 0 1.58-.82 2.95-2.48.1-.03.21.01.33.12.12.1.16.22.14.35-1.4 1.99-2.85 2.98-4.35 2.98-1.21 0-1.82-.6-1.82-1.82 0-.41.2-1.18.62-2.29-.48.61-.93 1.16-1.36 1.63-1.5 1.66-2.74 2.48-3.72 2.48-1.32 0-1.98-.82-1.98-2.45 0-2.3 1.12-4.48 3.37-6.57.77-.71 1.54-1.29 2.33-1.75a8.67 8.67 0 0 1 4.38-1.25zm-29.35 15.12l-.13.06a9.9 9.9 0 0 1-5.79.74 4.95 4.95 0 0 1-1.44-.54 2.77 2.77 0 0 1-1.48-2.33c-.03-.41.06-.78.28-1.08.2-.31.54-.47.98-.47.42 0 .78.13 1.1.39.31.26.48.6.51 1.01.03.35-.01.6-.13.76a.83.83 0 0 0-.14.54c.03.39.23.73.6 1.01.38.29 1 .43 1.86.43a6.98 6.98 0 0 0 3.78-1.06c.62-.36 1.21-.8 1.76-1.31a14.5 14.5 0 0 0 2.11-2.45c.64-.92 1.22-1.87 1.74-2.84.52-.98 1-1.94 1.43-2.9l1.23-2.66a32.44 32.44 0 0 1 3.49-5.73c.7-.93 1.47-1.81 2.28-2.62.82-.81 1.65-1.5 2.5-2.07a12.34 12.34 0 0 0-3.23-.99 18.5 18.5 0 0 0-3.03-.26c-.86 0-1.65.02-2.38.07-.72.05-1.43.16-2.13.33a5.78 5.78 0 0 1 1.31 2.13 9.2 9.2 0 0 1-.15 6.39 12.61 12.61 0 0 1-2.17 3.65A11.3 11.3 0 0 1 48 97.34a8.19 8.19 0 0 1-3.95 1.02c-.55 0-1.07-.09-1.57-.26a3.95 3.95 0 0 1-2.33-2.01 4.68 4.68 0 0 1-.46-1.8c-.07-.93.06-1.85.4-2.76.32-.92.78-1.78 1.37-2.61.6-.82 1.3-1.61 2.09-2.34a18.69 18.69 0 0 1 5.24-3.44c.9-.39 1.76-.67 2.56-.85a6.6 6.6 0 0 0-2.14-.92 9.4 9.4 0 0 0-2.27-.3l-.42.01a9.44 9.44 0 0 0-3.58.86c-1.26.58-2.39 1.4-3.37 2.46-.62.66-1.11 1.31-1.48 1.95a18.33 18.33 0 0 0-1.35 2.85c-.1.29-.19.44-.26.44-.05 0-.1-.02-.12-.07a.33.33 0 0 1-.05-.11c0-.15.07-.48.23-.98.16-.51.42-1.08.78-1.74.36-.65.82-1.33 1.37-2.05a10.76 10.76 0 0 1 4.77-3.47 10 10 0 0 1 3.52-.59c.94 0 1.87.16 2.79.48a7.4 7.4 0 0 1 2.12 1.07c.68-.17 1.45-.3 2.32-.39.87-.08 1.72-.13 2.56-.13 1.3 0 2.56.12 3.75.36 1.2.23 2.22.54 3.06.94.5-.3.93-.59 1.3-.87.38-.28.67-.43.86-.43.1 0 .15.07.16.19.01.12-.17.29-.55.5-.38.21-.8.48-1.27.83 1.2.64 2.2 1.49 3 2.57a6.73 6.73 0 0 1 1.36 3.63c.07.94-.1 1.81-.51 2.63a7 7 0 0 1-1.64 2.12 7.84 7.84 0 0 1-4.94 1.94c-.35 0-.7-.07-1.07-.19-.36-.12-.7-.26-.99-.4a4.9 4.9 0 0 1-.73-.45c-.2-.14-.3-.26-.3-.33 0-.12.06-.18.2-.18.03 0 .12.05.26.15l.52.33c.2.12.44.23.7.33.27.1.57.15.89.15.9 0 1.72-.24 2.44-.71a6.2 6.2 0 0 0 1.8-1.77 8.17 8.17 0 0 0 1.29-4.95 5.27 5.27 0 0 0-2.8-4.43 9.14 9.14 0 0 0-2.07 2.13c-.62.87-1.23 1.87-1.81 2.99a106.2 106.2 0 0 0-1.8 3.65l-2 4.12a26.03 26.03 0 0 1-2.53 4.15 20.9 20.9 0 0 1-3.22 3.48 16.4 16.4 0 0 1-3.61 2.34zm-6.4-12.33a4.05 4.05 0 0 0 1.06 2.67 3.2 3.2 0 0 0 2.38.95 6.21 6.21 0 0 0 3.54-1.13c1.15-.75 2.17-1.7 3.06-2.84.9-1.15 1.6-2.41 2.11-3.79a9.4 9.4 0 0 0 .35-5.87 3.1 3.1 0 0 0-.84-1.52c-1.48.3-2.94.85-4.37 1.67a18.3 18.3 0 0 0-3.8 2.84 14.06 14.06 0 0 0-2.63 3.47 6.54 6.54 0 0 0-.86 3.55zm11.85 24.13h-1.51v-.18c.16-.06.32-.11.49-.14v-3.54a1.68 1.68 0 0 1-.5-.15v-.17h1.52v.17a.85.85 0 0 1-.22.09.95.95 0 0 1-.23.06v1.56h1.87v-1.56a8.31 8.31 0 0 1-.23-.06 7.63 7.63 0 0 1-.22-.09v-.17h1.51v.17a1.5 1.5 0 0 1-.23.1l-.26.05v3.54a13.48 13.48 0 0 1 .5.14v.18h-1.52v-.18c.15-.06.3-.11.45-.14v-1.67h-1.87v1.67a18.76 18.76 0 0 1 .45.14zm2.97-2.09c0-.31.05-.6.13-.86.09-.27.21-.5.37-.69a1.73 1.73 0 0 1 1.4-.61 1.73 1.73 0 0 1 1.4.61c.15.19.27.42.36.69.08.26.13.55.13.86 0 .31-.05.6-.13.86-.09.26-.21.49-.37.69a1.73 1.73 0 0 1-1.4.61 1.73 1.73 0 0 1-1.4-.61c-.15-.2-.27-.43-.36-.69a2.77 2.77 0 0 1-.13-.86zm.64 0c0 .25.03.49.08.72.06.22.14.42.24.58.11.17.25.3.4.4.17.1.37.15.59.15.2 0 .38-.05.53-.15.15-.1.27-.23.37-.4.1-.16.17-.36.22-.58a3.38 3.38 0 0 0 0-1.44 1.82 1.82 0 0 0-.24-.59c-.1-.17-.24-.3-.4-.4a1.18 1.18 0 0 0-.58-.14c-.22 0-.4.05-.56.14-.15.1-.28.23-.37.4-.1.17-.17.36-.21.59-.05.22-.07.46-.07.72zm6.15 2.09h-1.68v-.18a2.45 2.45 0 0 1 .55-.14v-3.55h-.9l-.33.85h-.14a3.45 3.45 0 0 1-.05-.58 10.72 10.72 0 0 1-.02-.58h3.46v.27l-.02.31-.02.31c0 .1-.01.19-.03.27h-.15l-.32-.85h-.9v3.55a10.2 10.2 0 0 1 .55.14zm4-4.18a12.84 12.84 0 0 1-.06.97h-.16l-.24-.66h-1.3v1.58h.97l.23-.44h.15c.03.39.03.8 0 1.2h-.15l-.23-.45h-.97v1.67h1.37l.3-.72h.14a5.9 5.9 0 0 1 .07 1.03H62.9v-.18c.14-.06.3-.11.49-.14v-3.54a16.46 16.46 0 0 1-.49-.15v-.17zm.65 0H68v.17l-.28.1-.29.05v3.55h1.37l.36-.96h.15a6.1 6.1 0 0 1 .06 1.27h-3v-.18l.26-.09.23-.05v-3.54c-.1-.01-.18-.03-.26-.06a3.36 3.36 0 0 1-.23-.09zm8.7 4.18a6.66 6.66 0 0 0-.3-.21 3 3 0 0 1-.43-.34 1.51 1.51 0 0 1-.88.56c-.14.04-.29.06-.45.06a1.5 1.5 0 0 1-1-.35 1.18 1.18 0 0 1-.29-.37c-.06-.14-.1-.29-.1-.44 0-.19.04-.37.11-.53a1.97 1.97 0 0 1 .57-.71l.27-.2a1.65 1.65 0 0 1-.3-.44 1.18 1.18 0 0 1-.11-.48c0-.1.02-.2.05-.3.04-.1.1-.18.18-.25a.73.73 0 0 1 .29-.18.94.94 0 0 1 .38-.07c.27 0 .48.06.64.17.16.11.24.28.24.49 0 .13-.02.25-.07.37-.05.11-.1.22-.18.31-.07.1-.15.18-.24.26l-.26.22c.16.21.35.42.56.63l.68.64a2.5 2.5 0 0 0 .25-.58 3.34 3.34 0 0 0 .13-.95 1 1 0 0 1-.35-.14v-.16h1.2v.16c-.1.07-.23.11-.38.14a4.9 4.9 0 0 1-.61 1.74l.44.34c.15.11.3.21.49.31l.33.15v.15zm-.93-.74l-.39-.38a8.1 8.1 0 0 1-.77-.88l-.26-.34c-.18.16-.3.33-.38.48-.08.16-.12.34-.12.56 0 .15.03.29.08.42s.11.24.2.33c.1.1.2.17.32.23a1.07 1.07 0 0 0 .9-.04c.16-.09.3-.21.42-.38zm-1.54-2.73c0 .07.02.14.05.22.02.08.06.16.1.24a2.07 2.07 0 0 0 .31.43c.15-.11.26-.25.35-.41a.9.9 0 0 0 .1-.55.54.54 0 0 0-.11-.32c-.08-.09-.19-.13-.34-.13a.46.46 0 0 0-.22.05.3.3 0 0 0-.14.11.5.5 0 0 0-.08.17.81.81 0 0 0-.02.19zm6.19 3.15a12.11 12.11 0 0 1 .5.14v.18h-1.56v-.18l.25-.09.24-.05v-3.54l-.28-.07a1.2 1.2 0 0 1-.21-.08v-.17h.52l.53-.02.55-.03c.2 0 .38.02.55.07a1.08 1.08 0 0 1 .73.57c.07.15.1.32.1.53 0 .29-.08.53-.23.72-.15.19-.36.33-.62.42a23.3 23.3 0 0 0 1.12 1.59l.32.18v.15h-.72l-.23-.17a8.58 8.58 0 0 1-.79-1.23c-.07-.14-.14-.29-.2-.45h-.57zm.4-3.6l-.23.01a.9.9 0 0 0-.17.02v1.77h.43c.27 0 .5-.08.65-.26.16-.17.24-.4.24-.68 0-.3-.08-.51-.25-.65-.17-.14-.4-.21-.67-.21zm5.17-.26a15.4 15.4 0 0 1-.07.97h-.16l-.24-.66h-1.3v1.58h.97l.23-.44h.15c.03.39.03.8 0 1.2h-.15l-.23-.45h-.97v1.67h1.37l.3-.72h.14a5.53 5.53 0 0 1 .07 1.03h-2.94v-.18c.14-.06.3-.11.49-.14v-3.54a1.15 1.15 0 0 1-.25-.06l-.24-.09v-.17zm1.36 3.76c.05.05.11.09.19.13.07.03.18.05.34.05.12 0 .24-.02.35-.05.12-.04.21-.09.3-.15a.7.7 0 0 0 .26-.56.58.58 0 0 0-.15-.4c-.1-.11-.22-.2-.36-.29a8 8 0 0 0-.47-.24 2.64 2.64 0 0 1-.48-.28 1.6 1.6 0 0 1-.36-.4c-.1-.15-.15-.34-.15-.57 0-.17.03-.32.09-.45s.14-.24.25-.34c.11-.09.24-.16.4-.21.14-.05.31-.07.5-.07a3.4 3.4 0 0 1 1.14.2l-.01.23-.04.28-.05.28-.04.23h-.16l-.24-.82a1.4 1.4 0 0 0-.27-.07 3.84 3.84 0 0 0-.35-.02c-.2 0-.37.06-.5.17a.6.6 0 0 0-.18.47c0 .17.05.3.14.41.1.12.22.22.37.3.15.09.31.18.48.26.17.08.33.17.48.28.15.11.27.23.37.38.1.15.14.33.14.55 0 .18-.03.34-.1.49a1.08 1.08 0 0 1-.73.61 2.33 2.33 0 0 1-1.28 0c-.2-.06-.34-.13-.43-.19a3.81 3.81 0 0 1 .06-.54 15.5 15.5 0 0 1 .1-.54h.15zm4.99.42h-1.68v-.18a2.52 2.52 0 0 1 .56-.14v-3.55h-.92l-.31.85h-.15a3.97 3.97 0 0 1-.05-.58 16.07 16.07 0 0 1-.02-.58h3.46a6.82 6.82 0 0 1-.04.89l-.02.27h-.16l-.31-.85h-.91v3.55a10.3 10.3 0 0 1 .55.14zm1.85 0h-1.33v-.18c.15-.06.29-.11.43-.14l1.51-3.93h.18l1.5 3.93.24.05c.08.02.15.05.22.09v.18h-1.54v-.18l.24-.08.25-.06-.4-1.09h-1.42l-.4 1.09c.17.02.34.07.52.14zm0-1.72h1.2l-.47-1.27-.12-.51h-.01l-.15.53zm2.8-2.46h1.52v.17l-.22.09-.23.06v2.43c0 .21.02.39.07.53a.73.73 0 0 0 .52.52c.13.04.28.06.44.06.32 0 .56-.09.73-.26.18-.17.27-.46.27-.85v-2.38l-.26-.09-.21-.11v-.17h1.27v.17a1.2 1.2 0 0 1-.23.12l-.24.09v2.39c0 .25-.03.47-.1.65-.07.19-.16.34-.28.46-.12.12-.27.21-.44.26-.18.06-.37.09-.58.09-.5 0-.88-.11-1.14-.34-.26-.22-.4-.57-.4-1.03v-2.54a1.53 1.53 0 0 1-.48-.15zm5.2 3.86a13.48 13.48 0 0 1 .5.14v.18H99.5v-.18l.25-.09.24-.05v-3.54a1.7 1.7 0 0 1-.27-.07 1.17 1.17 0 0 1-.22-.08v-.17h.53l.52-.02.55-.03c.2 0 .38.02.55.07a1.08 1.08 0 0 1 .73.57c.07.15.1.32.1.53 0 .29-.07.53-.23.72-.15.19-.36.33-.62.42a23.3 23.3 0 0 0 1.12 1.59l.32.18v.15h-.72l-.23-.17a9.33 9.33 0 0 1-.56-.82 5.36 5.36 0 0 1-.44-.86h-.56zm.4-3.6l-.24.01a.87.87 0 0 0-.17.02v1.77h.43c.28 0 .5-.08.66-.26.16-.17.24-.4.24-.68 0-.3-.09-.51-.26-.65s-.4-.21-.66-.21zm3.48 3.92h-1.32v-.18c.14-.06.28-.11.43-.14l1.5-3.93h.18l1.5 3.93.24.05c.08.02.15.05.22.09v.18h-1.54v-.18l.25-.08.24-.06-.4-1.09h-1.42l-.4 1.09c.17.02.35.07.52.14zm0-1.72h1.2l-.47-1.27-.11-.51h-.02l-.14.53zm5.66-2.46h1.29v.17c-.17.11-.34.19-.5.24v3.84h-.33l-2.17-3.29-.23-.46h-.02l.05.46v2.83c.17.05.32.12.46.21v.18h-1.29v-.18l.23-.11.26-.1v-3.41l-.23-.11-.22-.1v-.17h1l1.89 2.83.27.52h.03l-.03-.52v-2.42a2.04 2.04 0 0 1-.46-.24zm4.14 4.18h-1.67v-.18a2.45 2.45 0 0 1 .55-.14v-3.55h-.91l-.32.85h-.15a4.01 4.01 0 0 1-.05-.58 16.07 16.07 0 0 1-.02-.58h3.47a6.82 6.82 0 0 1-.04.89c0 .1-.02.19-.03.27h-.15l-.32-.85h-.9v3.55a10.2 10.2 0 0 1 .54.14z"/></svg>