<svg xmlns="http://www.w3.org/2000/svg" width="56" height="27" viewBox="0 0 56 27"><path fill="#af936c" d="M10.19 11.03c.95 1.31 2.12 3.01 4.2 2.81.96 1.51 3.1 2.99 5.13 2.68 1.45 1.74 5.87 3.07 7.94 1.4 2.23 2.05 6.35.15 7.94-1.28 2.25.06 3.97-1.39 5.37-2.57 2.05-.33 2.99-1.76 4.08-3.04 1.56-.3 2.65-1.77 3.04-3.02-.66-.47-2.73.17-3.39.8-1.46-1.1-3.73-.14-4.32 1.06-.81-1.73-4.42-1.62-5.02.23-.39-.42-.72-.86-1.25-1.1-3-1.33-5.4.73-6.45 2.85-1.02-1.41-2.55-3.41-5.25-3.05-1.34.17-1.93 1.08-2.57 1.65-.38-2.27-4.2-2.14-5.02-.35-.72-1.13-2.46-2.59-4.08-1.4-.74-.65-2.98-.73-3.21-.43-.12.15.4 2.02 2.86 2.76zM2.95 1.22c.13.63.15 1.16-.12 1.64 2.66 2.21 6.23 2.8 10.4 2.22 3.18-.45 6.21-2.05 9.1-1.75 1.9.19 3.32 2.04 5.02 2.1 2.43.08 3.68-2.47 6.65-2.1 1.44.17 2.86.95 4.43 1.28 4.8.99 9.82 1.01 13.66-1.4-.26-1.05-.36-2.03.47-2.34 2.2-.82 3.89 6.06.81 6.54-.28-.46.04-1.51-.23-1.98-1.23.02-1.9 1.84-2.3 2.7a37.73 37.73 0 0 1-12.87 15.28c-1.73 1.21-3.93 2.9-6.2 3.15-1.8.21-3.02-.47-4.66-.46-1.72.01-3.2.69-4.78.35-2.28-.5-5.2-2.26-6.9-3.62-1.98-1.6-3.54-3.62-5.13-5.37C7.68 14.57 5.88 11.57 4 8c-.5-.96-.9-2.48-2.22-2.81-.64.39.22 1.55-.23 2.11-2.85-.74-1.4-8 1.4-6.08z"/></svg>