<svg xmlns="http://www.w3.org/2000/svg" width="266" height="55" viewBox="0 0 266 55"><path fill="#060403" d="M79.74 1.26c.62-.54 1.4-.92 2.37-1.15.8-.2 1.2-.08 1.2.34 0 .12-.05.3-.17.52a1110.75 1110.75 0 0 1-6.23 10.94l-4.78 8.32c-1.47 2.5-2.93 5.12-4.39 7.88 2.23.07 3.77.11 4.62.11.92 0 2.23-.07 3.92-.23.5.22.56.58.17 1.09-1.19.54-4.4.81-9.63.81a43.51 43.51 0 0 0-.98 1.84l.43.25c2.25 1.4 3.37 3.25 3.37 5.56 0 1.84-.64 3.3-1.93 4.4-.46.39-.94.7-1.44.96-.9.45-1.85.67-2.86.67-1.38 0-2.54-.5-3.48-1.5a5.37 5.37 0 0 1-1.42-3.84c0-1.34.89-3.64 2.66-6.9a40.46 40.46 0 0 0-9.18-1.38c-.66.53-1.32 1.04-1.98 1.54-10.79 8.17-21.2 12.26-31.24 12.26-4.85 0-8.9-1.02-12.18-3.05C2.87 38.4 1 35.18 1 31.04c0-4.83 2.66-8.91 7.97-12.25a30.19 30.19 0 0 1 16.38-4.6c6.39 0 11.42 1.27 15.12 3.8.11.11.17.23.17.34 0 .66-.35.89-1.04.7-2.73-2.19-6.83-3.28-12.29-3.28-5.76 0-11.09 1.67-15.97 5-5.16 3.49-7.73 7.53-7.73 12.13 0 2.91 1.48 5.29 4.44 7.13 2.77 1.69 6.13 2.53 10.1 2.53 10.53 0 21.1-4.22 31.72-12.65l-5.54-.12-24-.1h-1.9c-.38-.09-.58-.28-.58-.59 0-.34.53-.8 1.58-1.4 1.06-.6 2.01-.9 2.85-.9.57 0 4.24.12 10.98.35 7.54.27 12.75.44 15.63.52h3.5a43.8 43.8 0 0 0 2.63-2.3L66.27 14.4 76.91 4.02 79.6 1.4zM68.61 19.2l8.3-12.78 1.04-1.6-.46-.05-.58.6a1793.8 1793.8 0 0 1-17.53 17.97c-1.5 1.45-3.1 2.89-4.8 4.3l8.43.35c.77-1.25 1.86-2.97 3.26-5.16l2.34-3.63zm51.06 19.14c.15-.04.31.02.49.17.17.16.24.33.2.52a13.1 13.1 0 0 1-3.16 3.3 5.76 5.76 0 0 1-3.3 1.13c-1.81 0-2.71-.9-2.71-2.7 0-.62.3-1.75.92-3.4-.7.91-1.38 1.72-2.02 2.42-2.23 2.45-4.07 3.68-5.54 3.68-1.29 0-2.16-.53-2.6-1.59a5.36 5.36 0 0 1-.34-2.05c0-.89.11-1.76.34-2.63.65-2.45 2.2-4.82 4.68-7.1a20.13 20.13 0 0 1 3.46-2.6 12.82 12.82 0 0 1 7.11-1.85c1.43.03 2.48.14 3.16.34.15.08.23.17.23.29 0 .12-.12.35-.35.7-.07.11-1.09 2.42-3.04 6.9l-.01.05c-1.73 3.97-2.6 6.39-2.6 7.23 0 .58.23.87.7.87s1.1-.35 1.91-1.06c.7-.6 1.52-1.48 2.47-2.62zm-8.2-2.06a29.26 29.26 0 0 0 3.15-4.8c.71-1.44 1.07-2.54 1.07-3.3 0-.7-.27-1.05-.81-1.05-1.25 0-2.85 1.17-4.79 3.5-.5.6-1.03 1.3-1.58 2.06-2.68 3.7-4.02 6.48-4.02 8.29 0 .7.31 1.04.93 1.04.84 0 2.4-1.35 4.67-4.04.44-.52.9-1.08 1.39-1.7zm22.87-14.52c-.48.59-1.07.89-1.76.89-1.3 0-1.96-.75-1.96-2.25a3 3 0 0 1 .72-1.92c.48-.6 1.07-.9 1.76-.9 1.3 0 1.96.75 1.96 2.25a3 3 0 0 1-.72 1.93zm-1.7 4.74a702.85 702.85 0 0 0-3.75 7.59c-2 4.1-3 6.5-3 7.18 0 .5.2.75.63.75.58 0 1.44-.48 2.6-1.43.96-.77 1.69-1.48 2.19-2.13.11-.04.27 0 .46.14.2.13.27.3.23.49-.54.77-1.29 1.57-2.25 2.41-1.54 1.3-2.94 1.96-4.2 1.96-1.93 0-2.9-.92-2.9-2.76 0-.77.91-3.14 2.72-7.13.73-1.5 1.57-3.32 2.54-5.46.15-.42.02-.63-.4-.63-.85 0-1.28-.3-1.28-.87 0-.57.33-.84.98-.8 1.66.11 3.23.04 4.73-.23.27-.04.49.03.64.2.15.17.17.41.06.72zm-30.58.86c0 .19-.03.34-.1.45-.13.2-.36.3-.7.3h-3.38l-5.4 11.44c-.3.65-.45 1.2-.45 1.67 0 .76.28 1.15.86 1.15 1.04 0 2.5-1.08 4.39-3.22.42-.16.73-.06.92.28-1.85 2.65-3.85 3.97-6 3.97-1.28 0-2.2-.3-2.74-.91-.4-.45-.6-1.07-.6-1.85 0-.69.17-1.42.51-2.18l.09-.18 4.9-10.16-2.44-.01c-.5 0-.76-.25-.76-.75s.25-.75.76-.75h3.16l3.64-7.76c.34-.73 1.02-1.09 2.02-1.09.55 0 .95.06 1.21.2.23.11.34.28.34.5v.41l-.34.7-3.36 7.04h2.67c.33 0 .57.1.7.3.07.12.1.27.1.45zM90.64 20c2.46-3.83 3.7-6.5 3.7-7.99 0-.42-.18-.63-.53-.63-.46 0-1.38.97-2.76 2.9a35.8 35.8 0 0 0-3.52 6.12l-2.95 6.39A29.35 29.35 0 0 0 90.64 20zm3.98-10.06c1.2 0 1.8.71 1.8 2.13 0 1.11-.53 2.66-1.57 4.66a29.02 29.02 0 0 1-3.52 5.23c-.6.74-1.23 1.45-1.87 2.13a31.97 31.97 0 0 1-5.91 4.94 211.75 211.75 0 0 0-3.95 9.27c-.68 1.74-1.01 2.83-1.01 3.26 0 .58.27.86.8.86h.2c.78-.07 1.78-.5 2.98-1.32a8.67 8.67 0 0 0 2.25-1.9c.57.08.86.31.86.7-.54.69-1.3 1.37-2.3 2.06a8.4 8.4 0 0 1-4.45 1.5c-.85 0-1.52-.16-2.02-.47-.69-.44-1.03-1.18-1.03-2.23 0-.82.34-2.2 1.03-4.17a91.54 91.54 0 0 1 2.14-5.38l.54-1.28c1.68-3.87 3.25-7.08 4.7-9.64a37.3 37.3 0 0 1 5.03-7.01l.14-.16c2.01-2.12 3.73-3.18 5.16-3.18zM67.11 36.52c0-.84-.28-1.62-.84-2.33a6 6 0 0 0-1.13-1.08c-2.19 4.28-3.28 6.87-3.28 7.78 0 1.1.48 1.65 1.44 1.65.88 0 1.74-.62 2.57-1.88a7.32 7.32 0 0 0 1.24-4.14zm152.2-14.35l-.6.72a32.94 32.94 0 0 1-7.18 6.35c-1.49 3.33-2.64 6-3.46 8.03-1 2.47-1.5 3.97-1.5 4.5 0 .58.27.86.8.86.22 0 .45-.03.7-.09a8.2 8.2 0 0 0 2.48-1.23 8.7 8.7 0 0 0 2.25-1.9c.58.08.86.31.86.7-.53.68-1.3 1.37-2.3 2.06a8.7 8.7 0 0 1-3.29 1.4c-.39.06-.77.1-1.15.1-2.04 0-3.06-.9-3.06-2.7 0-1.42 1.06-4.6 3.17-9.55l1.04-2.4c1.5-3.37 2.9-6.21 4.21-8.52a37.2 37.2 0 0 1 5.02-7.01c.49-.53.96-.99 1.41-1.39a8.66 8.66 0 0 1 2.68-1.72 3.6 3.6 0 0 1 1.22-.23c1.19 0 1.78.7 1.78 2.13 0 1.1-.51 2.66-1.55 4.65a28.02 28.02 0 0 1-3.52 5.24zm2.08-6.83c.62-1.33.93-2.37.93-3.12 0-.42-.18-.63-.52-.63-.1 0-.24.05-.4.16-.52.35-1.31 1.26-2.37 2.74l-.32.45a35.25 35.25 0 0 0-3.2 5.67L212.57 27c2.42-1.99 4.44-4.25 6.06-6.78l.08-.14a41.44 41.44 0 0 0 2.68-4.73zM260 40.96a11.97 11.97 0 0 0 2.65-2.53c.5-.26.8-.09.92.52a12.9 12.9 0 0 1-4.55 3.82 7.95 7.95 0 0 1-3.47.84c-1.71 0-2.93-.49-3.65-1.46a4.79 4.79 0 0 1-.79-2.91c0-1.33.27-2.67.8-4.02a17.4 17.4 0 0 1 3.07-4.92 16.1 16.1 0 0 1 4.04-3.56 6.48 6.48 0 0 1 3.23-.95c2.03 0 3.05.86 3.05 2.58 0 2.5-1.44 4.74-4.32 6.73-.67.45-1.33.83-1.96 1.17a12.23 12.23 0 0 1-4.39 1.42 8.84 8.84 0 0 0-.7 2.82c0 1.34.72 2 2.14 2 .9 0 1.87-.3 2.95-.91.31-.19.64-.4.98-.64zm.31-7.53c1.75-1.91 2.63-3.71 2.63-5.4 0-.73-.27-1.1-.8-1.1-.75 0-1.8.92-3.12 2.74l-.35.49c-1.39 1.91-2.58 4-3.58 6.26 1.3-.05 2.61-.63 3.93-1.73.43-.36.86-.78 1.3-1.26zm-15.77 7.02c1.19-1 2.02-1.88 2.48-2.65.19-.07.4-.02.6.15.21.17.32.39.32.66a16.82 16.82 0 0 1-4.18 3.96 6.37 6.37 0 0 1-3.38 1.1c-2.5 0-3.75-1.6-3.75-4.77 0-2.76 1.22-5.64 3.67-8.63a15.62 15.62 0 0 1 3.46-3.26 6.78 6.78 0 0 1 3.72-1.22c1.92 0 2.88 1.03 2.88 3.1 0 .96-.28 1.7-.83 2.22-.56.51-1.15.77-1.76.77-1.16 0-1.73-.55-1.73-1.66 0-.54.3-1.05.89-1.53.6-.48.9-.83.9-1.06 0-.39-.2-.58-.58-.58-1 0-2.16 1.13-3.49 3.4-.42.7-.85 1.53-1.3 2.47-1.73 3.68-2.6 6.38-2.6 8.1 0 .85.37 1.27 1.1 1.27.78 0 1.72-.4 2.8-1.22l.78-.62zm-10.84-1.9c.16-.04.32.02.5.17.17.16.23.33.2.52a13.2 13.2 0 0 1-3.13 3.29 5.79 5.79 0 0 1-3.34 1.14c-1.8 0-2.7-.9-2.7-2.7 0-.62.3-1.75.91-3.4a25.5 25.5 0 0 1-4.74 4.95 5.22 5.22 0 0 1-2.81 1.15c-1.96 0-2.94-1.22-2.94-3.64 0-2.67 1.02-5.23 3.07-7.7a20.85 20.85 0 0 1 2.68-2.68c3-2.54 6.08-3.8 9.24-3.8h.63c1.41.03 2.45.14 3.12.34.16.08.24.17.24.29 0 .12-.12.35-.35.7-.08.11-1.08 2.4-3.01 6.83l-.05.11c-1.73 3.98-2.6 6.4-2.6 7.24 0 .58.24.87.7.87.48 0 1.13-.36 1.95-1.09.69-.6 1.5-1.47 2.43-2.59zm-14.25 3.68c.45 0 1.1-.38 1.95-1.15a39.28 39.28 0 0 0 4.11-4.59 29.11 29.11 0 0 0 3.14-4.8c.72-1.44 1.07-2.54 1.07-3.3 0-.7-.27-1.05-.8-1.05-1.58 0-3.71 1.85-6.38 5.56-.4.57-.79 1.11-1.14 1.64-1.41 2.14-2.3 3.92-2.68 5.31-.13.5-.19.94-.19 1.34 0 .32.06.56.2.73.15.2.39.3.72.3zm-26.24-5.74a29.3 29.3 0 0 0 3.14-4.8c.71-1.44 1.07-2.54 1.07-3.3 0-.7-.27-1.05-.81-1.05-1.25 0-2.85 1.16-4.79 3.5-.5.6-1.03 1.3-1.58 2.06-2.68 3.7-4.01 6.47-4.01 8.29 0 .7.3 1.04.92 1.04.84 0 2.4-1.35 4.67-4.04.44-.52.9-1.08 1.39-1.7zm5.13-10.64c1.73 0 2.98.11 3.75.34.15.08.23.17.23.29 0 .12-.11.35-.34.7-.08.11-1.1 2.43-3.06 6.94-1.73 3.98-2.6 6.4-2.6 7.24 0 .58.23.87.7.87.88 0 2.34-1.23 4.38-3.68.15-.04.32.02.49.17.17.16.24.33.2.52-2.08 2.95-4.23 4.43-6.46 4.43-1.8 0-2.71-.9-2.71-2.7 0-.62.3-1.75.92-3.4-.7.91-1.38 1.72-2.02 2.42-2.23 2.45-4.07 3.68-5.54 3.68-1.96 0-2.94-1.22-2.94-3.64 0-3.4 1.68-6.64 5.02-9.73a20.1 20.1 0 0 1 3.46-2.6 12.82 12.82 0 0 1 6.52-1.85zm-43.65 22.4l-.02.01-.18.08c-1.96.9-4.01 1.34-6.13 1.34-.84 0-1.66-.08-2.47-.24a7.1 7.1 0 0 1-2.14-.8 4.63 4.63 0 0 1-1.52-1.4 4.05 4.05 0 0 1-.68-2.05c-.04-.62.1-1.15.4-1.6.32-.47.81-.7 1.47-.7.62 0 1.17.2 1.63.58.47.38.73.88.77 1.5.04.52-.03.9-.2 1.13-.16.24-.23.5-.21.8.04.58.34 1.08.9 1.5.57.42 1.49.63 2.77.63a10.38 10.38 0 0 0 5.61-1.57 14.9 14.9 0 0 0 2.62-1.94 21.68 21.68 0 0 0 3.14-3.64 44.6 44.6 0 0 0 2.58-4.21 72.1 72.1 0 0 0 2.14-4.3 295.5 295.5 0 0 1 1.83-3.94 48.96 48.96 0 0 1 5.18-8.48 37.08 37.08 0 0 1 3.4-3.89 25.06 25.06 0 0 1 3.7-3.06 18.37 18.37 0 0 0-4.8-1.48 28.77 28.77 0 0 0-4.5-.38c-1.28 0-2.46.03-3.53.1-1.08.08-2.14.24-3.18.5.9.95 1.56 2 1.95 3.15a13.54 13.54 0 0 1-.22 9.47 18.67 18.67 0 0 1-3.23 5.41c-1.39 1.63-3.01 2.94-4.88 3.94a12.06 12.06 0 0 1-5.88 1.5 7.2 7.2 0 0 1-2.33-.37 5.95 5.95 0 0 1-3.45-2.98 6.86 6.86 0 0 1-.7-2.66c-.1-1.39.1-2.76.6-4.1a15.7 15.7 0 0 1 2.05-3.86 23.4 23.4 0 0 1 3.1-3.48 27.6 27.6 0 0 1 7.78-5.1c1.35-.57 2.62-1 3.81-1.25a9.82 9.82 0 0 0-3.17-1.37 14.26 14.26 0 0 0-4-.42c-1.87.08-3.64.5-5.33 1.27a15.7 15.7 0 0 0-5.01 3.64c-.92.99-1.65 1.95-2.2 2.9a25.88 25.88 0 0 0-2.01 4.22c-.15.43-.28.65-.4.65-.07 0-.12-.03-.17-.1a.45.45 0 0 1-.06-.17c-.02-.22.1-.7.33-1.45.24-.75.63-1.6 1.16-2.57.54-.97 1.22-1.98 2.04-3.04a15.97 15.97 0 0 1 7.1-5.15 14.3 14.3 0 0 1 5.23-.87c1.4 0 2.77.24 4.14.71 1.37.47 2.43 1 3.16 1.59 1.01-.26 2.16-.45 3.45-.58 1.3-.13 2.56-.19 3.8-.19 1.94 0 3.8.17 5.59.52 1.78.35 3.3.81 4.54 1.4.74-.44 1.39-.87 1.94-1.29.56-.42.98-.63 1.28-.63.14 0 .22.1.24.27 0 .19-.27.43-.83.74-.56.31-1.2.72-1.89 1.24 1.79.94 3.28 2.21 4.48 3.8a9.97 9.97 0 0 1 2 5.39 7.28 7.28 0 0 1-.76 3.89c-.6 1.2-1.42 2.25-2.43 3.14a11.68 11.68 0 0 1-7.35 2.88c-.51 0-1.04-.1-1.58-.28-.55-.18-1.04-.38-1.47-.6-.44-.22-.8-.44-1.1-.66-.28-.22-.43-.38-.44-.49-.01-.18.09-.27.3-.27.04 0 .17.07.38.22l.78.49c.3.18.65.34 1.05.5.4.14.83.21 1.3.21 1.36 0 2.57-.35 3.64-1.04a9.25 9.25 0 0 0 2.66-2.63 12.06 12.06 0 0 0 1.92-7.33 7.89 7.89 0 0 0-4.15-6.57c-1.12.8-2.14 1.85-3.07 3.15a36.75 36.75 0 0 0-2.7 4.43c-.87 1.66-1.77 3.47-2.69 5.42-.92 1.95-1.9 3.99-2.96 6.1a39.15 39.15 0 0 1-3.76 6.16 30.86 30.86 0 0 1-4.8 5.14 24.78 24.78 0 0 1-5.36 3.47zm0-14.07c.29-.15.58-.32.86-.5a18.63 18.63 0 0 0 4.56-4.22 21.2 21.2 0 0 0 3.14-5.61c.76-2.04 1.08-4.01.94-5.91a17.3 17.3 0 0 0-.42-2.8 4.57 4.57 0 0 0-1.26-2.24 21.8 21.8 0 0 0-7.5 3.07 28.24 28.24 0 0 0-4.65 3.61 20.92 20.92 0 0 0-3.91 5.15 9.68 9.68 0 0 0-1.27 5.25 6.02 6.02 0 0 0 1.58 3.97c.92.93 2.1 1.4 3.53 1.4 1.5 0 2.96-.4 4.4-1.17zM172 54.88h-2.25v-.25c.24-.1.49-.16.73-.21v-5.25a2.35 2.35 0 0 1-.72-.22v-.25H172v.25c-.1.06-.2.1-.32.14l-.34.08v2.31h2.78v-2.3a4.49 4.49 0 0 1-.66-.23v-.25h2.24v.25c-.1.06-.22.1-.35.14l-.38.08v5.25a3.75 3.75 0 0 1 .73.21v.26h-2.24v-.26c.2-.1.43-.16.66-.21v-2.48h-2.78v2.48a3.3 3.3 0 0 1 .66.21zm4.43-3.09c0-.46.06-.88.2-1.28.12-.39.3-.73.54-1.01.24-.29.54-.51.88-.67.35-.16.75-.24 1.2-.24.44 0 .83.08 1.18.24.35.16.65.38.89.67.24.28.42.62.55 1.01.12.4.19.82.19 1.28 0 .46-.07.89-.2 1.28-.12.4-.3.73-.54 1.02-.24.28-.54.5-.89.67-.35.15-.74.23-1.19.23-.44 0-.84-.08-1.19-.23a2.5 2.5 0 0 1-.88-.67 3.03 3.03 0 0 1-.55-1.02c-.13-.4-.19-.82-.19-1.28zm.95 0c0 .38.04.74.12 1.07.08.33.2.62.36.87a1.65 1.65 0 0 0 1.47.8c.3 0 .56-.07.78-.21.23-.15.41-.34.56-.6.14-.24.25-.53.33-.86a4.84 4.84 0 0 0 0-2.13c-.09-.34-.2-.63-.36-.87a1.64 1.64 0 0 0-1.46-.8 1.52 1.52 0 0 0-1.4.8c-.13.24-.24.53-.3.87-.07.33-.1.69-.1 1.06zm9.14 3.1h-2.5v-.26a4.57 4.57 0 0 1 .83-.21v-5.26h-1.35l-.47 1.26h-.23a5.72 5.72 0 0 1-.07-.86 25.98 25.98 0 0 1-.03-.86h5.15a9.83 9.83 0 0 1-.03.85l-.02.46-.05.41h-.23l-.47-1.26h-1.34v5.26l.43.09c.13.03.26.07.38.12zm5.97-6.2a21.57 21.57 0 0 1-.1 1.44h-.23l-.37-.97h-1.93v2.34h1.45l.34-.65h.22c.04.58.04 1.18 0 1.78h-.22l-.34-.67h-1.45v2.47h2.04l.44-1.06h.22a8.18 8.18 0 0 1 .1 1.52h-4.38v-.26c.2-.1.45-.16.73-.21v-5.25a3.67 3.67 0 0 1-.73-.22v-.25zm.95 0h2.44v.26a4.88 4.88 0 0 1-.86.22v5.26h2.05l.52-1.43h.23a8.34 8.34 0 0 1 .1 1.45l-.01.44h-4.47v-.26a2.3 2.3 0 0 1 .73-.21v-5.25a3.15 3.15 0 0 1-.73-.22zm12.96 6.2l-.47-.3c-.19-.13-.4-.3-.62-.51a2.13 2.13 0 0 1-.75.62 2.58 2.58 0 0 1-1.24.3c-.31 0-.6-.05-.85-.15a2 2 0 0 1-.65-.38 1.7 1.7 0 0 1-.41-.55c-.1-.2-.15-.42-.15-.64 0-.3.06-.55.16-.78a2.64 2.64 0 0 1 .85-1.06l.4-.3a2.67 2.67 0 0 1-.44-.66 1.69 1.69 0 0 1-.18-.7c0-.15.03-.3.1-.44.05-.15.14-.27.25-.38.12-.11.26-.2.43-.27.17-.07.36-.1.57-.1.4 0 .7.08.95.25.24.17.36.41.36.73 0 .2-.04.38-.1.55a2.61 2.61 0 0 1-.62.85l-.4.33c.24.3.52.6.84.93l1.01.95a4.1 4.1 0 0 0 .53-1.54c.04-.25.05-.5.03-.73-.17-.04-.35-.1-.52-.21v-.23h1.8v.23c-.16.1-.35.17-.58.2a7.4 7.4 0 0 1-.91 2.58 14.39 14.39 0 0 0 1.38.98l.5.2v.23zM205 53.8a12.51 12.51 0 0 1-1.18-1.22 21.02 21.02 0 0 1-.93-1.16c-.26.25-.45.49-.57.72-.11.23-.17.5-.17.82 0 .22.04.43.11.62.08.2.18.36.31.5s.29.26.47.34c.19.07.39.11.6.11.27 0 .52-.06.75-.18.23-.12.44-.3.62-.55zm-2.28-4.06c0 .1.02.22.06.34.04.12.1.24.16.36a4.24 4.24 0 0 0 .46.64c.21-.18.39-.38.52-.61.13-.23.19-.5.16-.82a.8.8 0 0 0-.18-.48c-.1-.13-.28-.19-.5-.19a.71.71 0 0 0-.33.07.57.57 0 0 0-.2.17.63.63 0 0 0-.12.25l-.03.27zm9.2 4.68a10.84 10.84 0 0 1 .76.21v.26h-2.34v-.26a7.93 7.93 0 0 1 .73-.21v-5.25a3.41 3.41 0 0 1-.73-.22v-.25h.78c.24 0 .5-.02.78-.04l.83-.03c.28 0 .56.03.8.1.26.06.48.16.66.3.19.14.33.32.44.54.1.22.15.48.15.79 0 .43-.11.79-.34 1.07a1.9 1.9 0 0 1-.93.61 29.63 29.63 0 0 0 1.67 2.37l.48.26v.22h-1.08l-.34-.25a10.48 10.48 0 0 1-1.48-2.5h-.84zm.6-5.33a6.16 6.16 0 0 0-.6.04v2.63h.64c.41 0 .73-.13.97-.39s.36-.6.36-1.02c0-.43-.13-.75-.38-.96-.25-.2-.58-.3-.98-.3zm7.68-.4a21.57 21.57 0 0 1-.1 1.44h-.22l-.37-.97h-1.93v2.34h1.44l.35-.65h.22c.04.58.04 1.18 0 1.78h-.22l-.35-.67h-1.44v2.47h2.04l.43-1.06h.22a7.85 7.85 0 0 1 .1 1.52H216v-.26c.2-.1.45-.16.72-.21v-5.25a3.82 3.82 0 0 1-.72-.22v-.25zm2.04 5.59c.07.07.16.13.27.18.11.05.28.07.5.07.2 0 .37-.02.54-.07.17-.05.3-.12.43-.22.12-.1.22-.22.29-.36.07-.13.1-.3.1-.47a.85.85 0 0 0-.21-.6 2.2 2.2 0 0 0-.54-.42 9.43 9.43 0 0 0-.71-.36 3.9 3.9 0 0 1-.7-.42 2.2 2.2 0 0 1-.55-.58 1.55 1.55 0 0 1-.21-.86c0-.24.04-.47.13-.66.09-.2.21-.36.38-.5.16-.13.35-.24.58-.3.22-.08.47-.12.75-.12.36 0 .7.03 1 .08.29.06.52.13.7.21l-.03.35a11.88 11.88 0 0 1-.19 1.17h-.23l-.35-1.2c-.1-.06-.25-.1-.41-.11a3.64 3.64 0 0 0-.52-.04c-.3 0-.55.08-.74.25a.9.9 0 0 0-.28.7c0 .25.08.45.22.62.15.16.33.3.55.44.22.13.46.25.71.37.25.13.5.27.71.42.22.16.4.35.55.57.15.22.22.49.22.81 0 .27-.05.51-.15.73-.1.22-.24.4-.42.56-.18.15-.4.27-.67.35a3.5 3.5 0 0 1-1.9 0c-.3-.1-.52-.2-.64-.3a8.11 8.11 0 0 1 .15-1.23l.07-.36h.23zm7.41.6h-2.49v-.25a4.59 4.59 0 0 1 .83-.21v-5.26h-1.36l-.47 1.26h-.22a5.76 5.76 0 0 1-.08-.86 25.98 25.98 0 0 1-.03-.86h5.16a8.38 8.38 0 0 1-.04.85 198 198 0 0 1-.06.87h-.24l-.46-1.26h-1.35v5.26l.43.09c.13.03.26.07.38.12zm2.76 0h-1.97v-.25c.2-.1.42-.16.64-.21l2.24-5.83h.26l2.24 5.83.35.08c.12.03.23.07.33.13v.26h-2.3v-.26a3.77 3.77 0 0 1 .74-.21l-.6-1.62h-2.11l-.59 1.62c.25.04.5.1.77.21zm0-2.54h1.78l-.7-1.87-.17-.77h-.02l-.22.78zm4.18-3.64h2.25v.25a4 4 0 0 1-.67.22v3.6c0 .32.03.58.1.79.07.2.17.38.3.5.13.13.29.22.48.28.2.05.41.08.65.08.47 0 .83-.13 1.1-.38.26-.26.39-.68.39-1.27v-3.52a5.7 5.7 0 0 1-.7-.3v-.25h1.88v.25a4.46 4.46 0 0 1-.69.3v3.55c0 .38-.05.7-.15.97a1.68 1.68 0 0 1-1.08 1.07c-.25.09-.54.13-.85.13-.74 0-1.3-.17-1.7-.5-.39-.33-.59-.85-.59-1.54v-3.76a2.66 2.66 0 0 1-.72-.22zm7.71 5.72a9.91 9.91 0 0 1 .75.21v.26h-2.33v-.26c.13-.06.25-.1.37-.13l.36-.08v-5.25a3.36 3.36 0 0 1-.73-.22v-.25h.78c.24 0 .5-.02.78-.04l.82-.03c.3 0 .56.03.82.1.25.06.47.16.65.3.18.14.33.32.43.54.1.22.16.48.16.79 0 .43-.12.79-.35 1.07a1.9 1.9 0 0 1-.93.61 29.6 29.6 0 0 0 1.67 2.37l.49.26v.22h-1.08l-.34-.25a10.48 10.48 0 0 1-1.48-2.5h-.84zm.6-5.33a6.1 6.1 0 0 0-.6.04v2.63h.64c.4 0 .73-.13.97-.39s.36-.6.36-1.02c0-.43-.13-.75-.38-.96-.26-.2-.58-.3-.99-.3zm5.19 5.8h-1.97v-.26c.21-.1.42-.16.64-.21l2.24-5.83h.26l2.24 5.83.35.08c.12.03.23.07.33.13v.26h-2.3v-.26a3.77 3.77 0 0 1 .74-.21l-.6-1.62h-2.11l-.59 1.62c.25.04.5.1.77.21zm0-2.55h1.78l-.7-1.87-.17-.77h-.02l-.22.78zm8.41-3.64h1.92v.25c-.25.17-.5.29-.73.36v5.68h-.5l-3.23-4.87-.34-.69h-.03l.08.7v4.2c.24.06.47.16.68.3v.26h-1.91v-.26a2.52 2.52 0 0 1 .72-.3v-5.08a8.11 8.11 0 0 1-.67-.3v-.25h1.5l2.8 4.2.4.76h.04l-.05-.76v-3.6a5.76 5.76 0 0 1-.68-.35zm6.17 6.19h-2.5v-.26a4.68 4.68 0 0 1 .83-.21v-5.26h-1.36l-.47 1.26h-.22a6.38 6.38 0 0 1-.08-.86l-.02-.46v-.4H266a8.28 8.28 0 0 1-.03.85l-.03.46c0 .15-.02.29-.04.41h-.23l-.47-1.26h-1.35v5.26l.43.09c.14.03.27.07.39.12z"/></svg>