<svg xmlns="http://www.w3.org/2000/svg" width="53" height="53" viewBox="0 0 53 53"><path d="M40.48 34.92c-1.7-1.7-3.83-1.7-5.53 0-1.29 1.3-2.58 2.6-3.85 3.91-.35.36-.65.44-1.07.2-.84-.46-1.73-.84-2.53-1.34a40.3 40.3 0 0 1-9.67-8.9 23.2 23.2 0 0 1-3.46-5.61c-.18-.42-.15-.7.2-1.04 1.29-1.26 2.55-2.55 3.82-3.85 1.77-1.8 1.77-3.91-.02-5.72-1-1.04-2.02-2.05-3.03-3.08-1.04-1.05-2.07-2.12-3.13-3.16-1.7-1.68-3.83-1.68-5.52 0-1.3 1.3-2.56 2.63-3.88 3.9a6.4 6.4 0 0 0-1.98 4.3c-.2 2.74.46 5.32 1.4 7.83a47.7 47.7 0 0 0 8.34 14.08A51.78 51.78 0 0 0 27.7 49.98c3 1.47 6.1 2.6 9.48 2.8 2.32.12 4.34-.47 5.96-2.3 1.11-1.26 2.36-2.4 3.53-3.6 1.74-1.78 1.75-3.93.03-5.69l-6.22-6.27zm-2.07-8.75l4-.7a18.19 18.19 0 0 0-5-9.77 17.75 17.75 0 0 0-10.21-5.16l-.57 4.08a14.04 14.04 0 0 1 11.78 11.54zm6.27-17.62A29.44 29.44 0 0 0 27.73 0l-.57 4.08a25.99 25.99 0 0 1 21.82 21.39l4.02-.7a30.22 30.22 0 0 0-8.33-16.22z"/></svg>