<svg xmlns="http://www.w3.org/2000/svg" width="78" height="46" viewBox="0 0 78 46"><path d="M77.28.91c-.33-.23-.74-.3-1.13-.17a120.72 120.72 0 0 1-73.88 0C1.89.62 1.47.68 1.15.9c-.33.24-.52.6-.52 1v42.82c0 .4.2.76.52 1 .32.23.74.3 1.12.17a120.73 120.73 0 0 1 73.88 0 1.28 1.28 0 0 0 1.13-.17c.32-.24.51-.6.51-1V1.9c0-.4-.19-.76-.51-1zm-1.99 42.13a123.23 123.23 0 0 0-72.16 0V3.6a123.27 123.27 0 0 0 72.16 0zm-46.03-19.4a1.26 1.26 0 0 0-1.77 0L17.34 33.65c-3.69.66-7.38 1.5-10.99 2.5a1.23 1.23 0 0 0 .34 2.42c.11 0 .23-.01.34-.05 3.65-1 7.4-1.85 11.14-2.51l.1-.02.03-.01.1-.03.01-.01.1-.04.02-.01.06-.04.04-.02.05-.03.05-.05c.02 0 .03-.02.04-.03l.06-.05 9.54-9.43 6.34 6.27c.5.48 1.28.48 1.77 0 .5-.48.5-1.27 0-1.75l-3.33-3.29 7.26-7.17L55.3 35l.01.01a.7.7 0 0 0 .1.08l.06.05.04.03.06.03c.02 0 .03.02.05.03l.06.02.05.03.06.01.06.02.06.02h.06l.03.02c5.2.72 10.4 1.8 15.44 3.2.12.03.23.04.34.04a1.23 1.23 0 0 0 .34-2.42 123.98 123.98 0 0 0-15.35-3.2L41.3 17.68a1.26 1.26 0 0 0-1.77 0l-8.15 8.05zm26.81-1.46a4.84 4.84 0 0 0 4.86-4.8c0-2.65-2.18-4.8-4.86-4.8a4.84 4.84 0 0 0-4.86 4.8c0 2.64 2.18 4.8 4.86 4.8zm0-7.14c1.3 0 2.36 1.05 2.36 2.33a2.35 2.35 0 0 1-2.36 2.33 2.35 2.35 0 0 1-2.36-2.33 2.35 2.35 0 0 1 2.36-2.33z"/></svg>