<svg xmlns="http://www.w3.org/2000/svg" width="23" height="19" viewBox="0 0 23 19"><path fill="#fff" d="M21.84 5.97L9.94.03a.27.27 0 0 0-.37.14L6.98 5.82H8.4l1.9-4.15L20.6 6.8l-3.22 7.05-1.82-.9v3.72l1.12.55c.14.08.3.01.37-.13l4.91-10.75a.3.3 0 0 0-.13-.38zm-7.38.54H1.28A.28.28 0 0 0 1 6.8v11.9c0 .17.13.3.28.3h13.18c.16 0 .28-.13.28-.3V6.8a.28.28 0 0 0-.28-.3zm-.76 9.12h-.83c-.49-1.3-1.09-3.12-2-2.88-1.06.29-1.6 2.88-1.6 2.88s-.54-2.93-2.05-4.5c-1.5-1.57-2.96 4.5-2.96 4.5H2.27v-7.8H13.7zM3.18 9.5c0 .54.42.97.94.97.51 0 .93-.43.93-.97a.95.95 0 0 0-.93-.97.95.95 0 0 0-.94.97zm7.2.69c.2 0 .4-.03.57-.06.2.09.46.14.72.14.69 0 1.25-.35 1.25-.78 0-.43-.56-.78-1.25-.78-.26 0-.5.05-.7.13a.43.43 0 0 0-.3-.13h-.19a.45.45 0 0 0-.44.41c-.55.06-.97.27-.97.52 0 .3.59.55 1.3.55z"/></svg>