<svg xmlns="http://www.w3.org/2000/svg" width="20" height="19" viewBox="0 0 20 19"><path d="M15.44 12.57c-.62-.61-1.4-.61-2.01 0l-1.4 1.4c-.13.14-.24.16-.4.08-.3-.17-.63-.3-.92-.49a14.59 14.59 0 0 1-3.52-3.2 8.36 8.36 0 0 1-1.26-2.02c-.07-.15-.05-.25.07-.37.47-.45.93-.92 1.4-1.39.64-.65.64-1.4-.01-2.06l-1.1-1.1c-.39-.38-.76-.77-1.15-1.14-.62-.6-1.4-.6-2.01 0-.48.47-.93.95-1.41 1.4-.45.43-.68.95-.72 1.55-.08.99.16 1.91.5 2.82.7 1.87 1.76 3.54 3.05 5.06A18.83 18.83 0 0 0 10.78 18c1.1.53 2.23.94 3.46 1 .84.05 1.58-.16 2.17-.82.4-.45.86-.86 1.29-1.3.63-.64.63-1.41 0-2.04l-2.26-2.26zm-.76-3.15l1.46-.25A6.51 6.51 0 0 0 10.6 3.8l-.2 1.46a5.04 5.04 0 0 1 4.28 4.16zm2.29-6.34A10.78 10.78 0 0 0 10.8 0l-.21 1.47a9.34 9.34 0 0 1 7.95 7.7L20 8.91a10.84 10.84 0 0 0-3.03-5.84z"/></svg>