<svg xmlns="http://www.w3.org/2000/svg" style="display: none;">
    <symbol id="icon_aleft" viewBox="0 0 17 32">
      <path fill="#fff" d="M.28 16.64l14.26 15.1c.34.35.88.35 1.21 0a.94.94 0 0 0 0-1.29L2.1 16 15.75 1.55a.94.94 0 0 0 0-1.28.84.84 0 0 0-.6-.27.81.81 0 0 0-.6.27L.28 15.37a.94.94 0 0 0 0 1.27z"/>
    </symbol>
    <symbol id="icon_aright" viewBox="0 0 18 32">
      <path fill="#fff" d="M16.75 15.36L2.45.26a.82.82 0 0 0-1.2 0 .94.94 0 0 0 0 1.29L14.93 16 1.25 30.45a.94.94 0 0 0 0 1.28c.16.18.38.27.6.27.21 0 .44-.09.6-.27l14.3-15.1a.94.94 0 0 0 0-1.27z"/>
    </symbol>
    <symbol id="icon_arrow-nav" viewBox="0 0 21 18">
      <path d="M19.9.11a.38.38 0 0 0-.42-.08L1.21 8.17a.35.35 0 0 0-.21.37c.02.15.14.28.3.3l8.2 1.33.93 7.51a.36.36 0 0 0 .37.32c.14 0 .27-.08.33-.2L19.96.52A.35.35 0 0 0 19.9.1z"/>
    </symbol>
    <symbol id="icon_button-close-menu" viewBox="0 0 35 35">
      <path d="M34 2.02L32.99 1 17.5 16.47 2.02 1 1 2.02 16.47 17.5 1 32.98 2.02 34 17.5 18.53 32.98 34 34 32.98 18.53 17.5z"/>
    </symbol>
    <symbol id="icon_button-close" viewBox="0 0 26 26">
      <path fill="#fff" d="M25 1.74L24.26 1 13 12.25 1.74 1 1 1.74 12.25 13 1 24.26l.74.74L13 13.75 24.26 25l.74-.74L13.75 13z"/>
    </symbol>
    <symbol id="icon_calendar" viewBox="0 0 38 39">
      <path d="M33.5 22.2V3.23a.64.64 0 0 0-.65-.64h-3.22V.64a.64.64 0 0 0-.65-.64h-4.5a.64.64 0 0 0-.65.64v1.94H9.66V.64A.64.64 0 0 0 9.02 0H4.5a.64.64 0 0 0-.65.64v1.94H.64a.64.64 0 0 0-.64.64v32.85c0 .35.29.64.64.64H25.2a8.38 8.38 0 0 0 8.3-14.5zM25.11 1.3h3.22v3.86h-3.22zm-19.97 0h3.22v3.86H5.15zM1.3 3.86h2.57V5.8c0 .35.3.64.65.64H9c.36 0 .65-.29.65-.64V3.86h14.17V5.8c0 .35.29.64.65.64h4.5c.36 0 .65-.29.65-.64V3.86h2.57v5.16H1.3zm0 6.45h30.9v11.35l-.38-.1a9.1 9.1 0 0 0-1.16-.24l-.27-.03a8.66 8.66 0 0 0-1.4 0v-7.76H4.5V32.2h17.15c.02.06.05.11.06.17l.18.47.11.25.24.48.11.2.3.5.13.17.35.47.15.17.3.34H1.29zm24.67 11.8l-.2.1-.36.2a9.7 9.7 0 0 0-1.18.84l-.33.3-.22.2-.34.38-.14.15v-3.67h4.5v.88h-.03c-.59.15-1.16.36-1.7.62zm-4.34 5.07l-.06.22-.14.57-.07.45-.05.37a8.38 8.38 0 0 0-.01 1.54v.13l.05.3v.01l.02.15H17.4V26.4h4.5v.05c-.1.23-.2.47-.27.72zM5.8 26.4h4.5v4.5H5.8zm0-5.8h4.5v4.5H5.8zm21.9-1.29h-4.51v-4.5h4.5zm-5.8 0h-4.51v-4.5h4.5zm0 5.8h-4.51V20.6h4.5zM11.6 20.6h4.5v4.5h-4.5zm4.5-1.29h-4.5v-4.5h4.5zm-5.8 0H5.8v-4.5h4.5zm1.3 7.09h4.5v4.5h-4.5zm18.03 10.3a7.04 7.04 0 0 1-4.56-1.67l-.2-.18a7.39 7.39 0 0 1-.9-.98l-.18-.24c-.14-.2-.27-.42-.4-.64l-.07-.16c-.1-.18-.18-.37-.26-.56l-.1-.26a7.58 7.58 0 0 1-.35-1.48l-.01-.06a6.59 6.59 0 0 1-.02-1.58v-.06l.11-.65.02-.06c.04-.22.1-.43.16-.64l.03-.07a7.23 7.23 0 0 1 .49-1.14l.06-.11.08-.14a7.47 7.47 0 0 1 1.35-1.65l.15-.13c.16-.14.32-.27.5-.39l.07-.06c.84-.58 1.81-.98 2.85-1.15h.01a7.04 7.04 0 0 1 1.91-.07l.12.02.63.1.07.02c.23.05.44.11.66.19l.05.01a7.09 7.09 0 0 1-2.27 13.79zm3.86-7.68h-3.22V25.8a.64.64 0 1 0-1.29 0v3.22h-3.22a.64.64 0 1 0 0 1.3h3.22v3.21a.64.64 0 0 0 1.3 0v-3.22h3.21a.64.64 0 0 0 0-1.29z"/>
    </symbol>
    <symbol id="icon_gamburger" viewBox="0 0 40 20">
      <path d="M0 20v-3h40v3zm0-9V9h40v2zm0-8V0h40v3z"/>
    </symbol>
    <symbol id="icon_icon-cocktail" viewBox="0 0 29 30">
      <path fill="#252525" d="M24.9 1.35a2.97 2.97 0 0 0-4.7.62l-2.73 4.67a20.09 20.09 0 0 0-3.3-.28c-2.38 0-4.55.4-6.27 1.05L6.62 4.88v-.02c-.14-.23 0-.57.31-.75.16-.1.34-.13.5-.1.09.02.23.06.3.2.14.23.44.31.67.18a.49.49 0 0 0 .25-.43.5.5 0 0 0-.07-.24c-.13-.23.02-.57.32-.75.3-.18.68-.13.81.1a.48.48 0 0 0 .66.18.49.49 0 0 0 .19-.67A5.13 5.13 0 0 0 1.68 7.7a.49.49 0 1 0 .85-.49c-.1-.17.1-.62.46-.82.3-.18.67-.14.8.1a.49.49 0 1 0 .85-.5c-.08-.13-.05-.28-.02-.35.06-.16.18-.3.34-.4.16-.09.34-.12.5-.09.08.02.23.06.3.2L7 7.8c-1.66.8-2.77 1.9-3.02 3.14l-.03.06c-.67 1.69-1 3.5-1 5.37 0 7.13 5.03 12.93 11.22 12.93s11.22-5.8 11.22-12.93c0-1.88-.34-3.68-1-5.37l-.03-.06c-.28-1.43-1.68-2.68-3.94-3.54l2.32-3.96.08-.02 3 3a1.5 1.5 0 0 0 2.07 0 1.46 1.46 0 0 0 0-2.07zM5.64 4.2c-.4-.07-.81 0-1.18.21-.36.21-.64.54-.77.91v.02a1.71 1.71 0 0 0-1.2.21c-.17.1-.32.23-.45.37a4.11 4.11 0 0 1 2-4.36 4.15 4.15 0 0 1 4.73.42 1.72 1.72 0 0 0-1.14 1.09h-.02A1.72 1.72 0 0 0 5.67 4.2h-.02zm11.3 3.35l-.54.91c-.73-.08-1.48-.14-2.24-.14-2.17 0-4 .35-5.39.85l-.44-.87c1.6-.6 3.65-.95 5.83-.95.94 0 1.87.07 2.77.2zm-1.55 5.6a1.46 1.46 0 0 0 1.98-.56l1.53-2.6c1.8.58 2.53 1.32 2.58 1.48-.1.4-2.3 2.22-7.32 2.22-5.02 0-7.23-1.82-7.32-2.17.04-.18.51-.64 1.47-1.1l.53 1.05c.03.05.06.09.1.12l.01.02.12.08.04.02a.48.48 0 0 0 .34 0l.03-.02h.02l.05-.05.09-.06a.38.38 0 0 0 .05-.08l.04-.08a.54.54 0 0 0 .02-.1l.02-.07v-.01l-.02-.1-.03-.1-.5-1c1.17-.4 2.8-.74 4.94-.74.57 0 1.14.04 1.7.09l-1.04 1.76a1.45 1.45 0 0 0 .57 2zM3.92 16.36c0-1.17.15-2.3.43-3.4 1.16 1.99 4.62 3.44 8.92 3.62a17.64 17.64 0 0 0 1.8 0c4.3-.18 7.76-1.63 8.92-3.62.28 1.1.43 2.23.43 3.4 0 6.59-4.6 11.95-10.25 11.95S3.92 22.96 3.92 16.37zm10.25-.74c-4.88 0-9-1.96-9.24-4.4.14-.98 1.08-1.87 2.51-2.56l.44.86c-1.28.61-2 1.35-2 1.96 0 1.29 3.23 3.17 8.29 3.17 5.06 0 8.3-1.88 8.3-3.17 0-.8-1.23-1.74-3.06-2.38l.5-.85c2.05.74 3.32 1.8 3.5 2.94-.22 2.45-4.34 4.43-9.24 4.43zm12.34-9.9l-3-3a1 1 0 0 0-.86-.29c-.32.04-.6.23-.75.5l-5.37 9.15a.5.5 0 0 1-.66.2.5.5 0 0 1-.23-.3.48.48 0 0 1 .04-.37l5.37-9.15a2 2 0 0 1 3.15-.43l3 3c.1.1.15.22.15.34 0 .14-.05.26-.15.35a.5.5 0 0 1-.69 0zM7.34 18.56a.49.49 0 0 0-.97 0 7.33 7.33 0 0 0 7.31 7.32c.27 0 .49-.22.49-.49a.49.49 0 0 0-.49-.48 6.35 6.35 0 0 1-6.34-6.35zm4.39-7.32a.49.49 0 1 0-.49.49c.27 0 .49-.22.49-.49zm1.46.98a.49.49 0 1 0-.97 0 .49.49 0 0 0 .97 0zm.5-1.96a.49.49 0 0 0-.5-.48.49.49 0 0 0 0 .97c.27 0 .5-.22.5-.49z"/>
    </symbol>
    <symbol id="icon_icon-dish" viewBox="0 0 35 27">
      <path d="M34.29 21.82h-.72V18.5c0-.4-.32-.74-.71-.74h-1.07v-3.7a5.83 5.83 0 0 0-5.72-5.91h-6.43V3.7h2.5c.4 0 .72-.33.72-.74V1.48c0-.82-.64-1.48-1.43-1.48h-7.86c-.79 0-1.43.66-1.43 1.48v1.48c0 .4.32.74.72.74h2.5v4.44H8.93a5.83 5.83 0 0 0-5.72 5.92v3.7H2.14c-.4 0-.71.33-.71.73v3.33H.7c-.39 0-.71.33-.71.74v2.22C0 26 .96 27 2.14 27h30.72c1.18 0 2.14-1 2.14-2.22v-2.22c0-.4-.32-.74-.71-.74zM13.57 2.22v-.74h7.86v.74zm4.64 1.48v4.44H16.8V3.7zM4.64 14.05a4.37 4.37 0 0 1 4.29-4.43h17.14c2.37 0 4.29 1.99 4.29 4.43v3.7H4.64zm28.93 10.73c0 .4-.32.74-.71.74H2.14a.73.73 0 0 1-.71-.74V23.3h27.14v-1.48H2.86v-2.59h29.28v3.33c0 .41.32.74.72.74h.71zm-27.5-9.62H7.5a2.91 2.91 0 0 1 2.86-2.95v-1.48c-2.37 0-4.29 1.99-4.29 4.43z"/>
    </symbol>
    <symbol id="icon_icon-fb" viewBox="0 0 10 20">
      <path d="M7.05.87c-2.44 0-4.1 1.51-4.1 4.29v2.4H.19v3.24h2.76v8.33h3.3V10.8h2.74l.41-3.24H6.24V5.48c0-.94.26-1.58 1.58-1.58h1.7V1C9.21.96 8.21.87 7.04.87z"/>
    </symbol>
    <symbol id="icon_icon-insta-white" viewBox="0 0 24 24">
      <path fill="#fff" d="M17.17 24H6.83A6.84 6.84 0 0 1 0 17.17V6.83A6.84 6.84 0 0 1 6.83 0h10.34A6.84 6.84 0 0 1 24 6.83v10.34A6.84 6.84 0 0 1 17.17 24zM6.83 2.06a4.78 4.78 0 0 0-4.77 4.77v10.34a4.78 4.78 0 0 0 4.77 4.77h10.34a4.78 4.78 0 0 0 4.77-4.77V6.83a4.78 4.78 0 0 0-4.77-4.77zM12 18.14a6.15 6.15 0 1 1 .01-12.3 6.15 6.15 0 0 1-.01 12.3zm0-10.23a4.1 4.1 0 1 0 .01 8.19A4.1 4.1 0 0 0 12 7.9zm7.88-2.4a1.48 1.48 0 1 1-2.95 0 1.48 1.48 0 0 1 2.95 0z"/>
    </symbol>
    <symbol id="icon_icon-insta" viewBox="0 0 20 20">
      <path d="M6.35.87a5.36 5.36 0 0 0-5.4 5.3v7.66a5.35 5.35 0 0 0 5.4 5.29h7.86c2.98 0 5.4-2.37 5.4-5.29V6.17c0-2.92-2.42-5.3-5.4-5.3zm0 1.57h7.86c2.12 0 3.8 1.65 3.8 3.73v7.66a3.74 3.74 0 0 1-3.8 3.72H6.35a3.74 3.74 0 0 1-3.8-3.72V6.17a3.74 3.74 0 0 1 3.8-3.73zm8.94 1.57a1.1 1.1 0 0 0-1.12 1.09c0 .61.5 1.1 1.12 1.1a1.1 1.1 0 0 0 1.12-1.1c0-.6-.5-1.09-1.12-1.09zM10.28 5.3a4.76 4.76 0 0 0-4.8 4.7 4.76 4.76 0 0 0 4.8 4.69c2.64 0 4.8-2.11 4.8-4.69 0-2.59-2.16-4.7-4.8-4.7zm0 1.56c1.77 0 3.2 1.4 3.2 3.14a3.16 3.16 0 0 1-3.2 3.13c-1.77 0-3.2-1.4-3.2-3.13a3.16 3.16 0 0 1 3.2-3.14z"/>
    </symbol>
    <symbol id="icon_icon-picture" viewBox="0 0 26 15">
      <path d="M25.83.08a.43.43 0 0 0-.38-.06 41.33 41.33 0 0 1-24.9 0 .43.43 0 0 0-.38.06A.4.4 0 0 0 0 .4v14.18c0 .13.06.25.17.33.11.08.25.1.38.06a41.33 41.33 0 0 1 24.9 0 .43.43 0 0 0 .38-.06.4.4 0 0 0 .17-.33V.41a.4.4 0 0 0-.17-.33zm-.67 13.95a42.2 42.2 0 0 0-24.32 0V.97a42.2 42.2 0 0 0 24.32 0zM9.65 7.6a.43.43 0 0 0-.6 0l-3.42 3.32c-1.24.22-2.49.5-3.7.83a.4.4 0 0 0-.3.5.42.42 0 0 0 .53.29 41.43 41.43 0 0 1 3.79-.84.48.48 0 0 0 .07-.03h.01l.02-.01.02-.01.01-.01.02-.02h.01l.02-.02 3.22-3.13 2.13 2.08c.17.16.44.16.6 0a.4.4 0 0 0 0-.58l-1.12-1.1L13.4 6.5l5 4.87h.01a.45.45 0 0 0 .05.04l.02.01a.55.55 0 0 0 .04.02l.02.01a.32.32 0 0 0 .03.02h.02a.44.44 0 0 0 .04.01h.02a41.49 41.49 0 0 1 5.31 1.08.4.4 0 0 0 .11-.8c-1.69-.46-3.43-.82-5.17-1.07l-5.2-5.05a.43.43 0 0 0-.6 0L10.36 8.3zm9.03-.48c.9 0 1.64-.71 1.64-1.59 0-.88-.74-1.59-1.64-1.59-.9 0-1.64.71-1.64 1.59 0 .88.74 1.6 1.64 1.6zm0-2.36c.44 0 .8.34.8.77s-.36.77-.8.77a.79.79 0 0 1-.8-.77c0-.43.36-.77.8-.77z"/>
    </symbol>
    <symbol id="icon_icon-slider-open" viewBox="0 0 39 39">
      <path d="M38.77 28.42a.77.77 0 0 0-1.1 0l-7.72 7.87V.79a.79.79 0 0 0-.78-.79.79.79 0 0 0-.78.79v35.5l-7.72-7.87a.77.77 0 0 0-1.1 0 .8.8 0 0 0 0 1.12l9.05 9.23c.15.15.35.23.55.23.2 0 .4-.08.55-.23l9.05-9.23a.8.8 0 0 0 0-1.12zm-37-26.83h23.38a.8.8 0 0 0 .77-.8.79.79 0 0 0-.77-.79H1.78A.79.79 0 0 0 1 .79c0 .44.35.8.78.8zm0 9.29h23.38a.8.8 0 0 0 .77-.8.78.78 0 0 0-.77-.79H1.78a.78.78 0 0 0-.78.79c0 .44.35.8.78.8zm0 9.29h23.38a.8.8 0 0 0 .77-.8.78.78 0 0 0-.77-.79H1.78a.78.78 0 0 0-.78.79c0 .44.35.8.78.8zm15.25 7.7H1.78a.78.78 0 0 0-.78.79c0 .44.35.8.78.8h15.24a.8.8 0 0 0 .78-.8.78.78 0 0 0-.78-.79zm0 9.29H1.78a.78.78 0 0 0-.78.79c0 .44.35.79.78.79h15.24c.43 0 .78-.35.78-.79a.78.78 0 0 0-.78-.79z"/>
    </symbol>
    <symbol id="icon_icon-twitter-active" viewBox="0 0 24 19">
      <path fill="#1da1f2" d="M23.99 2.15c-.85.36-1.76.6-2.72.72A4.62 4.62 0 0 0 23.35.35c-.9.52-1.92.9-3 1.1A4.8 4.8 0 0 0 16.9.02a4.64 4.64 0 0 0-4.72 4.54c0 .36.04.7.12 1.04-3.93-.2-7.4-2-9.73-4.75-.4.67-.64 1.45-.64 2.29a4.5 4.5 0 0 0 2.1 3.78 4.8 4.8 0 0 1-2.14-.57v.05a4.6 4.6 0 0 0 3.79 4.47 4.97 4.97 0 0 1-2.14.07 4.72 4.72 0 0 0 4.41 3.16 9.72 9.72 0 0 1-6.98 1.88c2.09 1.3 4.57 2.04 7.24 2.04 8.67 0 13.42-6.92 13.42-12.93l-.01-.59a9.35 9.35 0 0 0 2.36-2.35z"/>
    </symbol>
    <symbol id="icon_icon-twitter" viewBox="0 0 21 18">
      <path d="M20.47 2.69a8.4 8.4 0 0 1-2.4.65 4.16 4.16 0 0 0 1.84-2.3c-.8.47-1.7.82-2.65 1.01a4.18 4.18 0 0 0-7.12 3.8 11.84 11.84 0 0 1-8.62-4.36 4.19 4.19 0 0 0 1.3 5.57 4.18 4.18 0 0 1-1.9-.52v.05a4.17 4.17 0 0 0 3.35 4.09 4 4 0 0 1-1.88.08 4.18 4.18 0 0 0 3.9 2.89A8.4 8.4 0 0 1 .1 15.38a11.88 11.88 0 0 0 6.4 1.87c7.7 0 11.9-6.35 11.9-11.86l-.01-.54a8.65 8.65 0 0 0 2.08-2.16"/>
    </symbol>
    <symbol id="icon_icon-vk" viewBox="0 0 27 16">
      <path d="M26.18 14.33a13.78 13.78 0 0 0-2.7-3.2l-.04-.03-.01-.01-.02-.02c-.6-.55-.96-.93-1.12-1.12-.28-.37-.35-.74-.2-1.11.12-.29.53-.88 1.24-1.8l.9-1.16c1.57-2.11 2.26-3.45 2.05-4.03l-.08-.14c-.06-.08-.2-.16-.43-.23a2.07 2.07 0 0 0-.88-.03l-3.94.03c-.06-.03-.16-.03-.28 0l-.17.04-.07.04-.06.04a.6.6 0 0 0-.15.14 1 1 0 0 0-.13.24 22.26 22.26 0 0 1-2.4 4.56c-.29.42-.52.72-.71.92-.2.2-.37.36-.52.47-.16.12-.28.17-.36.15a1.63 1.63 0 0 1-.23-.05.84.84 0 0 1-.31-.34 1.49 1.49 0 0 1-.16-.53 6.17 6.17 0 0 1-.04-1.21l.01-.58a34.79 34.79 0 0 1 .06-2.1l.01-.75a2.29 2.29 0 0 0-.2-1.07.68.68 0 0 0-.27-.32 1.63 1.63 0 0 0-.46-.19 9.13 9.13 0 0 0-1.85-.18c-1.7-.02-2.79.09-3.27.33-.2.1-.37.24-.53.41-.16.2-.18.31-.06.33.54.08.93.28 1.16.59l.08.17c.07.11.13.32.2.63a10.5 10.5 0 0 1-.2 4.47l-.16.3-.07.07c-.12.04-.24.07-.37.07s-.28-.07-.47-.2c-.18-.12-.37-.3-.56-.52-.2-.23-.42-.54-.67-.94-.25-.41-.5-.88-.77-1.43l-.22-.4a28.34 28.34 0 0 1-1.19-2.53.87.87 0 0 0-.33-.44l-.06-.04a.79.79 0 0 0-.22-.12c-.1-.04-.2-.07-.32-.09l-3.75.03c-.39 0-.65.08-.78.26l-.06.08a.46.46 0 0 0-.04.22c0 .1.03.22.08.37A45.44 45.44 0 0 0 3.55 9a35.08 35.08 0 0 0 2.8 3.73l.35.33a14.15 14.15 0 0 0 2.38 1.69 7.63 7.63 0 0 0 3.8.96h1.57c.32-.03.57-.13.73-.3l.05-.07a1.36 1.36 0 0 0 .15-.63c0-.4.03-.75.1-1.07.06-.31.14-.55.23-.71a1.72 1.72 0 0 1 .53-.6l.1-.05c.22-.07.48 0 .78.21.3.22.57.48.84.8.26.31.57.67.93 1.06.37.39.69.69.96.88l.28.16c.18.11.42.21.7.3.3.1.56.12.78.07l3.5-.05c.35 0 .62-.06.81-.17.2-.12.3-.24.34-.38.04-.14.04-.29.01-.47a1.85 1.85 0 0 0-.1-.36z"/>
    </symbol>
    <symbol id="icon_icon-weather-big" viewBox="0 0 92 73">
      <path d="M80.96 42.83c-.36-.14-.74-.22-1.1-.33-2.19-12.44-13.24-21.64-26.35-21.64a26.77 26.77 0 0 0-24.62 16.28 19.13 19.13 0 0 0-12.54 1.04A18.3 18.3 0 0 0 5.52 54.75C5.52 64.81 13.89 73 24.18 73h50.83c8.82 0 16-7.02 16-15.64 0-6.43-3.95-12.14-10.05-14.53zM50.25 8.4a2.7 2.7 0 0 0-3.77 0l-5.85 5.72a18.61 18.61 0 0 0-8.45-3.39V2.61c0-1.44-1.2-2.61-2.67-2.61a2.64 2.64 0 0 0-2.66 2.61v8.08a18.78 18.78 0 0 0-8.46 3.42L12.55 8.4a2.7 2.7 0 0 0-3.77 0 2.57 2.57 0 0 0 0 3.69l5.84 5.71a17.86 17.86 0 0 0-3.5 8.27H2.67a2.64 2.64 0 0 0-2.66 2.61c0 1.44 1.19 2.61 2.66 2.61h8.44c.2 1.13.47 2.24.85 3.32.7-.41 1.4-.83 2.15-1.16a23.8 23.8 0 0 1 11.73-2.05 32.34 32.34 0 0 1 17.84-14.11c.62-.2 1.23-.44 1.87-.6l4.7-4.6a2.57 2.57 0 0 0 0-3.69z"/>
    </symbol>
    <symbol id="icon_icon-weather" viewBox="0 0 19 15">
      <path d="M16.9 8.8l-.23-.07a5.51 5.51 0 0 0-5.5-4.44 5.58 5.58 0 0 0-5.14 3.34 4.12 4.12 0 0 0-2.62.21 3.77 3.77 0 0 0-2.26 3.41A3.83 3.83 0 0 0 5.05 15h10.61A3.28 3.28 0 0 0 19 11.79a3.2 3.2 0 0 0-2.1-2.99zm-6.4-7.07a.57.57 0 0 0-.79 0L8.48 2.9c-.5-.37-1.11-.6-1.76-.7V.54c0-.3-.25-.54-.56-.54-.3 0-.56.24-.56.54V2.2c-.65.09-1.25.33-1.76.7L2.62 1.73a.57.57 0 0 0-.79 0 .51.51 0 0 0 0 .75l1.22 1.18a3.6 3.6 0 0 0-.73 1.7H.56c-.31 0-.56.24-.56.53 0 .3.25.54.56.54h1.76a4 4 0 0 0 .18.68c.14-.08.29-.17.45-.24A5.03 5.03 0 0 1 5 6.44l.38.01a6.75 6.75 0 0 1 3.73-2.9l.39-.12.98-.95a.51.51 0 0 0 0-.75z"/>
    </symbol>
    <symbol id="icon_icon-youtube" viewBox="0 0 39 17">
      <path d="M24.72.62h-1.01v.02h-.78v.03h-.65v.01h-.55V.7h-.48v.01h-.44v.02h-.4v.03h-.35v.01h-.33v.02h-.3V.8h-.26v.03h-.23v.02h-.16v.01h-.17v.02h-.1v.01h-.12v.03h-.08v.02h-.06v.01h-.07v.02h-.08V1h-.07v.01h-.05v.02h-.04v.01h-.06v.03h-.06v.02h-.03v.01h-.06v.02h-.03v.01h-.05v.03h-.03v.02h-.04v.01h-.03v.02h-.03v.03h-.05v.01h-.03v.02h-.03v.01h-.03v.02h-.01v.03h-.05v.01h-.01v.02h-.03v.01h-.03v.03h-.03v.02h-.02v.01h-.04v.02h-.02v.01h-.01v.03h-.05v.02h-.01v.01h-.02v.02h-.01v.03h-.02v.01H17v.02h-.01v.01h-.02v.03h-.04v.02h-.02v.01h-.01v.02h-.02v.01h-.01v.03h-.03v.02h-.02v.01h-.01v.02h-.02v.01h-.03v.03h-.01v.02h-.01v.01h-.02v.02h-.03v.03h-.01v.01h-.02v.03h-.01v.03h-.02v.02h-.03v.03h-.01v.01h-.02v.05h-.01v.01h-.03v.05h-.02v.01h-.01v.03h-.02v.05h-.01v.01h-.03v.03h-.02v.05h-.01v.03h-.02v.04h-.03v.03h-.01v.05h-.02v.03h-.01v.06h-.02v.03h-.03v.04h-.01v.05h-.02v.04h-.01v.05h-.03v.04h-.02v.06h-.01v.05h-.02v.06h-.03v.04h-.01v.06h-.02v.08h-.01v.06h-.02v.04h-.03v.08h-.01v.07H16v.08h-.01v.07h-.03v.08h-.02v.09h-.01v.09h-.02v.09h-.01v.12h-.03v.13h-.02v.2h-.01v.16h-.02v.18h-.03v.2h-.01v.21h-.02v.24h-.01v.24h-.02v.25h-.03v.32h-.01v.36h-.02V7h-.01v3.19h.01v.5h.02v.36h.01v.3h.03v.27h.02v.24h.01v.23h.02v.19h.01v.21h.03v.18h.02v.18h.01v.17h.02v.15h.03v.1h.01v.09h.02v.11h.01v.09h.02v.07h.03v.09H16v.05h.02v.07h.01v.08h.03v.07h.02v.06h.01v.05h.02v.06h.01v.06h.03v.04h.02v.06h.01v.06h.02v.05h.03v.04h.01v.06h.02v.03h.01v.06h.03v.03h.02v.05h.01v.03h.02v.04h.01v.03h.03v.03h.02v.05h.01v.03h.02v.04h.03v.03h.01V15h.02v.04h.01v.03h.02v.02h.03v.04h.01v.02h.02v.04h.01v.02h.03v.01h.02v.05h.01v.01h.02v.02h.01v.01h.03v.02h.02v.06h.02v.01h.03v.03h.02v.02h.01v.01h.02v.02h.03v.01h.01v.03h.02v.02h.01v.01h.05v.02h.01v.03h.02v.01H17v.02h.03v.01h.03v.02h.02v.03h.01v.01h.03v.02h.03v.01h.02v.03h.04v.02h.02v.01h.03v.02h.03v.03h.03v.01h.01v.02h.05v.01h.03v.02h.04v.03h.02v.01h.03v.02h.04v.01h.03V16h.06v.02h.03v.01h.05v.02h.04v.01h.05v.03h.06v.02h.04v.01h.05v.02h.04v.03h.08v.01h.06v.02h.07v.01h.1v.02h.07v.03h.09v.01h.1v.02h.12v.01h.12v.03h.15v.02h.15v.01h.15v.02h.17v.01h.2v.03h.29v.02h.33v.01h.36v.02h.45v.03h.5v.01h.58v.02h.67v.01h.77v.02h.93v.03h1.09v.01h3.44v-.01h1.05v-.03h.81v-.02h.68v-.01h.57v-.02h.5v-.01h.47v-.03h.37v-.02h.4v-.01h.32v-.02h.32v-.03h.3v-.01h.25v-.02h.18v-.01h.17v-.02h.13v-.03h.1v-.01h.11v-.02h.08v-.01h.07v-.03h.08v-.02h.07v-.01h.05v-.02h.06v-.01h.04v-.03h.05v-.02h.06v-.01h.06v-.02h.02v-.03h.03v-.01h.05v-.02h.03v-.01h.04V16h.03v-.03h.05v-.01h.03v-.02h.04v-.01h.02v-.03h.01v-.02h.05v-.01h.01v-.02h.03v-.01h.02v-.03h.04v-.02h.02v-.01h.04v-.02h.02v-.03h.03v-.01H37v-.02h.03v-.01h.02v-.03h.01v-.02h.05v-.01h.01v-.02h.02v-.01h.01v-.03h.02v-.02h.03v-.01h.01v-.02h.02v-.03h.01v-.01h.03v-.02h.03v-.01h.02v-.02h.03v-.03h.01v-.01h.02v-.02h.01v-.04h.02v-.02h.03v-.01h.01v-.02h.02v-.01h.01v-.05h.03v-.01h.02v-.02h.01v-.04h.02v-.02h.01v-.04h.03v-.02h.02v-.03h.01V15h.02v-.02h.01v-.03h.03v-.04h.02v-.03h.01v-.05h.02v-.03h.03v-.03h.01v-.04h.02v-.03h.01v-.05h.03v-.03h.02v-.06h.01v-.03h.02v-.06h.01v-.04h.03v-.05h.02v-.06h.01v-.06h.02v-.04H38v-.12h.02v-.05h.01v-.06h.02v-.07h.03v-.08h.01v-.07h.02v-.05h.01v-.09h.03v-.07h.02v-.09h.01v-.11h.02v-.09h.01v-.1h.03v-.15h.02v-.17h.01v-.18h.02v-.18h.03v-.21h.01v-.19h.02v-.23h.01v-.25h.03v-.26h.02v-.31h.01v-.35h.02v-.5h.01V7h-.01v-.48h-.02v-.36h-.01v-.3h-.02v-.27h-.03v-.24h-.01v-.24h-.02V4.9h-.01v-.2h-.03v-.18h-.02v-.19h-.01v-.17h-.02v-.13h-.03v-.12h-.01v-.09h-.02v-.09h-.01v-.09h-.02v-.08h-.03v-.07h-.01v-.08h-.02v-.07h-.01v-.08h-.03v-.04h-.02v-.06h-.01v-.08H38v-.1h-.03v-.06h-.02v-.05h-.01v-.06h-.02v-.04h-.03v-.05h-.01v-.04h-.02v-.05h-.01v-.04h-.02v-.03h-.03V2.5h-.01v-.03h-.02v-.05h-.01v-.03h-.03v-.04h-.02v-.03h-.01v-.05h-.02v-.03h-.03v-.01h-.01v-.05h-.02v-.03h-.01v-.01h-.02v-.05h-.03v-.01h-.01v-.05h-.02v-.01h-.01V2h-.02v-.03h-.03v-.03h-.01v-.03h-.02V1.9h-.01v-.03h-.03v-.02h-.02v-.01h-.01v-.02h-.02v-.03h-.01v-.01h-.03v-.02h-.02v-.01h-.01v-.02h-.02V1.7h-.03v-.01h-.01v-.02h-.02v-.01h-.01v-.02h-.05v-.03h-.01V1.6h-.02v-.02h-.01v-.01h-.03v-.03h-.02v-.02h-.01v-.01h-.02v-.02h-.04v-.03h-.02v-.01h-.01v-.02h-.05v-.01h-.01V1.4h-.03v-.03h-.03v-.01h-.03v-.02h-.02v-.01h-.04V1.3h-.02v-.02h-.03v-.01h-.03v-.02h-.03v-.01h-.04v-.03h-.03v-.02h-.03v-.01h-.05v-.02h-.03v-.03h-.04v-.01h-.03V1.1h-.06v-.01h-.03v-.02h-.06v-.03h-.06v-.01h-.04v-.02h-.05V1h-.07V.97h-.08V.95h-.06V.94h-.07V.92h-.08V.89h-.12V.88h-.1V.86h-.17V.85h-.16V.83h-.23V.8h-.27V.79h-.3V.77h-.33V.76h-.34V.73h-.4V.71h-.44V.7h-.48V.68h-.55V.67h-.63V.64h-.8V.62h-1V.61h-4.68zM.18 3.22c.33.96 1.92 6.12 1.92 6.12v4.2h1.53v-4.2l1.9-6.12h-1.6L2.87 7.26 1.79 3.22zm17.35.07h4.81v1.46h-1.68v8.79h-1.52V4.75h-1.6zm9.77 0h1.38v3.35c.45-.55.96-.87 1.47-.87.55 0 .9.33 1.1.9.08.31.19.79.19 1.52v3.06c0 .7-.08 1.2-.17 1.53-.18.57-.57.87-1.12.87-.5 0-1-.3-1.47-.87v.76H27.3zM7.28 5.77c-.69 0-1.21.21-1.6.74-.3.39-.45 1.01-.45 1.84v2.75c0 .82.14 1.4.44 1.78a2 2 0 0 0 1.61.8c.62 0 1.25-.27 1.64-.8.3-.38.43-.96.43-1.78V8.35c0-.83-.17-1.45-.46-1.84-.39-.53-1-.74-1.6-.74zm28.82.81c.28.39.45 1 .45 1.82v1.56H33.8v1.36c0 .71.19 1.07.66 1.07.34 0 .55-.19.63-.56v-.96h1.45v.21c0 .45-.03.76-.04.9-.05.31-.16.6-.33.84-.38.56-.94.83-1.66.83-.73 0-1.28-.26-1.68-.78-.3-.38-.48-.96-.48-1.77V8.43c0-.82.17-1.46.46-1.85.4-.52.95-.79 1.65-.79s1.25.27 1.64.79zm-25.68-.77v6.13c0 .53.07.89.16 1.12.16.38.47.6.91.6.51 0 .98-.33 1.53-.96v.84h1.46V5.81h-1.46v5.9c-.3.44-.56.68-.84.68-.18 0-.28-.07-.31-.29V5.81zm11.7.1h1.44v6.19c.03.22.13.29.31.29.28 0 .53-.24.84-.68v-5.8h1.45v7.63h-1.45v-.84c-.55.63-1.02.96-1.53.96a.92.92 0 0 1-.91-.6c-.1-.23-.15-.59-.15-1.12zm7.28 1.14c-.23 0-.49.13-.72.36v4.63c.23.23.5.35.72.35.4 0 .58-.29.58-1.05v-3.3c0-.77-.18-.99-.58-.99zm5.06 0c-.46 0-.66.2-.66.91v.84h1.3v-.82c0-.71-.18-.93-.64-.93zm-27.18.03c.46 0 .7.34.62 1.11v3.06c.08.76-.16 1.15-.62 1.15-.45 0-.67-.39-.6-1.15V8.19c-.07-.77.15-1.11.6-1.11z"/>
    </symbol>
    <symbol id="icon_icon_actwitter" viewBox="0 0 23 18">
      <path fill="#252525" d="M22.93 2.13a9.1 9.1 0 0 1-2.6.72 4.6 4.6 0 0 0 2-2.52c-.88.52-1.85.9-2.89 1.11a4.54 4.54 0 0 0-7.73 4.14c-3.76-.19-7.1-2-9.34-4.75a4.53 4.53 0 0 0 1.4 6.07 4.47 4.47 0 0 1-2.05-.57v.06c0 2.2 1.56 4.04 3.64 4.45a4.29 4.29 0 0 1-2.05.08 4.54 4.54 0 0 0 4.23 3.16 9.14 9.14 0 0 1-6.71 1.88A12.8 12.8 0 0 0 7.78 18c8.34 0 12.9-6.92 12.9-12.93l-.01-.59a9.23 9.23 0 0 0 2.26-2.35z"/>
    </symbol>
    <symbol id="icon_icon_acvk" viewBox="0 0 27 16">
      <path fill="#252525" d="M26.74 14.17a14.08 14.08 0 0 0-2.76-3.26l-.03-.03-.02-.01-.01-.02h-.02c-.6-.56-.97-.94-1.13-1.14-.29-.37-.35-.75-.2-1.13.12-.29.54-.9 1.26-1.83l.91-1.18c1.62-2.14 2.31-3.51 2.1-4.11l-.08-.14c-.06-.08-.2-.16-.44-.23a2.15 2.15 0 0 0-.9-.03l-4.02.03c-.06-.03-.16-.02-.28 0l-.18.05-.07.03-.06.04a.7.7 0 0 0-.15.15 1 1 0 0 0-.14.24 22.14 22.14 0 0 1-2.45 4.64 4.92 4.92 0 0 1-1.26 1.42c-.15.12-.27.17-.36.15l-.23-.05a1 1 0 0 1-.32-.34 1.6 1.6 0 0 1-.16-.55 6.16 6.16 0 0 1-.04-1.23l.01-.59.02-1.15.04-.99.01-.76c0-.27-.01-.48-.05-.64-.03-.15-.08-.3-.14-.44a.74.74 0 0 0-.29-.34 1.68 1.68 0 0 0-.47-.19 9.5 9.5 0 0 0-1.89-.18C11.21.34 10.1.45 9.6.7c-.2.1-.37.24-.53.41-.17.21-.19.32-.07.34.56.08.96.28 1.19.6l.08.17c.07.12.13.33.2.64a10.9 10.9 0 0 1 0 3.89 2.3 2.3 0 0 1-.36.96l-.07.07a.97.97 0 0 1-.38.07.88.88 0 0 1-.48-.19 3.32 3.32 0 0 1-.58-.54c-.2-.23-.42-.54-.68-.95-.25-.41-.5-.9-.78-1.46l-.22-.4A31.84 31.84 0 0 1 5.7 1.73a.9.9 0 0 0-.33-.45l-.07-.04a.8.8 0 0 0-.23-.12 1.7 1.7 0 0 0-.32-.09l-3.83.03c-.39 0-.66.09-.8.26l-.05.09c-.03.04-.04.12-.04.22s.02.23.08.38a46.33 46.33 0 0 0 3.54 6.74 36.2 36.2 0 0 0 2.86 3.79l.35.34c.23.22.55.49.99.8.43.31.91.62 1.44.92.52.3 1.14.55 1.84.74.7.19 1.38.27 2.04.23h1.6c.33-.03.58-.13.75-.31l.05-.07a.84.84 0 0 0 .1-.25c.04-.12.06-.25.06-.39-.01-.4.02-.76.09-1.08.07-.32.15-.56.23-.72.1-.17.2-.3.3-.42.12-.11.2-.18.24-.2l.11-.05c.23-.07.5 0 .8.22.3.22.58.49.85.81.26.32.58.68.95 1.08.38.4.7.7.98.89l.28.17c.19.11.43.21.73.31.3.09.56.11.78.07l3.58-.06c.36 0 .63-.06.83-.17.2-.12.3-.25.35-.39a1.72 1.72 0 0 0-.1-.84z"/>
    </symbol>
    <symbol id="icon_icon_facebook" viewBox="0 0 9 18">
      <path fill="#252525" d="M9 5.83H6.14V3.96c0-.7.46-.86.79-.86h2V.01L6.19 0C3.12 0 2.42 2.3 2.42 3.77v2.06H.64v3.18h1.78V18h3.73V9.01h2.52z"/>
    </symbol>
    <symbol id="icon_icon__phone" viewBox="3466 1331 20.046 20.046">
      <defs><style>.cls-1 { fill: #ff7100; }</style></defs><path id="plus-orange" class="cls-1" d="M3476.023 1331a10.023 10.023 0 1 0 10.023 10.023 9.994 9.994 0 0 0-10.023-10.023zm5.467 10.48a.43.43 0 0 1-.456.455h-3.872a.215.215 0 0 0-.228.228v3.873a.43.43 0 0 1-.456.456h-.91a.43.43 0 0 1-.456-.456v-3.874a.215.215 0 0 0-.228-.228h-3.872a.43.43 0 0 1-.456-.456v-.91a.43.43 0 0 1 .456-.456h3.872a.215.215 0 0 0 .228-.228v-3.872a.43.43 0 0 1 .456-.456h.91a.43.43 0 0 1 .457.456v3.872a.215.215 0 0 0 .228.228h3.873a.43.43 0 0 1 .456.456z"/>
    </symbol>
    <symbol id="icon_logo-autor" viewBox="0 0 56 27">
      <path fill="#af936c" d="M10.19 11.03c.95 1.31 2.12 3.01 4.2 2.81.96 1.51 3.1 2.99 5.13 2.68 1.45 1.74 5.87 3.07 7.94 1.4 2.23 2.05 6.35.15 7.94-1.28 2.25.06 3.97-1.39 5.37-2.57 2.05-.33 2.99-1.76 4.08-3.04 1.56-.3 2.65-1.77 3.04-3.02-.66-.47-2.73.17-3.39.8-1.46-1.1-3.73-.14-4.32 1.06-.81-1.73-4.42-1.62-5.02.23-.39-.42-.72-.86-1.25-1.1-3-1.33-5.4.73-6.45 2.85-1.02-1.41-2.55-3.41-5.25-3.05-1.34.17-1.93 1.08-2.57 1.65-.38-2.27-4.2-2.14-5.02-.35-.72-1.13-2.46-2.59-4.08-1.4-.74-.65-2.98-.73-3.21-.43-.12.15.4 2.02 2.86 2.76zM2.95 1.22c.13.63.15 1.16-.12 1.64 2.66 2.21 6.23 2.8 10.4 2.22 3.18-.45 6.21-2.05 9.1-1.75 1.9.19 3.32 2.04 5.02 2.1 2.43.08 3.68-2.47 6.65-2.1 1.44.17 2.86.95 4.43 1.28 4.8.99 9.82 1.01 13.66-1.4-.26-1.05-.36-2.03.47-2.34 2.2-.82 3.89 6.06.81 6.54-.28-.46.04-1.51-.23-1.98-1.23.02-1.9 1.84-2.3 2.7a37.73 37.73 0 0 1-12.87 15.28c-1.73 1.21-3.93 2.9-6.2 3.15-1.8.21-3.02-.47-4.66-.46-1.72.01-3.2.69-4.78.35-2.28-.5-5.2-2.26-6.9-3.62-1.98-1.6-3.54-3.62-5.13-5.37C7.68 14.57 5.88 11.57 4 8c-.5-.96-.9-2.48-2.22-2.81-.64.39.22 1.55-.23 2.11-2.85-.74-1.4-8 1.4-6.08z"/>
    </symbol>
    <symbol id="icon_logo-footer" viewBox="0 0 165 165">
      <path fill="#af936c" d="M82.5 165C37 165 0 127.99 0 82.5S37 0 82.5 0C127.99 0 165 37.01 165 82.5S127.99 165 82.5 165zm0-163.16C38.03 1.84 1.84 38.03 1.84 82.5s36.19 80.65 80.66 80.65 80.66-36.18 80.66-80.65c0-44.47-36.19-80.66-80.66-80.66zm50.38 49.52c.24.22.4.53.4.88 0 .36-.18.68-.44.9a70.94 70.94 0 0 1 6.31 23.12 70.13 70.13 0 0 1 6.24-23 69.43 69.43 0 0 0-6.72-11.4 71.16 71.16 0 0 0-5.8 9.5zm-1 61.52c.06-.02.12-.05.2-.05.06 0 .11.03.18.04a70.24 70.24 0 0 0 5.35-16.67l.18-.69a18.3 18.3 0 0 0-1.77 5.72.32.32 0 0 1-.34.22.32.32 0 0 1-.3-.33c.03-.98.1-1.88.18-2.7.35-3.13 1.15-5.15 2.43-6.14a2.08 2.08 0 0 1-.05-.12c-.41-1.02-.37-2 .15-2.76.23-.35.55-.62.91-.8.04-.4.06-.78.08-1.16a5.34 5.34 0 0 0-3.51 1.88c-1.07 1.28-1.2 2.77-1.07 4.61 0 .8.07 1.66.16 2.65.3 3.47.7 8.21-2.04 13.93l-.35.69-.4.79-.22.4.22.49zm.28-32.28a6.46 6.46 0 0 1-.11-2l.14-1.21.4-2.78c.78-5.18 1.25-8.31-1.55-14.43a53.7 53.7 0 0 0-5.41-8.34c-3.36-4.26-7.32-8-11.78-11.1l-.2-.14-.16-.13a.3.3 0 0 1-.14-.24c0-.11.03-.2.1-.27l.43-.38c.12-.1.28-.11.4-.02l.28.19a56.17 56.17 0 0 1 6.8 5.57c.88-1.39 1.8-2.74 2.77-4.07a1.04 1.04 0 0 1-.21-.61c0-.22.08-.41.2-.58a70.07 70.07 0 0 0-5.83-6.64.96.96 0 0 1-.78-.01c-.63.63-1.25 1.27-1.86 1.93a6.6 6.6 0 0 1-.36 1.89c-.73 2.08-3.22 4.17-6.58 4.17-.44 0-.89-.03-1.33-.1-2.5-.4-4.5-1.89-7.03-3.78a55.36 55.36 0 0 0-5.42-3.7 17.88 17.88 0 0 0-4.52-1.76c-1.7.27-2.22.31-3.26.34a11.02 11.02 0 0 1-4.65.74c-.1 0-.34.03-.7.03-.9 0-2.3-.13-3.95-.77a20.22 20.22 0 0 1-3.25-.34l-.87.24c-1.44.43-2.67.94-3.66 1.52a57.15 57.15 0 0 0-5.42 3.7c-2.53 1.89-4.54 3.38-7.03 3.78a7.88 7.88 0 0 1-2.12.06c-2.96-.3-5.12-2.22-5.8-4.13l-.02-.07a6.63 6.63 0 0 1-.33-1.82c-.6-.66-1.23-1.3-1.86-1.93a.95.95 0 0 1-.78.01 66.12 66.12 0 0 0-5.83 6.64c.12.17.2.36.2.58 0 .23-.09.44-.21.61.97 1.32 1.89 2.69 2.76 4.07a56.2 56.2 0 0 1 6.8-5.57l.28-.19a.32.32 0 0 1 .4.02l.43.38c.08.07.12.17.1.27a.3.3 0 0 1-.13.24l-.18.14-.18.12a55.03 55.03 0 0 0-17.2 19.46c-2.79 6.11-2.32 9.24-1.54 14.42l.4 2.78.14 1.21c.09.74-.01 1.5-.12 2-.54 2.73-2.86 4.42-5.31 4.98 2.45.55 4.77 2.23 5.31 4.96.15.74.2 1.41.12 2-.04.42-.1.82-.15 1.21-.13.99-.26 1.91-.4 2.78-.77 5.18-1.24 8.31 1.56 14.43a54.51 54.51 0 0 0 11.2 14.61l.44.42c.12.12.14.32.03.45l-.36.44a.34.34 0 0 1-.23.12h-.02a.35.35 0 0 1-.22-.08l-.26-.25-.22-.21c-.9-.84-1.78-1.7-2.63-2.6l-.82 1.16c.12.18.21.38.21.61 0 .22-.08.41-.2.58a70.7 70.7 0 0 0 5.83 6.64.97.97 0 0 1 .38-.08c.15 0 .28.03.4.09l.2-.2a3.44 3.44 0 0 1-2.45-1.43c-.47-.68-.9-1.88-.22-3.7.58-1.54 2.01-2.46 3.84-2.46 1.23 0 2.5.41 3.58 1.17l.52.34c.68.44 1.6 1.03 2.2 1.81.08.06.14.16.14.26 0 .13-.07.25-.17.3l1.66 1.47a190.58 190.58 0 0 0 2.84 2.49v-.01a57.16 57.16 0 0 0 3.96 3.1 29.51 29.51 0 0 0 4.39 2.61c1.98.93 4.04 1.53 6.1 1.53 2.92 0 5.64-1.22 8.1-3.62v-.67l.32.34.33-.34v.68l.03.03a12.72 12.72 0 0 0 4.8 3.05c2.93.97 5.9.5 8.75-.73 3.29-1.41 6.38-3.8 8.95-5.98 1-.84 1.95-1.68 2.84-2.47l1.6-1.42a.32.32 0 0 1-.09-.07.32.32 0 0 1-.03-.41c.65-.89 1.64-1.56 2.37-2.06l.34-.23a6.33 6.33 0 0 1 3.59-1.17c1.83 0 3.26.92 3.84 2.46.68 1.82.25 3.01-.22 3.7a3.43 3.43 0 0 1-2.32 1.4l.23.23a.97.97 0 0 1 .78-.01c.74-.74 1.47-1.49 2.17-2.26a72.57 72.57 0 0 0 3.66-4.38c-.12-.17-.2-.36-.2-.58 0-.23.09-.43.21-.61-.28-.38-.55-.77-.82-1.17-.85.9-1.72 1.77-2.63 2.61l-.47.45a.31.31 0 0 1-.23.09h-.02a.3.3 0 0 1-.23-.12l-.36-.44a.33.33 0 0 1 .04-.45l.24-.23.2-.19a55.27 55.27 0 0 0 11.2-14.62c2.79-6.11 2.32-9.24 1.54-14.42a153.7 153.7 0 0 1-.54-3.99 6.46 6.46 0 0 1 .11-2c.55-2.73 2.87-4.4 5.32-4.96-2.45-.56-4.77-2.25-5.32-4.98zm-24.82 55.6c1.03-1.09 1.82-2.21 2.56-3.25 1.13-1.6 2.11-2.99 3.59-3.74.03-.25.1-.5.22-.74.14-.26.36-.56.75-.79l-.01-.01a.47.47 0 0 1 .05-.41c.21-.26.71-.28.86-.28h.13c.26.02.59.09.7.34.05.11.02.32-.05.41-.13.16-.36.23-.55.27-.51.14-.74.49-.83.74-.17.46-.07.97.12 1.22.42.57.99.69 1.39.69.77 0 1.57-.44 2-1.09.25-.38.47-1 .13-1.77-.45-1.05-1.19-1.56-2.25-1.56-.76 0-1.62.27-2.45.64v.01c-1.28.67-3.03 2.23-5.06 4.04-.93.82-1.91 1.7-2.95 2.57l-1 1.02c-2.13 2.19-4.94 5.07-9.4 6.7 4.57-.14 8.83-1.9 12.05-5.02zm-60.9-8.41c-.35.77-.12 1.39.13 1.77a2.49 2.49 0 0 0 2 1.09c.4 0 .97-.12 1.39-.69.19-.25.3-.75.12-1.21a1.2 1.2 0 0 0-.82-.75c-.2-.03-.43-.1-.56-.26-.07-.1-.1-.31-.05-.42.1-.25.44-.32.7-.34h.13c.15 0 .64.02.85.27.08.1.11.31.06.42v.01c.38.23.6.53.73.79a2.22 2.22 0 0 1 .22.66c1.58.73 2.6 2.16 3.77 3.82.73 1.04 1.53 2.17 2.56 3.26a17.96 17.96 0 0 0 12.03 5c-4.46-1.63-7.27-4.51-9.4-6.7-.36-.37-.7-.74-1.04-1.06a90.38 90.38 0 0 1-2.9-2.54c-2.01-1.78-3.75-3.33-5.03-4.01-2.53-1.16-4.12-.88-4.9.89zm8.53 11.79c.02.07.04.14.04.21 0 .07-.02.12-.04.18 1.9 1.4 3.87 2.69 5.89 3.89a.69.69 0 0 1 .4-.13.7.7 0 0 1 .4.13c.92-.56 1.84-1.13 2.74-1.72a20.4 20.4 0 0 1-6.94-4.58 63.1 63.1 0 0 1-2.5 2.02zm7.02 4.85l.01.04v.05c1.93 1.1 3.93 2.1 5.96 3.01.1-.08.23-.14.38-.14.14 0 .27.06.38.14 2.05-.9 4.04-1.9 5.97-2.98l-.02-.08.01-.06-1.13-.7c-.45.04-.9.06-1.38.06-2.3 0-4.73-.49-7.02-1.34a68.6 68.6 0 0 1-3.16 2zm13.04-.58a.74.74 0 0 1 .39-.12c.16 0 .3.06.43.15.65-.38 1.3-.77 1.93-1.18-1 .42-2.06.72-3.18.89l.43.26zm-42.29-30.98c.07-.01.12-.04.19-.04s.13.03.2.05l.22-.48-.22-.39-.42-.83-.33-.67c-2.74-5.72-2.33-10.46-2.04-13.93.09-.99.16-1.85.16-2.62.13-1.87 0-3.36-1.07-4.64-.8-.95-1.9-1.6-3.12-1.82.02.45.06.9.1 1.36.19.15.36.33.5.54.51.76.57 1.74.15 2.77l-.05.1c1.33 1.04 2.15 3.19 2.47 6.53a34.27 34.27 0 0 1 .15 2.33c0 .18-.12.33-.33.32a.34.34 0 0 1-.33-.27 18.83 18.83 0 0 0-1.68-5.53 70.3 70.3 0 0 0 5.45 17.22zm.97.27l.11.1-.09-.15-.02.05zm.42.9c0 .34-.15.65-.39.87a69.82 69.82 0 0 0 5.95 9.71c.1-.03.2-.06.32-.06s.23.03.34.06l.89-1.25a56.14 56.14 0 0 1-7.17-9.68c.04.1.06.23.06.35zm13.82 19.29a.9.9 0 0 1 .08.37c0 .14-.03.26-.08.38a71.59 71.59 0 0 0 5.82 4.99.8.8 0 0 1 .4-.12c.14 0 .27.05.4.11.83-.64 1.65-1.3 2.45-1.98-.28-.32-.54-.65-.77-.98-.97-.97-1.68-1.89-2.31-2.7-.92-1.17-1.65-2.12-2.77-2.64-.04.12-.08.21-.12.28a3.16 3.16 0 0 1-2.43 1.61l-.67.68zm41.2 10.55a.72.72 0 0 1 .43-.15c.14 0 .27.05.39.12l.43-.26a13.57 13.57 0 0 1-3.19-.89c.64.4 1.29.8 1.94 1.18zm1.17.53l.01.06-.01.09a69.03 69.03 0 0 0 5.95 2.97.67.67 0 0 1 .4-.14c.14 0 .26.06.37.14a70.26 70.26 0 0 0 5.97-3.01l-.01-.05v-.04a65.56 65.56 0 0 1-3.15-2 20.5 20.5 0 0 1-7.03 1.34c-.46 0-.92-.02-1.37-.06l-1.13.7zm13.03-.55a.7.7 0 0 1 .4-.13.7.7 0 0 1 .4.13 71.23 71.23 0 0 0 5.88-3.89c-.02-.06-.04-.11-.04-.18 0-.07.02-.14.04-.21a65.84 65.84 0 0 1-2.5-2.02 20.45 20.45 0 0 1-6.94 4.58c.9.59 1.82 1.17 2.76 1.72zm21.3-19.23c.1-.04.22-.07.34-.07.12 0 .22.03.33.06a69.7 69.7 0 0 0 5.94-9.71 1.2 1.2 0 0 1-.33-1.24 56.36 56.36 0 0 1-7.17 9.7l.89 1.26zm6.64-11.49l-.03-.05-.09.17.12-.12zm-20.85 25.92a.86.86 0 0 1 .39-.11.8.8 0 0 1 .4.12 71.6 71.6 0 0 0 5.82-4.99.91.91 0 0 1 0-.75 73 73 0 0 1-.65-.66 3.18 3.18 0 0 1-2.71-1.84c-1.04.53-1.75 1.45-2.62 2.57-.64.82-1.35 1.73-2.32 2.7-.24.33-.5.66-.77.98.8.68 1.62 1.33 2.46 1.98zm28.39-55.92v-.68c-.3-.18-.55-.42-.74-.72-.52-.76-.57-1.74-.15-2.76l.05-.12c-1.62-1.25-2.47-4.14-2.6-8.84 0-.17.12-.31.29-.33.17-.02.33.1.35.27.7 3.99 1.73 5.87 2.5 6.76a70.3 70.3 0 0 0-6.27-23.32c-.07.01-.12.04-.19.04s-.13-.03-.2-.04c-.5 1.08-.97 2.16-1.42 3.26.5.81.97 1.64 1.41 2.47l.42.83.34.67c2.74 5.72 2.34 10.47 2.04 13.93-.09.99-.16 1.85-.16 2.62-.13 1.87 0 3.36 1.07 4.64a5.32 5.32 0 0 0 3.26 1.84v-.52zm-7.54-30.01a1.18 1.18 0 0 1-.03-1.77 70.09 70.09 0 0 0-5.94-9.71c-.1.03-.22.07-.33.07-.12 0-.23-.04-.34-.07a66.9 66.9 0 0 0-2.8 4.14 55.99 55.99 0 0 1 8.19 10.2c.4-.96.8-1.91 1.25-2.86zM40.35 41.65c-.11.03-.22.07-.34.07-.12 0-.22-.04-.32-.07a69.82 69.82 0 0 0-5.95 9.71c.24.22.39.53.39.88s-.17.67-.42.89c.44.95.85 1.9 1.25 2.86a55.97 55.97 0 0 1 8.2-10.2 68.75 68.75 0 0 0-2.81-4.14zM33.13 53.4c-.07.01-.13.04-.2.04s-.12-.03-.19-.04a70.31 70.31 0 0 0-6.28 23.32c.78-.89 1.8-2.77 2.5-6.76a.33.33 0 0 1 .65.06c-.13 4.69-.98 7.59-2.6 8.84l.04.11c.43 1.03.37 2.01-.14 2.77-.2.3-.44.53-.74.72a71.16 71.16 0 0 0 0 1.2 5.32 5.32 0 0 0 3.26-1.84c1.07-1.28 1.2-2.77 1.07-4.61 0-.8-.07-1.65-.16-2.64-.3-3.47-.7-8.22 2.04-13.94l.28-.56.46-.92c.46-.84.93-1.67 1.43-2.5-.45-1.09-.92-2.18-1.42-3.25zm56.06-22.3a18.07 18.07 0 0 0 1.66-.22 13.57 13.57 0 0 0 4.25-1.5 20.42 20.42 0 0 0 .44-.28l.17-.11c.07-.05.17-.07.25-.05l.34.07a.33.33 0 0 1-.1-.17.33.33 0 0 1 .1-.32 7.98 7.98 0 0 0 .9-.92c-.66.4-1.51.69-2.55.61-1.25-.09-1.8-.33-3.86-1.25l-.4-.17c-.97-.43-1.35-.03-2.26 1.12-.15.19-.3.39-.48.59a.32.32 0 0 1-.25.12.33.33 0 0 1-.2-.08.3.3 0 0 1-.05-.04 3.97 3.97 0 0 1-.8 2.68h.07a24.1 24.1 0 0 0 2.77-.07zm-2.06-2.99l.06-.1c.36-.63.81-1.39 1.17-1.71.4-.36.8-.72 1.8-.72.25 0 .52.02.84.07.85.12 1.5.46 2.14.78.52.27 1.01.52 1.61.67.52.13 2.13.35 3.43-1.4.2-.28.5-1.09.37-1.4 0-.03-.02-.05-.05-.06l-.07.05c-.26.19-.73.52-1.4.59l.22-.01h.02c.16 0 .3.11.32.27a.33.33 0 0 1-.23.37c-.18.05-.4.07-.63.07-.6 0-1.37-.16-2.26-.47a8.09 8.09 0 0 0-3.37-.39 4.44 4.44 0 0 0-.17.04l-.12.03h-.02a4.36 4.36 0 0 0-1.03.38c-.56.3-1.07.71-1.6 1.3l-.17.2a19.58 19.58 0 0 0-.92 1.17 5.54 5.54 0 0 1 .06.27zM90.09 20l.26-.05c.18-.04.34.08.37.25a.33.33 0 0 1-.24.39c-.06 0-.11.02-.17.03a5.9 5.9 0 0 0-2.37 1.2c-1.2 1-1.65 1.86-1.93 3.7l-.06.35-.06.46a9.7 9.7 0 0 1-.34 1.55 9.4 9.4 0 0 0 .75-.77l.01-.01.02-.03.09-.1.07-.09h.01l.01-.02c.26-.3.62-.75 1.1-1.17.51-.46 1.15-.9 1.92-1.14.32-.15.66-.29 1.04-.38a5.95 5.95 0 0 0 1.78-4.34c-.01-.26-.05-.31-.05-.32-.02-.01-.07-.04-.3-.05a6.17 6.17 0 0 0-2.03.2c-1.03.3-1.76.57-2.65 1.1a8.75 8.75 0 0 0-2.18 1.81 6.43 6.43 0 0 0-1.36 3.37 15.46 15.46 0 0 1-.1.63l-.01.01a7.13 7.13 0 0 1-.04.2c-.12.5-.3 1.01-.67 1.54a1.57 1.57 0 0 1 .57.48c.64-.3 1.32-1.38 1.46-2.05.09-.42.1-.89.13-1.39.06-1.29.13-2.75 1.33-3.85.9-.82 1.84-1.09 3.64-1.51zm-8.07 9.16l-.1.12a.34.34 0 0 1-.08.15 1.62 1.62 0 0 0-.17.81v.01c.06.55.49.93.83.93.34 0 .76-.38.83-.93v-.01a1.29 1.29 0 0 0-.04-.43 1.73 1.73 0 0 0-.19-.48 1.26 1.26 0 0 0-.12-.17.77.77 0 0 0-.48-.3.78.78 0 0 0-.48.3zm4.34-.75c-.89.44-1.69.94-2.39 1.48l.02.29c.18-.12.36-.26.55-.44.11-.11.3-.12.43-.02.13.11.16.3.06.44-.4.6-.96 1.02-1.3 1.23l-.08.16a4.58 4.58 0 0 0 .95-.38 3.32 3.32 0 0 0 1.76-2.76zm9.6-3.97a.32.32 0 0 1 .37-.26c.56.09.98-.3 1.36-.63.3-.25.54-.47.83-.47.04 0 .15.02.19.04.32.12.54.36.65.69l.07.33c1.16-.8 2.35-1.57 3.58-2.29l-.01-.06v-.04a67.36 67.36 0 0 0-5.96-3 .7.7 0 0 1-.38.13.67.67 0 0 1-.39-.14c-1.05.46-2.09.96-3.11 1.48.01.48.03 1.1-.08 1.55-.13.53-.29 1-.54 1.49a65.12 65.12 0 0 1 .33.19c.71 0 1.48.23 2.06.61.44.3.79.48 1.07.6a.33.33 0 0 1-.04-.22zm-.13-6.23a71.28 71.28 0 0 0-5.87-2.18.59.59 0 0 1-.38.15.58.58 0 0 1-.38-.15c-.97.32-1.93.66-2.88 1.01.5.77.91 1.73 1.1 2.92a11.04 11.04 0 0 1 2.08-.86 7.3 7.3 0 0 1 2.18-.41c.56 0 .97.13 1.22.38.11.12.19.26.23.42.89-.44 1.79-.87 2.7-1.28zm-17.02 2.5l.25.2c.01-.98.2-2.7 1.23-4.17.1-.23.4-.58.88-.5.39.06.59.4.74.67.08.12.15.25.22.32.12.11.24.13.29.12a.33.33 0 0 1 .13 0c.02.01.17.02.31-.12.08-.07.15-.2.23-.32.15-.27.35-.61.74-.67.47-.08.77.28.88.5a7.51 7.51 0 0 1 1.22 4.17l.26-.2c.14-1.06-.85-4.88-3.69-5.85-2.85.97-3.83 4.79-3.7 5.86zm3.61-2.7a1.1 1.1 0 0 1-.73-.3 2.1 2.1 0 0 1-.34-.47c-.08-.14-.2-.34-.28-.35-.14-.03-.2.13-.2.14l-.02.05c-1.22 2.46-.84 4.21-.73 4.6a4.96 4.96 0 0 1 1.41 1.67c.3.6.43 1.21.48 1.9.08-.51.1-1.2.12-2.04l.04-1.38c.01-.18.16-.32.34-.31.1 0 .18.04.24.11.05.05.07.12.08.2l.04 1.37c.02.84.04 1.53.12 2.05.05-.64.16-1.22.41-1.77.3-.64.76-1.22 1.48-1.8.11-.4.5-2.15-.73-4.6a.32.32 0 0 1-.03-.05c0-.02-.06-.16-.2-.14-.07.01-.19.21-.27.35-.1.16-.2.33-.34.47a1.1 1.1 0 0 1-.81.3.8.8 0 0 1-.08 0zm6.07-2.44a71.12 71.12 0 0 0-5.63-1.42.53.53 0 0 1-.14.1 7.3 7.3 0 0 1 3.2 2.24c.84-.33 1.7-.64 2.57-.92zm11.43 14l.17.36a.32.32 0 0 1-.09.38c.77.34 1.4.7 2.09 1.18a71.9 71.9 0 0 0-2.17-1.92zm-2.43.64c-.16-.04-.27-.01-.3.07a.17.17 0 0 0 .02.19.3.3 0 0 1 .08.06c1.09.82 2.05 1.77 2.8 2.54l.56.59a11.31 11.31 0 0 1 .93 1.1 6.92 6.92 0 0 0 1.75 1.72c.12.04.2.16.2.29 0 .18-.12.34-.33.33a.3.3 0 0 1-.17-.04 11.45 11.45 0 0 1-2.27-1.76c-.87-.88-2.32-2.36-3.5-3.28a11.4 11.4 0 0 0-.8-.58h-.02l-.04-.02c-.1-.06-.51-.18-.82-.06-.17.07-.33.17-.52.29-.2.14-.45.3-.77.44.54.24 1.06.5 1.56.79 2.44 1.39 4.13 2.5 5.5 3.39 2.21 1.46 3.43 2.26 5.46 2.68.32.06.7.13 1.1.18.38.05.73.07 1.08.07.67 0 1.28-.13 1.84-.36a9 9 0 0 1-.43-.05c-1.38-.21-3.33-1.45-4.7-2.54a28.26 28.26 0 0 1-2.01-1.84c-.72-.7-1.54-1.5-2.44-2.26a7.44 7.44 0 0 0-.82-.6 12.8 12.8 0 0 0-2.94-1.34zm5.82 1.54a.93.93 0 0 1 .43-.12 1 1 0 0 1 .43.11 71.34 71.34 0 0 1 5.86-5.05c-.02-.07-.04-.14-.04-.21 0-.06.02-.12.04-.18a71.1 71.1 0 0 0-5.89-3.89.69.69 0 0 1-.4.13.7.7 0 0 1-.4-.13c-1.36.82-2.7 1.68-4 2.57-.1.39-.26.76-.45 1.05 0 0-.31.5-.9 1.01l.04.04c.02.02.22.18.5.49a73.23 73.23 0 0 1 4.78 4.18zm8.37-1.36a3.76 3.76 0 0 0-.4-.11c-1-.21-1.87.2-2.23 1.04-.31.73-.15 1.57.4 2.15.44.46.99.72 1.5.72.43 0 .78-.17.97-.47.23-.35.22-.87-.04-1.46v-.02c-.16-.18-.36-.46-.33-.72.04-.38.5-.5.99-.08.06.05.55.5.5.9a.4.4 0 0 1-.14.26c.43.88.33 1.9-.3 2.7-.63.8-1.95 1.4-3.6.46l-.01-.01-.12-.07h-.01c-.31.2-.68.3-1.1.3-.14 0-.27 0-.41-.03a71.93 71.93 0 0 1 .38.43c.93.79 1.8 1.34 2.76 1.48.18.03.39.02.62-.01a3.9 3.9 0 0 0 2.17-1.18c.15-.17.28-.35.39-.56.17-.35.3-.71.36-1.08.43-2.19-.33-3.8-2.15-4.57a6.55 6.55 0 0 0-.2-.07zm-3.88 1.06a3.13 3.13 0 0 1 4.23-1.63c.33.12.64.26.92.42a5.13 5.13 0 0 1 2.68 4.17c.46-.5.94-.99 1.42-1.47a.91.91 0 0 1 0-.75 71.77 71.77 0 0 0-5.82-4.99.8.8 0 0 1-.4.12.86.86 0 0 1-.4-.11 69.94 69.94 0 0 0-5.82 5.01c.05.11.07.22.07.35 0 .15-.04.29-.1.42.57.58 1.14 1.18 1.7 1.78.3.12.58.2.81.23a1 1 0 0 0 .46-.02c.21-.1.32-.17.39-.25a3.04 3.04 0 0 1-.42-1.12 3.74 3.74 0 0 1 .28-2.16zM77.85 28.8v-.28a.32.32 0 0 1-.23.1h-.02a.32.32 0 0 1-.25-.12l-.48-.59c-.9-1.15-1.3-1.55-2.27-1.12l-.4.18c-2.06.91-2.6 1.15-3.85 1.24l-.3.01a4.4 4.4 0 0 1-2.25-.6c.27.32.57.62.9.9.08.08.12.2.1.32a.33.33 0 0 1-.1.17 26.05 26.05 0 0 1 .36-.07c.1-.02.18 0 .25.06l.15.1a18.44 18.44 0 0 0 .46.3 12.14 12.14 0 0 0 4.24 1.48 17.68 17.68 0 0 0 1.74.23c.85.07 1.75.1 2.68.07h.06a3.78 3.78 0 0 1-.8-2.38zm4.29-14.65c-1.9.4-3.78.87-5.63 1.42.87.29 1.73.6 2.58.92a7.29 7.29 0 0 1 3.19-2.25.54.54 0 0 1-.14-.09zm-6.34 1.88a.59.59 0 0 1-.38.15.59.59 0 0 1-.38-.15 74.97 74.97 0 0 0-5.87 2.18c.91.41 1.81.84 2.7 1.29a.88.88 0 0 1 .23-.43c.25-.25.66-.38 1.22-.38a7.1 7.1 0 0 1 2.28.46c.72.22 1.32.45 1.98.8.19-1.19.6-2.14 1.1-2.91-.95-.35-1.9-.7-2.88-1.01zm5.42 9.9c-.15-.97-.3-1.98-1.36-3.36a8.24 8.24 0 0 0-2.18-1.81 10.6 10.6 0 0 0-2.66-1.1 6.16 6.16 0 0 0-2.32-.15c0 .01-.04.06-.05.33-.03.89.16 2.62 1.78 4.33.38.1.72.23 1.04.39a5.81 5.81 0 0 1 2.55 1.76 13.62 13.62 0 0 1 .48.55l.02.03.04.04v.01l.01.01.01.01.06.07.02.03c.22.25.48.54.79.8-.2-.55-.3-1.23-.4-2l-.06-.35c-.28-1.84-.73-2.7-1.93-3.7a6.27 6.27 0 0 0-2.38-1.2l-.16-.03a.33.33 0 0 1-.25-.39c.04-.17.2-.28.38-.25l.26.05c1.8.42 2.74.69 3.64 1.51 1.2 1.1 1.27 2.56 1.33 3.84.02.51.04.98.13 1.4.14.67.81 1.76 1.46 2.05a1.89 1.89 0 0 1 .57-.47 4.34 4.34 0 0 1-.72-1.8l-.1-.6zm-1.46 4.8a3.6 3.6 0 0 0 .66.45c.31.17.63.28.93.37l-.09-.16c-.33-.2-.9-.62-1.3-1.23a.34.34 0 0 1 .07-.44c.13-.1.32-.09.44.02.18.18.36.32.54.44 0-.1 0-.2.02-.29a13.9 13.9 0 0 0-2.4-1.48l.06.37c.17.9.58 1.51 1.07 1.95zm-5.8-5.99a2.2 2.2 0 0 0-.31-.04l-.06-.01-.51-.02a8.1 8.1 0 0 0-2.55.44 7.2 7.2 0 0 1-2.26.47c-.24 0-.45-.02-.63-.07a.34.34 0 0 1-.23-.37c.03-.16.14-.26.34-.27h.21a2.84 2.84 0 0 1-1.47-.64.18.18 0 0 0-.04.07c-.13.31.16 1.12.37 1.4 1.3 1.76 2.92 1.53 3.43 1.4.6-.15 1.09-.4 1.6-.67.64-.32 1.3-.66 2.15-.78.32-.05.6-.07.85-.07 1 0 1.4.36 1.75.69.39.35.85 1.1 1.2 1.72l.04.06.05.06.04-.27-.06-.08-.52-.68-.3-.37-.2-.24a8.05 8.05 0 0 0-.92-.86 4.77 4.77 0 0 0-1.96-.87zm-5.23-6a.67.67 0 0 1-.4.14.7.7 0 0 1-.37-.13c-2.03.9-4.03 1.9-5.97 3l.01.04v.06c1.22.72 2.4 1.5 3.57 2.29l.07-.33c.11-.33.33-.57.65-.69a.66.66 0 0 1 .2-.04c.28 0 .53.22.81.47.39.33.81.72 1.36.63.18-.03.34.09.37.26.02.08 0 .16-.03.23a6.9 6.9 0 0 0 1.06-.61 3.92 3.92 0 0 1 2.11-.61l.3-.19a6.12 6.12 0 0 1-.55-1.49 6.38 6.38 0 0 1-.08-1.55 63.48 63.48 0 0 0-3.12-1.48zM66.08 26a3.66 3.66 0 0 1-.43-1.02c-1.3-.9-2.64-1.76-4.01-2.57a.68.68 0 0 1-.4.13.69.69 0 0 1-.4-.13 71.23 71.23 0 0 0-5.88 3.89c.02.06.04.12.04.18 0 .07-.02.14-.04.21 2.05 1.58 4 3.27 5.86 5.05a1 1 0 0 1 .42-.11c.17 0 .31.05.44.12 1.5-1.43 3.08-2.8 4.7-4.1a5.8 5.8 0 0 1 .63-.6A5.1 5.1 0 0 1 66.1 26zm-1.11 4.29a.32.32 0 0 1-.07-.36l.17-.35c-.74.62-1.47 1.26-2.18 1.92.7-.5 1.33-.85 2.1-1.2a.3.3 0 0 1-.02-.01zm2.77.21h.01c.08-.07.09-.16.06-.22-.04-.08-.16-.1-.32-.07-1.6.53-2.85 1.17-3.75 1.94-.9.76-1.71 1.56-2.44 2.26-.75.72-1.4 1.35-2.01 1.84-1.37 1.09-3.32 2.33-4.7 2.54l-.43.05c.3.13.62.22.95.28.7.12 1.43.1 2.22-.02l.85-.15c2.02-.42 3.25-1.22 5.47-2.68 1.36-.89 3.05-2 5.49-3.39a19.85 19.85 0 0 1 1.56-.8c-.32-.13-.56-.29-.77-.43a3.02 3.02 0 0 0-.53-.29c-.3-.12-.68-.01-.82.06h-.02c-.3.2-.57.4-.83.6a40.05 40.05 0 0 0-3.5 3.28c-.54.55-1.46 1.31-2.27 1.76a.3.3 0 0 1-.16.04.33.33 0 0 1-.28-.16.33.33 0 0 1 .1-.44 6.82 6.82 0 0 0 1.78-1.74c.26-.33.53-.67.9-1.05l.6-.64.43-.44a20.7 20.7 0 0 1 2.4-2.13zM60.43 33a.94.94 0 0 1-.11-.42c0-.13.02-.24.07-.35a70.44 70.44 0 0 0-5.83-5.01.86.86 0 0 1-.39.11.8.8 0 0 1-.4-.12 69.79 69.79 0 0 0-5.82 5 .9.9 0 0 1 0 .74l1.42 1.46a5.3 5.3 0 0 1 3.74-4.63 3.13 3.13 0 0 1 4.2 1.98l.07.19c.26.87.2 1.93-.32 2.8a1 1 0 0 0 .39.24c.22.09.7.01 1.27-.2.56-.61 1.13-1.2 1.7-1.79zm-4.44 2.77c-1.65.94-2.97.34-3.6-.46a2.52 2.52 0 0 1-.3-2.7.41.41 0 0 1-.13-.27c-.05-.39.44-.84.5-.89.15-.12.37-.28.58-.28a.4.4 0 0 1 .41.36c.03.26-.17.54-.33.72l-.01.04c-.25.58-.26 1.1-.03 1.44.19.3.54.47.96.47.52 0 1.07-.26 1.51-.72.55-.58.71-1.42.4-2.15-.36-.84-1.23-1.25-2.23-1.04h-.04a3.74 3.74 0 0 0-.56.18c-1.82.76-2.58 2.38-2.15 4.57a4.31 4.31 0 0 0 .36 1.08 3.54 3.54 0 0 0 1.47 1.38c.36.18.71.29 1.02.34.26.05.5.06.7.03a5.63 5.63 0 0 0 3.15-1.92l-.36.02c-.46 0-.86-.1-1.17-.3l-.15.1zm20.18 108.71l-.01.04c1.93 1.1 3.92 2.1 5.97 3.01a.7.7 0 0 1 .37-.13c.14 0 .27.06.37.13a67.43 67.43 0 0 0 5.97-3.01v-.05c-1.02-.6-2-1.21-2.98-1.85a5.23 5.23 0 0 1-3.34 1.33h-.01a5.28 5.28 0 0 1-3.36-1.34 66.78 66.78 0 0 1-2.98 1.87zm6.7-3.94a.77.77 0 0 1-.37.1.77.77 0 0 1-.37-.1l-1.1.79c.45.14.94.21 1.47.21.54 0 1.02-.07 1.47-.2a75.8 75.8 0 0 1-1.1-.8zm-7.03 4.55a.77.77 0 0 1-.42.14.74.74 0 0 1-.39-.12 70.51 70.51 0 0 1-5.86 2.96c1.92.82 3.88 1.54 5.86 2.18a.6.6 0 0 1 .39-.15c.15 0 .28.06.38.15 2-.65 3.97-1.37 5.89-2.19-2-.9-3.95-1.9-5.85-2.97zm.67 5.62c1.44.43 2.9.8 4.36 1.14a70.35 70.35 0 0 0 3.26 0c1.47-.33 2.92-.71 4.36-1.14a70.9 70.9 0 0 1-5.6-2.12.69.69 0 0 1-.39.14.68.68 0 0 1-.4-.14 70.88 70.88 0 0 1-5.59 2.12zm12.69-.46c.1-.09.23-.15.38-.15s.28.06.38.15a67.82 67.82 0 0 0 5.87-2.18 70.4 70.4 0 0 1-5.86-2.96.75.75 0 0 1-.39.12.77.77 0 0 1-.42-.14 71.15 71.15 0 0 1-5.85 2.97c1.92.82 3.89 1.54 5.89 2.19zm36.65-110.19c.13.17.21.37.21.59 0 .24-.09.45-.22.62a70.83 70.83 0 0 1 6.01 9.82c.08-.02.14-.05.22-.05.08 0 .14.03.2.05a71.4 71.4 0 0 1 6-9.78 69.94 69.94 0 0 0-6.7-7.77 70.63 70.63 0 0 0-5.72 6.52zm-7.08-7.86a.92.92 0 0 1-.01.77 67.88 67.88 0 0 1 5.87 6.69.9.9 0 0 1 .36-.08 1 1 0 0 1 .35.07 72.8 72.8 0 0 1 5.76-6.57 69.94 69.94 0 0 0-6.65-5.77c-2 1.54-3.89 3.18-5.68 4.89zm-7.14-5.89l.03.18c0 .07-.02.13-.04.2 2.05 1.57 4 3.25 5.89 5.05.12-.06.25-.1.4-.1a.9.9 0 0 1 .4.1 72.56 72.56 0 0 1 5.6-4.84 69.61 69.61 0 0 0-6.6-4.36 69.92 69.92 0 0 0-5.68 3.77zm-7.15-4.55l.01.04v.06a71.74 71.74 0 0 1 5.92 3.92.85.85 0 0 1 .42-.13c.15 0 .3.06.42.13a71.05 71.05 0 0 1 5.4-3.62c-2.1-1.2-4.28-2.3-6.52-3.27a70.52 70.52 0 0 0-5.65 2.87zm-7.01-3.54c2 .9 3.95 1.9 5.86 2.98a.74.74 0 0 1 .41-.14c.16 0 .3.06.42.14a70.1 70.1 0 0 1 5.16-2.65 68.81 68.81 0 0 0-6.46-2.35c-1.84.6-3.64 1.28-5.4 2.02zm-6.8-2.64c1.9.63 3.76 1.34 5.6 2.12a.68.68 0 0 1 .4-.14c.14 0 .27.06.38.14a70.34 70.34 0 0 1 4.72-1.83 68.75 68.75 0 0 0-6.38-1.52c-1.6.36-3.17.77-4.72 1.23zm-6.53-1.82c1.7.39 3.38.84 5.04 1.35a.65.65 0 0 1 .4-.16c.16 0 .3.07.4.16a74.7 74.7 0 0 1 3.78-1.05c-2.2-.36-4.42-.61-6.68-.76-.98.13-1.96.29-2.94.46zm-2.03-.42a.58.58 0 0 1 .78 0l.93-.18a70.32 70.32 0 0 0-2.64 0l.93.18zm-7.1 1.77a.64.64 0 0 1 .4-.16c.16 0 .3.07.41.16 1.66-.51 3.34-.96 5.04-1.35-.98-.17-1.96-.33-2.94-.46-2.26.15-4.49.4-6.68.76 1.27.32 2.53.67 3.78 1.05zm-7.06 2.59a.66.66 0 0 1 .39-.14c.15 0 .28.06.4.14 1.83-.78 3.7-1.49 5.59-2.12a72.44 72.44 0 0 0-4.72-1.23c-2.16.4-4.3.92-6.38 1.52 1.6.56 3.18 1.17 4.72 1.83zm-7.11 3.5a.75.75 0 0 1 .41-.14c.16 0 .3.06.42.14a71.49 71.49 0 0 1 5.86-2.98 71.03 71.03 0 0 0-5.4-2.02c-2.2.68-4.35 1.46-6.45 2.35 1.77.81 3.48 1.7 5.16 2.65zm-7.1 4.58a.87.87 0 0 1 .43-.13c.16 0 .3.06.42.13a71.37 71.37 0 0 1 5.93-3.92l-.01-.06v-.04a72.63 72.63 0 0 0-5.64-2.87 69.17 69.17 0 0 0-6.53 3.27 71.02 71.02 0 0 1 5.4 3.62zm-7.05 5.96a.9.9 0 0 1 .4-.1.9.9 0 0 1 .4.1 70.83 70.83 0 0 1 5.89-5.05c-.02-.07-.04-.13-.04-.2l.03-.18a69.87 69.87 0 0 0-5.68-3.77 69.61 69.61 0 0 0-6.6 4.36 72.72 72.72 0 0 1 5.6 4.84zm-7.03 7.91a.9.9 0 0 1 .71.01 71.07 71.07 0 0 1 5.88-6.69.92.92 0 0 1-.1-.39c0-.14.03-.26.08-.38a71.29 71.29 0 0 0-5.68-4.89 69.94 69.94 0 0 0-6.66 5.77 72.74 72.74 0 0 1 5.77 6.57zm-6.94 11.43c.07-.01.13-.04.2-.04.09 0 .15.03.23.05a70.84 70.84 0 0 1 6-9.82 1.02 1.02 0 0 1-.21-.62c0-.22.08-.42.2-.59a70.91 70.91 0 0 0-5.71-6.52 69.94 69.94 0 0 0-6.7 7.77 71.7 71.7 0 0 1 5.99 9.77zm-6.87 25.19a70.9 70.9 0 0 1 6.3-23.12 1.19 1.19 0 0 1-.42-.9c0-.35.15-.66.4-.88a71.2 71.2 0 0 0-5.8-9.5 69.43 69.43 0 0 0-6.72 11.4 70.12 70.12 0 0 1 6.24 23zm-.33 6.88v-.39a2.55 2.55 0 0 1-1.75-.13.5.5 0 0 1-.34.17c-.27 0-.65-.26-.86-.59-.24-.37-.22-.83.04-1.09.17-.16.42-.15.8-.06.22.05.51.12.86.12l.14-.01c.23 0 .71-.16 1.07-.48-.03-.74-.06-1.48-.11-2.21a1.7 1.7 0 0 0-1.21-.46c-1.1 0-2.37.78-2.53 2.04a2.92 2.92 0 0 0 .77 2.31c.76.86 1.97 1.4 3.12 1.37v-.59zm-6.27-29.1a68.96 68.96 0 0 0-6.1 28.46c0 10.38 2.29 20.24 6.39 29.09a69.5 69.5 0 0 0 5.14-17.51c-1.89.34-4.24-.87-4.37-4.07-.1-2.55 2.07-4 3.7-4.44-1.63-.42-3.8-1.89-3.7-4.44.11-2.84 2.02-4.13 3.73-4.13.43 0 .85.08 1.24.23a69.55 69.55 0 0 0-6.03-23.19zm12.87 60.87a1.15 1.15 0 0 1 .03-1.77 71.1 71.1 0 0 1-5.75-18.78 2.72 2.72 0 0 0-.76-.61l-.27.13a70.08 70.08 0 0 1-5.46 18.48 69.47 69.47 0 0 0 6.88 11.41c2-2.84 3.78-5.8 5.33-8.86zm7.03 11.31c-.13-.17-.21-.37-.21-.59 0-.24.09-.45.22-.62a71.04 71.04 0 0 1-6.01-9.82c-.08.02-.14.05-.22.05-.08 0-.14-.03-.21-.04a71.86 71.86 0 0 1-5.52 9.12 69.95 69.95 0 0 0 6.86 7.78 72.17 72.17 0 0 0 5.09-5.88zm7.08 7.86a.94.94 0 0 1-.08-.38c0-.14.04-.27.1-.39-.75-.75-1.48-1.5-2.2-2.28a77.5 77.5 0 0 1-3.68-4.4c-.11.04-.23.07-.36.07-.12 0-.24-.03-.35-.07a72.99 72.99 0 0 1-5.13 5.92c2.16 2.07 4.44 4 6.85 5.77 1.7-1.35 3.3-2.77 4.85-4.24zm7.14 5.89l-.03-.18c0-.07.02-.13.04-.2-2.05-1.57-4.01-3.25-5.89-5.05a.9.9 0 0 1-.4.1.9.9 0 0 1-.4-.1 73.15 73.15 0 0 1-4.77 4.18 69.56 69.56 0 0 0 6.85 4.37 72.64 72.64 0 0 0 4.6-3.12zm7.15 4.55l-.01-.05v-.05a69.28 69.28 0 0 1-5.92-3.92.87.87 0 0 1-.42.13.87.87 0 0 1-.42-.13 72.8 72.8 0 0 1-4.33 2.95 69.1 69.1 0 0 0 6.88 3.27 67.97 67.97 0 0 0 4.22-2.2zm7 3.54c-1.99-.9-3.94-1.9-5.85-2.98a.75.75 0 0 1-.42.14.75.75 0 0 1-.4-.14 72.9 72.9 0 0 1-3.73 1.97c2.28.9 4.62 1.68 7.02 2.34 1.14-.41 2.27-.86 3.39-1.33zm6.8 2.64a69.31 69.31 0 0 1-5.59-2.12.68.68 0 0 1-.4.14.66.66 0 0 1-.38-.14c-.9.38-1.8.75-2.73 1.1 2.45.63 4.94 1.13 7.48 1.49.54-.15 1.09-.3 1.63-.47zm1.5.47a.59.59 0 0 1-.8 0l-.7.21c1.08.13 2.17.23 3.27.3-.6-.16-1.18-.33-1.77-.51zm14.16 0a.59.59 0 0 1-.8 0l-1.77.52a69.4 69.4 0 0 0 3.27-.3l-.7-.22zm7.07-2.59a.66.66 0 0 1-.39.14.68.68 0 0 1-.4-.14c-1.83.78-3.7 1.5-5.59 2.12l1.63.47c2.54-.36 5.03-.86 7.47-1.49-.91-.35-1.82-.72-2.72-1.1zm7.1-3.5a.74.74 0 0 1-.4.14.74.74 0 0 1-.42-.14 71.5 71.5 0 0 1-5.86 2.98c1.11.47 2.24.92 3.4 1.33 2.38-.66 4.73-1.44 7-2.34a73.46 73.46 0 0 1-3.71-1.97zm7.1-4.58a.87.87 0 0 1-.42.13.85.85 0 0 1-.42-.13 72.22 72.22 0 0 1-5.93 3.93l.01.04v.05c1.36.78 2.77 1.52 4.2 2.2a69.1 69.1 0 0 0 6.89-3.27 72.53 72.53 0 0 1-4.33-2.95zm7.06-5.95c-.12.05-.26.09-.4.09a.9.9 0 0 1-.4-.1 68.91 68.91 0 0 1-5.88 5.05c.01.07.04.13.04.2 0 .06-.03.12-.04.18a72.73 72.73 0 0 0 4.6 3.12 69.56 69.56 0 0 0 6.85-4.37 75.65 75.65 0 0 1-4.77-4.17zm7.03-7.92a1 1 0 0 1-.35.07c-.13 0-.25-.03-.36-.07a76.77 76.77 0 0 1-3.69 4.4c-.7.78-1.44 1.53-2.19 2.28a.9.9 0 0 1 .02.77 72.12 72.12 0 0 0 4.85 4.24c2.4-1.78 4.7-3.7 6.85-5.77a73 73 0 0 1-5.13-5.92zm6.94-11.43c-.07.01-.13.04-.2.04-.09 0-.16-.03-.23-.05a70.82 70.82 0 0 1-6 9.82c.12.17.21.38.21.62 0 .22-.08.42-.2.6a73.13 73.13 0 0 0 5.07 5.87 69.95 69.95 0 0 0 6.87-7.78 71.9 71.9 0 0 1-5.52-9.12zm.56-2.07c.26.22.43.54.43.91 0 .35-.15.65-.4.87a71.32 71.32 0 0 0 5.34 8.86 69.47 69.47 0 0 0 6.88-11.4 70.08 70.08 0 0 1-5.46-18.5 3.16 3.16 0 0 1-.27-.12c-.18.1-.45.27-.76.6a70.95 70.95 0 0 1-5.76 18.78zm6.64-29.99v.59c1.15.02 2.36-.5 3.12-1.37.42-.48.9-1.27.77-2.31-.16-1.26-1.44-2.04-2.53-2.04-.3 0-.83.07-1.2.46-.06.73-.1 1.47-.12 2.21.36.32.84.47 1.07.48l.14.01c.34 0 .63-.07.87-.12.37-.09.62-.1.8.06.25.26.27.71.03 1.09-.21.33-.59.59-.86.59-.13.02-.26-.08-.34-.17a2.5 2.5 0 0 1-1.75.13v.39zm5.98 28.44c4.1-8.85 6.4-18.7 6.4-29.08a68.96 68.96 0 0 0-6.11-28.46 69.57 69.57 0 0 0-6.03 23.19c.39-.15.8-.23 1.23-.23 1.72 0 3.63 1.29 3.74 4.13.1 2.55-2.07 4.02-3.7 4.44 1.63.43 3.8 1.89 3.7 4.44-.11 2.84-2.02 4.13-3.74 4.13a3.5 3.5 0 0 1-.63-.06 69.53 69.53 0 0 0 5.14 17.5zM82.5 157.41c-41.3 0-74.9-33.61-74.9-74.91S41.2 7.59 82.5 7.59c41.3 0 74.9 33.61 74.9 74.91s-33.6 74.91-74.9 74.91zM67.43 29.35a.3.3 0 0 1-.17-.2c-.03-.13-.27-.25-.44-.08l-.55.72 1.19-.42a.27.27 0 0 1-.03-.02zm4.35-5.23c-.14.02-.29.05-.43.09.14-.04.29-.06.43-.09zm6.5 3.66zm-.48-1.19a9.1 9.1 0 0 0-.06-.06l.06.06zm-.39-.38zm3.95 2.99zm16.8-.15c-.12-.11-.39-.03-.42.1a.33.33 0 0 1-.17.2.27.27 0 0 1-.03.02l1.19.42c-.18-.25-.37-.5-.57-.74zM32.2 68.07a.33.33 0 0 1-.3-.44 54.07 54.07 0 0 1 20.74-26.57c.15-.1.36-.06.46.09.1.15.06.35-.1.45a53.43 53.43 0 0 0-20.5 26.25.33.33 0 0 1-.3.22zm100.58 0a.34.34 0 0 1-.3-.22 53.44 53.44 0 0 0-20.51-26.25.32.32 0 1 1 .36-.54 54.06 54.06 0 0 1 20.76 26.57.33.33 0 0 1-.2.42l-.1.02zm8.44 20.45a.5.5 0 0 1 .34-.17c.27 0 .65.26.86.59.24.38.22.83-.04 1.09-.17.17-.42.15-.8.06-.23-.05-.52-.12-.86-.12l-.14.01c-.17 0-.47.1-.76.26.1.93.2 1.85.33 2.77.25.1.5.12.68.12 1.1 0 2.37-.78 2.53-2.03a2.92 2.92 0 0 0-.77-2.32 4.16 4.16 0 0 0-3-1.37l.07.95c.52-.1 1.07-.06 1.56.16zm-2 2.3c-.23.43-.17.95.18 1.56v.01a71 71 0 0 1-.18-1.58v.01zm-20.92 34.44a.33.33 0 0 1-.24-.11.32.32 0 0 1 .02-.46 53.23 53.23 0 0 0 14.4-21.49.34.34 0 0 1 .41-.2c.17.07.26.25.2.42a53.86 53.86 0 0 1-14.57 21.75.32.32 0 0 1-.22.09zM22.4 88.78c-.42.48-.9 1.27-.77 2.32.16 1.25 1.44 2.03 2.53 2.03.18 0 .43-.02.68-.12.13-.92.24-1.84.33-2.77a1.84 1.84 0 0 0-.76-.26l-.14-.01c-.34 0-.63.07-.87.12-.37.09-.62.1-.8-.06-.25-.26-.27-.72-.03-1.09.21-.33.6-.59.86-.59.1 0 .26.08.34.17a2.54 2.54 0 0 1 1.56-.16l.06-.95c-1.1.01-2.26.54-3 1.37zm3.19 3.6c.35-.61.41-1.13.18-1.56a70.97 70.97 0 0 1-.18 1.56zm21.1 32.88a.31.31 0 0 1-.22-.09 53.79 53.79 0 0 1-14.57-21.75.34.34 0 0 1 .2-.42c.16-.05.35.03.41.2a53.28 53.28 0 0 0 14.4 21.49c.13.12.14.32.02.46a.33.33 0 0 1-.24.11zm70.65-23.7a8.1 8.1 0 0 0 1.78-1.71c.34-.18.54-.06.62.35a8.86 8.86 0 0 1-3.06 2.58c-.79.37-1.56.56-2.33.56-1.15 0-1.97-.32-2.46-.98a3.26 3.26 0 0 1-.52-1.96c0-.9.17-1.81.52-2.71a11.72 11.72 0 0 1 2.07-3.33 11.12 11.12 0 0 1 2.72-2.4 4.36 4.36 0 0 1 2.17-.64c1.37 0 2.06.58 2.06 1.74 0 1.69-.97 3.2-2.91 4.54-.45.3-.9.57-1.32.79a8.09 8.09 0 0 1-2.95.96 5.96 5.96 0 0 0-.47 1.9c0 .9.48 1.36 1.44 1.36.6 0 1.26-.21 1.98-.63.21-.12.43-.26.66-.42zm.21-5.08c1.18-1.29 1.77-2.51 1.77-3.65 0-.49-.19-.74-.55-.74-.5 0-1.2.62-2.1 1.85l-.23.33a23.02 23.02 0 0 0-2.4 4.23 4.4 4.4 0 0 0 2.64-1.18c.29-.24.58-.52.87-.84zm.78-20.49c.1-.03.22.01.33.11.12.11.16.22.14.35-.7.99-1.4 1.74-2.12 2.23-.73.51-1.47.76-2.23.76-1.21 0-1.82-.61-1.82-1.82 0-.42.2-1.18.62-2.29-.47.61-.92 1.15-1.36 1.63-1.5 1.65-2.74 2.48-3.72 2.48-.87 0-1.45-.36-1.75-1.07a3.64 3.64 0 0 1-.23-1.39c0-.6.08-1.19.23-1.77.44-1.66 1.48-3.25 3.15-4.79.76-.71 1.54-1.29 2.32-1.75a8.59 8.59 0 0 1 4.79-1.25 8.6 8.6 0 0 1 2.12.22c.1.06.15.12.15.2 0 .08-.07.24-.23.47-.05.08-.73 1.63-2.04 4.66l-.01.03c-1.17 2.68-1.75 4.31-1.75 4.88 0 .4.15.59.46.59.32 0 .76-.24 1.3-.72.46-.41 1.02-1 1.65-1.76zm-5.5-1.39a20.2 20.2 0 0 0 2.1-3.24c.49-.97.73-1.72.73-2.23 0-.48-.18-.71-.55-.71-.84 0-1.91.79-3.22 2.36-.34.41-.7.87-1.06 1.39-1.8 2.5-2.7 4.37-2.7 5.6 0 .47.2.7.62.7.57 0 1.61-.91 3.14-2.73.3-.35.6-.73.93-1.14zm15.37-9.81c-.32.41-.72.61-1.18.61-.88 0-1.32-.51-1.32-1.52 0-.46.16-.89.48-1.3.32-.4.72-.6 1.19-.6.87 0 1.31.51 1.31 1.51 0 .47-.16.9-.48 1.3zm-1.14 3.2c-.86 1.71-1.7 3.42-2.53 5.13-1.34 2.76-2.01 4.38-2.01 4.85 0 .33.14.5.43.5.38 0 .97-.32 1.74-.97a8.7 8.7 0 0 0 1.47-1.44c.08-.02.19.01.31.1.13.09.19.2.16.33a9.44 9.44 0 0 1-1.51 1.63c-1.04.88-1.98 1.32-2.84 1.32-1.3 0-1.94-.62-1.94-1.86 0-.52.61-2.12 1.83-4.81.49-1.01 1.06-2.24 1.7-3.69.1-.28.02-.43-.27-.43-.57 0-.85-.19-.85-.58 0-.39.22-.57.66-.54 1.11.08 2.17.03 3.18-.16.18-.02.32.02.43.14.1.12.11.28.04.48zm-20.12 33.22a7.84 7.84 0 0 0 1.67-1.78c.13-.06.26-.02.4.09.15.12.22.27.22.45a11.38 11.38 0 0 1-2.8 2.68c-.8.49-1.55.73-2.28.73-1.68 0-2.53-1.07-2.53-3.22 0-1.86.83-3.8 2.47-5.82.79-.96 1.56-1.69 2.33-2.2a4.55 4.55 0 0 1 2.5-.82c1.3 0 1.94.7 1.94 2.09 0 .65-.19 1.15-.56 1.5-.38.35-.77.52-1.18.52-.78 0-1.17-.37-1.17-1.12 0-.37.2-.71.6-1.03.4-.33.6-.57.6-.72 0-.26-.12-.39-.38-.39-.68 0-1.46.77-2.35 2.29-.28.48-.57 1.04-.87 1.67-1.17 2.48-1.75 4.31-1.75 5.47 0 .57.24.85.74.85.52 0 1.15-.27 1.88-.82.17-.12.34-.27.52-.42zm-.44-32.63c0 .12-.03.22-.08.3-.08.14-.24.2-.46.2h-2.28l-3.63 7.72c-.2.44-.3.82-.3 1.13 0 .52.19.77.58.77.7 0 1.68-.72 2.95-2.17.28-.1.49-.04.62.19-1.25 1.79-2.6 2.68-4.04 2.68-.86 0-1.48-.2-1.84-.61-.27-.31-.4-.72-.4-1.25 0-.47.1-.96.34-1.48l.06-.12 3.3-6.85-1.64-.01c-.35 0-.52-.17-.52-.5 0-.34.17-.51.52-.51h2.12l2.45-5.23c.23-.5.68-.74 1.35-.74.37 0 .65.04.82.13.16.08.23.19.23.34v.28l-.23.47-2.26 4.75h1.8c.22 0 .38.07.46.2.05.08.08.18.08.31zm-6.84 31.35c.1-.03.2.01.32.12.12.1.17.22.14.35a8.79 8.79 0 0 1-2.1 2.21c-.73.52-1.49.77-2.25.77-1.21 0-1.82-.6-1.82-1.82 0-.41.2-1.18.62-2.29a17 17 0 0 1-3.19 3.33c-.67.5-1.27.75-1.8.78h-.09c-1.32 0-1.98-.82-1.98-2.45 0-1.8.7-3.53 2.07-5.2.38-.46.82-.92 1.3-1.37l.5-.44c2.02-1.71 4.1-2.56 6.22-2.56h.42a8.4 8.4 0 0 1 2.1.23c.1.05.15.12.15.19 0 .09-.07.24-.23.48-.05.07-.73 1.61-2.02 4.61l-.03.07c-1.17 2.69-1.75 4.32-1.75 4.89 0 .39.15.58.47.58.32 0 .76-.24 1.31-.73.46-.41 1-.99 1.63-1.75zm-9.59 2.48c.3 0 .74-.26 1.31-.77.72-.64 1.63-1.67 2.77-3.1.93-1.2 1.63-2.28 2.11-3.24.48-.97.72-1.71.72-2.23 0-.47-.18-.7-.55-.7-1.06 0-2.48 1.24-4.28 3.74l-.77 1.11a13.18 13.18 0 0 0-1.8 3.59c-.09.33-.13.63-.13.9 0 .22.04.38.13.5.1.14.27.2.5.2zm8.74-38.8c1.66-2.58 2.49-4.38 2.49-5.39 0-.29-.12-.43-.35-.43-.31 0-.93.66-1.86 1.96a23.62 23.62 0 0 0-2.37 4.13l-1.98 4.31a19.93 19.93 0 0 0 4.07-4.58zm2.68-6.79c.8 0 1.2.48 1.2 1.44 0 .75-.34 1.79-1.05 3.14a19.43 19.43 0 0 1-2.36 3.53 21.29 21.29 0 0 1-5.24 4.77c-1.22 2.74-2.1 4.83-2.66 6.26a9.21 9.21 0 0 0-.67 2.2c0 .39.17.58.54.58h.13a4.64 4.64 0 0 0 2-.89 5.89 5.89 0 0 0 1.52-1.28c.38.05.58.2.58.46a6.8 6.8 0 0 1-4.1 2.39l-.44.02c-.57 0-1.03-.11-1.36-.32-.46-.29-.7-.79-.7-1.5 0-.55.24-1.49.7-2.82.35-.99.83-2.2 1.44-3.62l.36-.87a68.43 68.43 0 0 1 3.17-6.5 25.23 25.23 0 0 1 3.37-4.74l.1-.1c1.35-1.43 2.51-2.15 3.47-2.15zm-10-5.85c.4-.37.94-.63 1.58-.78.55-.13.82-.05.82.23 0 .08-.04.2-.12.35l-2.39 4.22-1.8 3.16-3.22 5.62c-.98 1.68-1.97 3.45-2.95 5.31 1.5.05 2.54.08 3.1.08.63 0 1.5-.05 2.64-.16.34.15.38.39.12.73-.8.37-2.96.55-6.48.55a32.55 32.55 0 0 0-.66 1.25l.3.17c1.5.94 2.26 2.19 2.26 3.74 0 1.24-.43 2.23-1.3 2.97-.3.27-.63.48-.97.65a4.1 4.1 0 0 1-1.92.46 3.1 3.1 0 0 1-2.34-1.01 3.63 3.63 0 0 1-.95-2.6c0-.91.59-2.46 1.78-4.66-1.65-.49-3.71-.8-6.17-.93-.44.36-.89.71-1.33 1.04-7.26 5.52-14.26 8.27-21.01 8.27-3.26 0-5.99-.68-8.19-2.05-2.5-1.55-3.76-3.73-3.76-6.52 0-3.26 1.78-6.01 5.35-8.26a20.24 20.24 0 0 1 11.02-3.11c4.3 0 7.68.86 10.16 2.56.08.08.12.16.12.24 0 .44-.23.59-.7.46-1.83-1.47-4.59-2.21-8.26-2.21-3.88 0-7.46 1.13-10.75 3.38-3.46 2.35-5.2 5.08-5.2 8.18 0 1.97 1 3.57 3 4.81a12.77 12.77 0 0 0 6.78 1.71c7.09 0 14.2-2.85 21.34-8.54l-3.73-.07-16.14-.08h-1.28c-.25-.05-.38-.18-.38-.39 0-.23.35-.55 1.06-.95a4 4 0 0 1 1.91-.6c.39 0 2.85.08 7.38.23 5.08.18 8.58.3 10.52.35h2.35a31.5 31.5 0 0 0 1.77-1.54l7.57-7.41 7.16-7 1.8-1.76zm-7.5 12.1l5.6-8.62.69-1.08-.31-.04-.39.41c-.69.73-2.25 2.35-4.7 4.87a573.5 573.5 0 0 1-7.1 7.25c-1 .98-2.07 1.95-3.21 2.91l5.66.23A269.28 269.28 0 0 1 84 63.07zm8.02 19.09c0-.28-.12-.42-.35-.42a.47.47 0 0 0-.28.11c-.34.23-.87.85-1.59 1.85l-.2.3a23.33 23.33 0 0 0-2.16 3.83l-1.98 4.3a19.56 19.56 0 0 0 4.07-4.57l.06-.1c.8-1.25 1.4-2.32 1.8-3.19.42-.9.63-1.6.63-2.11zm-.63-1.24c.3-.1.56-.15.82-.15.8 0 1.2.48 1.2 1.43 0 .75-.35 1.8-1.05 3.14a19.17 19.17 0 0 1-2.77 4.02 22.41 22.41 0 0 1-4.83 4.29c-1 2.24-1.77 4.05-2.33 5.42-.67 1.66-1 2.68-1 3.03 0 .39.18.58.54.58.14 0 .3-.02.46-.06a5.32 5.32 0 0 0 1.67-.83 5.84 5.84 0 0 0 1.51-1.28c.4.05.59.21.59.47a6.95 6.95 0 0 1-3.77 2.33c-.26.05-.52.07-.77.07-1.37 0-2.06-.6-2.06-1.82 0-.96.71-3.1 2.14-6.44a64.69 64.69 0 0 1 3.53-7.37 25.09 25.09 0 0 1 3.37-4.73c.33-.36.64-.67.95-.94a5.84 5.84 0 0 1 1.8-1.16zm-8.4-6.16c0-.57-.18-1.09-.56-1.57-.2-.26-.45-.5-.75-.73-1.47 2.89-2.21 4.63-2.21 5.25 0 .74.32 1.11.97 1.11.59 0 1.17-.42 1.72-1.27.1-.15.2-.3.27-.46.38-.72.57-1.49.57-2.33zM72.43 98.54c.93-1.2 1.64-2.28 2.11-3.24.48-.97.72-1.71.72-2.23 0-.47-.18-.7-.54-.7-.84 0-1.91.78-3.22 2.36-.34.41-.7.87-1.07 1.38-1.8 2.51-2.7 4.38-2.7 5.6 0 .47.21.7.63.7.56 0 1.61-.91 3.14-2.73.3-.34.6-.73.93-1.14zm3.45-7.18c1.17 0 2 .07 2.53.23.1.05.15.12.15.19 0 .09-.08.24-.23.48-.05.07-.74 1.64-2.06 4.68-1.16 2.69-1.74 4.32-1.74 4.89 0 .39.15.58.46.58.6 0 1.58-.82 2.95-2.48.1-.03.21.01.33.12.12.1.16.22.14.35-1.4 1.99-2.85 2.98-4.35 2.98-1.21 0-1.82-.6-1.82-1.82 0-.41.2-1.18.62-2.29-.48.61-.93 1.16-1.36 1.63-1.5 1.66-2.74 2.48-3.72 2.48-1.32 0-1.98-.82-1.98-2.45 0-2.3 1.12-4.48 3.37-6.57.77-.71 1.54-1.29 2.33-1.75a8.67 8.67 0 0 1 4.38-1.25zm-29.35 15.12l-.13.06a9.9 9.9 0 0 1-5.79.74 4.95 4.95 0 0 1-1.44-.54 2.77 2.77 0 0 1-1.48-2.33c-.03-.41.06-.78.28-1.08.2-.31.54-.47.98-.47.42 0 .78.13 1.1.39.31.26.48.6.51 1.01.03.35-.01.6-.13.76a.83.83 0 0 0-.14.54c.03.39.23.73.6 1.01.38.29 1 .43 1.86.43a6.98 6.98 0 0 0 3.78-1.06c.62-.36 1.21-.8 1.76-1.31a14.5 14.5 0 0 0 2.11-2.45c.64-.92 1.22-1.87 1.74-2.84.52-.98 1-1.94 1.43-2.9l1.23-2.66a32.44 32.44 0 0 1 3.49-5.73c.7-.93 1.47-1.81 2.28-2.62.82-.81 1.65-1.5 2.5-2.07a12.34 12.34 0 0 0-3.23-.99 18.5 18.5 0 0 0-3.03-.26c-.86 0-1.65.02-2.38.07-.72.05-1.43.16-2.13.33a5.78 5.78 0 0 1 1.31 2.13 9.2 9.2 0 0 1-.15 6.39 12.61 12.61 0 0 1-2.17 3.65A11.3 11.3 0 0 1 48 97.34a8.19 8.19 0 0 1-3.95 1.02c-.55 0-1.07-.09-1.57-.26a3.95 3.95 0 0 1-2.33-2.01 4.68 4.68 0 0 1-.46-1.8c-.07-.93.06-1.85.4-2.76.32-.92.78-1.78 1.37-2.61.6-.82 1.3-1.61 2.09-2.34a18.69 18.69 0 0 1 5.24-3.44c.9-.39 1.76-.67 2.56-.85a6.6 6.6 0 0 0-2.14-.92 9.4 9.4 0 0 0-2.27-.3l-.42.01a9.44 9.44 0 0 0-3.58.86c-1.26.58-2.39 1.4-3.37 2.46-.62.66-1.11 1.31-1.48 1.95a18.33 18.33 0 0 0-1.35 2.85c-.1.29-.19.44-.26.44-.05 0-.1-.02-.12-.07a.33.33 0 0 1-.05-.11c0-.15.07-.48.23-.98.16-.51.42-1.08.78-1.74.36-.65.82-1.33 1.37-2.05a10.76 10.76 0 0 1 4.77-3.47 10 10 0 0 1 3.52-.59c.94 0 1.87.16 2.79.48a7.4 7.4 0 0 1 2.12 1.07c.68-.17 1.45-.3 2.32-.39.87-.08 1.72-.13 2.56-.13 1.3 0 2.56.12 3.75.36 1.2.23 2.22.54 3.06.94.5-.3.93-.59 1.3-.87.38-.28.67-.43.86-.43.1 0 .15.07.16.19.01.12-.17.29-.55.5-.38.21-.8.48-1.27.83 1.2.64 2.2 1.49 3 2.57a6.73 6.73 0 0 1 1.36 3.63c.07.94-.1 1.81-.51 2.63a7 7 0 0 1-1.64 2.12 7.84 7.84 0 0 1-4.94 1.94c-.35 0-.7-.07-1.07-.19-.36-.12-.7-.26-.99-.4a4.9 4.9 0 0 1-.73-.45c-.2-.14-.3-.26-.3-.33 0-.12.06-.18.2-.18.03 0 .12.05.26.15l.52.33c.2.12.44.23.7.33.27.1.57.15.89.15.9 0 1.72-.24 2.44-.71a6.2 6.2 0 0 0 1.8-1.77 8.17 8.17 0 0 0 1.29-4.95 5.27 5.27 0 0 0-2.8-4.43 9.14 9.14 0 0 0-2.07 2.13c-.62.87-1.23 1.87-1.81 2.99a106.2 106.2 0 0 0-1.8 3.65l-2 4.12a26.03 26.03 0 0 1-2.53 4.15 20.9 20.9 0 0 1-3.22 3.48 16.4 16.4 0 0 1-3.61 2.34zm-6.4-12.33a4.05 4.05 0 0 0 1.06 2.67 3.2 3.2 0 0 0 2.38.95 6.21 6.21 0 0 0 3.54-1.13c1.15-.75 2.17-1.7 3.06-2.84.9-1.15 1.6-2.41 2.11-3.79a9.4 9.4 0 0 0 .35-5.87 3.1 3.1 0 0 0-.84-1.52c-1.48.3-2.94.85-4.37 1.67a18.3 18.3 0 0 0-3.8 2.84 14.06 14.06 0 0 0-2.63 3.47 6.54 6.54 0 0 0-.86 3.55zm11.85 24.13h-1.51v-.18c.16-.06.32-.11.49-.14v-3.54a1.68 1.68 0 0 1-.5-.15v-.17h1.52v.17a.85.85 0 0 1-.22.09.95.95 0 0 1-.23.06v1.56h1.87v-1.56a8.31 8.31 0 0 1-.23-.06 7.63 7.63 0 0 1-.22-.09v-.17h1.51v.17a1.5 1.5 0 0 1-.23.1l-.26.05v3.54a13.48 13.48 0 0 1 .5.14v.18h-1.52v-.18c.15-.06.3-.11.45-.14v-1.67h-1.87v1.67a18.76 18.76 0 0 1 .45.14zm2.97-2.09c0-.31.05-.6.13-.86.09-.27.21-.5.37-.69a1.73 1.73 0 0 1 1.4-.61 1.73 1.73 0 0 1 1.4.61c.15.19.27.42.36.69.08.26.13.55.13.86 0 .31-.05.6-.13.86-.09.26-.21.49-.37.69a1.73 1.73 0 0 1-1.4.61 1.73 1.73 0 0 1-1.4-.61c-.15-.2-.27-.43-.36-.69a2.77 2.77 0 0 1-.13-.86zm.64 0c0 .25.03.49.08.72.06.22.14.42.24.58.11.17.25.3.4.4.17.1.37.15.59.15.2 0 .38-.05.53-.15.15-.1.27-.23.37-.4.1-.16.17-.36.22-.58a3.38 3.38 0 0 0 0-1.44 1.82 1.82 0 0 0-.24-.59c-.1-.17-.24-.3-.4-.4a1.18 1.18 0 0 0-.58-.14c-.22 0-.4.05-.56.14-.15.1-.28.23-.37.4-.1.17-.17.36-.21.59-.05.22-.07.46-.07.72zm6.15 2.09h-1.68v-.18a2.45 2.45 0 0 1 .55-.14v-3.55h-.9l-.33.85h-.14a3.45 3.45 0 0 1-.05-.58 10.72 10.72 0 0 1-.02-.58h3.46v.27l-.02.31-.02.31c0 .1-.01.19-.03.27h-.15l-.32-.85h-.9v3.55a10.2 10.2 0 0 1 .55.14zm4-4.18a12.84 12.84 0 0 1-.06.97h-.16l-.24-.66h-1.3v1.58h.97l.23-.44h.15c.03.39.03.8 0 1.2h-.15l-.23-.45h-.97v1.67h1.37l.3-.72h.14a5.9 5.9 0 0 1 .07 1.03H62.9v-.18c.14-.06.3-.11.49-.14v-3.54a16.46 16.46 0 0 1-.49-.15v-.17zm.65 0H68v.17l-.28.1-.29.05v3.55h1.37l.36-.96h.15a6.1 6.1 0 0 1 .06 1.27h-3v-.18l.26-.09.23-.05v-3.54c-.1-.01-.18-.03-.26-.06a3.36 3.36 0 0 1-.23-.09zm8.7 4.18a6.66 6.66 0 0 0-.3-.21 3 3 0 0 1-.43-.34 1.51 1.51 0 0 1-.88.56c-.14.04-.29.06-.45.06a1.5 1.5 0 0 1-1-.35 1.18 1.18 0 0 1-.29-.37c-.06-.14-.1-.29-.1-.44 0-.19.04-.37.11-.53a1.97 1.97 0 0 1 .57-.71l.27-.2a1.65 1.65 0 0 1-.3-.44 1.18 1.18 0 0 1-.11-.48c0-.1.02-.2.05-.3.04-.1.1-.18.18-.25a.73.73 0 0 1 .29-.18.94.94 0 0 1 .38-.07c.27 0 .48.06.64.17.16.11.24.28.24.49 0 .13-.02.25-.07.37-.05.11-.1.22-.18.31-.07.1-.15.18-.24.26l-.26.22c.16.21.35.42.56.63l.68.64a2.5 2.5 0 0 0 .25-.58 3.34 3.34 0 0 0 .13-.95 1 1 0 0 1-.35-.14v-.16h1.2v.16c-.1.07-.23.11-.38.14a4.9 4.9 0 0 1-.61 1.74l.44.34c.15.11.3.21.49.31l.33.15v.15zm-.93-.74l-.39-.38a8.1 8.1 0 0 1-.77-.88l-.26-.34c-.18.16-.3.33-.38.48-.08.16-.12.34-.12.56 0 .15.03.29.08.42s.11.24.2.33c.1.1.2.17.32.23a1.07 1.07 0 0 0 .9-.04c.16-.09.3-.21.42-.38zm-1.54-2.73c0 .07.02.14.05.22.02.08.06.16.1.24a2.07 2.07 0 0 0 .31.43c.15-.11.26-.25.35-.41a.9.9 0 0 0 .1-.55.54.54 0 0 0-.11-.32c-.08-.09-.19-.13-.34-.13a.46.46 0 0 0-.22.05.3.3 0 0 0-.14.11.5.5 0 0 0-.08.17.81.81 0 0 0-.02.19zm6.19 3.15a12.11 12.11 0 0 1 .5.14v.18h-1.56v-.18l.25-.09.24-.05v-3.54l-.28-.07a1.2 1.2 0 0 1-.21-.08v-.17h.52l.53-.02.55-.03c.2 0 .38.02.55.07a1.08 1.08 0 0 1 .73.57c.07.15.1.32.1.53 0 .29-.08.53-.23.72-.15.19-.36.33-.62.42a23.3 23.3 0 0 0 1.12 1.59l.32.18v.15h-.72l-.23-.17a8.58 8.58 0 0 1-.79-1.23c-.07-.14-.14-.29-.2-.45h-.57zm.4-3.6l-.23.01a.9.9 0 0 0-.17.02v1.77h.43c.27 0 .5-.08.65-.26.16-.17.24-.4.24-.68 0-.3-.08-.51-.25-.65-.17-.14-.4-.21-.67-.21zm5.17-.26a15.4 15.4 0 0 1-.07.97h-.16l-.24-.66h-1.3v1.58h.97l.23-.44h.15c.03.39.03.8 0 1.2h-.15l-.23-.45h-.97v1.67h1.37l.3-.72h.14a5.53 5.53 0 0 1 .07 1.03h-2.94v-.18c.14-.06.3-.11.49-.14v-3.54a1.15 1.15 0 0 1-.25-.06l-.24-.09v-.17zm1.36 3.76c.05.05.11.09.19.13.07.03.18.05.34.05.12 0 .24-.02.35-.05.12-.04.21-.09.3-.15a.7.7 0 0 0 .26-.56.58.58 0 0 0-.15-.4c-.1-.11-.22-.2-.36-.29a8 8 0 0 0-.47-.24 2.64 2.64 0 0 1-.48-.28 1.6 1.6 0 0 1-.36-.4c-.1-.15-.15-.34-.15-.57 0-.17.03-.32.09-.45s.14-.24.25-.34c.11-.09.24-.16.4-.21.14-.05.31-.07.5-.07a3.4 3.4 0 0 1 1.14.2l-.01.23-.04.28-.05.28-.04.23h-.16l-.24-.82a1.4 1.4 0 0 0-.27-.07 3.84 3.84 0 0 0-.35-.02c-.2 0-.37.06-.5.17a.6.6 0 0 0-.18.47c0 .17.05.3.14.41.1.12.22.22.37.3.15.09.31.18.48.26.17.08.33.17.48.28.15.11.27.23.37.38.1.15.14.33.14.55 0 .18-.03.34-.1.49a1.08 1.08 0 0 1-.73.61 2.33 2.33 0 0 1-1.28 0c-.2-.06-.34-.13-.43-.19a3.81 3.81 0 0 1 .06-.54 15.5 15.5 0 0 1 .1-.54h.15zm4.99.42h-1.68v-.18a2.52 2.52 0 0 1 .56-.14v-3.55h-.92l-.31.85h-.15a3.97 3.97 0 0 1-.05-.58 16.07 16.07 0 0 1-.02-.58h3.46a6.82 6.82 0 0 1-.04.89l-.02.27h-.16l-.31-.85h-.91v3.55a10.3 10.3 0 0 1 .55.14zm1.85 0h-1.33v-.18c.15-.06.29-.11.43-.14l1.51-3.93h.18l1.5 3.93.24.05c.08.02.15.05.22.09v.18h-1.54v-.18l.24-.08.25-.06-.4-1.09h-1.42l-.4 1.09c.17.02.34.07.52.14zm0-1.72h1.2l-.47-1.27-.12-.51h-.01l-.15.53zm2.8-2.46h1.52v.17l-.22.09-.23.06v2.43c0 .21.02.39.07.53a.73.73 0 0 0 .52.52c.13.04.28.06.44.06.32 0 .56-.09.73-.26.18-.17.27-.46.27-.85v-2.38l-.26-.09-.21-.11v-.17h1.27v.17a1.2 1.2 0 0 1-.23.12l-.24.09v2.39c0 .25-.03.47-.1.65-.07.19-.16.34-.28.46-.12.12-.27.21-.44.26-.18.06-.37.09-.58.09-.5 0-.88-.11-1.14-.34-.26-.22-.4-.57-.4-1.03v-2.54a1.53 1.53 0 0 1-.48-.15zm5.2 3.86a13.48 13.48 0 0 1 .5.14v.18H99.5v-.18l.25-.09.24-.05v-3.54a1.7 1.7 0 0 1-.27-.07 1.17 1.17 0 0 1-.22-.08v-.17h.53l.52-.02.55-.03c.2 0 .38.02.55.07a1.08 1.08 0 0 1 .73.57c.07.15.1.32.1.53 0 .29-.07.53-.23.72-.15.19-.36.33-.62.42a23.3 23.3 0 0 0 1.12 1.59l.32.18v.15h-.72l-.23-.17a9.33 9.33 0 0 1-.56-.82 5.36 5.36 0 0 1-.44-.86h-.56zm.4-3.6l-.24.01a.87.87 0 0 0-.17.02v1.77h.43c.28 0 .5-.08.66-.26.16-.17.24-.4.24-.68 0-.3-.09-.51-.26-.65s-.4-.21-.66-.21zm3.48 3.92h-1.32v-.18c.14-.06.28-.11.43-.14l1.5-3.93h.18l1.5 3.93.24.05c.08.02.15.05.22.09v.18h-1.54v-.18l.25-.08.24-.06-.4-1.09h-1.42l-.4 1.09c.17.02.35.07.52.14zm0-1.72h1.2l-.47-1.27-.11-.51h-.02l-.14.53zm5.66-2.46h1.29v.17c-.17.11-.34.19-.5.24v3.84h-.33l-2.17-3.29-.23-.46h-.02l.05.46v2.83c.17.05.32.12.46.21v.18h-1.29v-.18l.23-.11.26-.1v-3.41l-.23-.11-.22-.1v-.17h1l1.89 2.83.27.52h.03l-.03-.52v-2.42a2.04 2.04 0 0 1-.46-.24zm4.14 4.18h-1.67v-.18a2.45 2.45 0 0 1 .55-.14v-3.55h-.91l-.32.85h-.15a4.01 4.01 0 0 1-.05-.58 16.07 16.07 0 0 1-.02-.58h3.47a6.82 6.82 0 0 1-.04.89c0 .1-.02.19-.03.27h-.15l-.32-.85h-.9v3.55a10.2 10.2 0 0 1 .54.14z"/>
    </symbol>
    <symbol id="icon_logo" viewBox="0 0 266 55">
      <path fill="#060403" d="M79.74 1.26c.62-.54 1.4-.92 2.37-1.15.8-.2 1.2-.08 1.2.34 0 .12-.05.3-.17.52a1110.75 1110.75 0 0 1-6.23 10.94l-4.78 8.32c-1.47 2.5-2.93 5.12-4.39 7.88 2.23.07 3.77.11 4.62.11.92 0 2.23-.07 3.92-.23.5.22.56.58.17 1.09-1.19.54-4.4.81-9.63.81a43.51 43.51 0 0 0-.98 1.84l.43.25c2.25 1.4 3.37 3.25 3.37 5.56 0 1.84-.64 3.3-1.93 4.4-.46.39-.94.7-1.44.96-.9.45-1.85.67-2.86.67-1.38 0-2.54-.5-3.48-1.5a5.37 5.37 0 0 1-1.42-3.84c0-1.34.89-3.64 2.66-6.9a40.46 40.46 0 0 0-9.18-1.38c-.66.53-1.32 1.04-1.98 1.54-10.79 8.17-21.2 12.26-31.24 12.26-4.85 0-8.9-1.02-12.18-3.05C2.87 38.4 1 35.18 1 31.04c0-4.83 2.66-8.91 7.97-12.25a30.19 30.19 0 0 1 16.38-4.6c6.39 0 11.42 1.27 15.12 3.8.11.11.17.23.17.34 0 .66-.35.89-1.04.7-2.73-2.19-6.83-3.28-12.29-3.28-5.76 0-11.09 1.67-15.97 5-5.16 3.49-7.73 7.53-7.73 12.13 0 2.91 1.48 5.29 4.44 7.13 2.77 1.69 6.13 2.53 10.1 2.53 10.53 0 21.1-4.22 31.72-12.65l-5.54-.12-24-.1h-1.9c-.38-.09-.58-.28-.58-.59 0-.34.53-.8 1.58-1.4 1.06-.6 2.01-.9 2.85-.9.57 0 4.24.12 10.98.35 7.54.27 12.75.44 15.63.52h3.5a43.8 43.8 0 0 0 2.63-2.3L66.27 14.4 76.91 4.02 79.6 1.4zM68.61 19.2l8.3-12.78 1.04-1.6-.46-.05-.58.6a1793.8 1793.8 0 0 1-17.53 17.97c-1.5 1.45-3.1 2.89-4.8 4.3l8.43.35c.77-1.25 1.86-2.97 3.26-5.16l2.34-3.63zm51.06 19.14c.15-.04.31.02.49.17.17.16.24.33.2.52a13.1 13.1 0 0 1-3.16 3.3 5.76 5.76 0 0 1-3.3 1.13c-1.81 0-2.71-.9-2.71-2.7 0-.62.3-1.75.92-3.4-.7.91-1.38 1.72-2.02 2.42-2.23 2.45-4.07 3.68-5.54 3.68-1.29 0-2.16-.53-2.6-1.59a5.36 5.36 0 0 1-.34-2.05c0-.89.11-1.76.34-2.63.65-2.45 2.2-4.82 4.68-7.1a20.13 20.13 0 0 1 3.46-2.6 12.82 12.82 0 0 1 7.11-1.85c1.43.03 2.48.14 3.16.34.15.08.23.17.23.29 0 .12-.12.35-.35.7-.07.11-1.09 2.42-3.04 6.9l-.01.05c-1.73 3.97-2.6 6.39-2.6 7.23 0 .58.23.87.7.87s1.1-.35 1.91-1.06c.7-.6 1.52-1.48 2.47-2.62zm-8.2-2.06a29.26 29.26 0 0 0 3.15-4.8c.71-1.44 1.07-2.54 1.07-3.3 0-.7-.27-1.05-.81-1.05-1.25 0-2.85 1.17-4.79 3.5-.5.6-1.03 1.3-1.58 2.06-2.68 3.7-4.02 6.48-4.02 8.29 0 .7.31 1.04.93 1.04.84 0 2.4-1.35 4.67-4.04.44-.52.9-1.08 1.39-1.7zm22.87-14.52c-.48.59-1.07.89-1.76.89-1.3 0-1.96-.75-1.96-2.25a3 3 0 0 1 .72-1.92c.48-.6 1.07-.9 1.76-.9 1.3 0 1.96.75 1.96 2.25a3 3 0 0 1-.72 1.93zm-1.7 4.74a702.85 702.85 0 0 0-3.75 7.59c-2 4.1-3 6.5-3 7.18 0 .5.2.75.63.75.58 0 1.44-.48 2.6-1.43.96-.77 1.69-1.48 2.19-2.13.11-.04.27 0 .46.14.2.13.27.3.23.49-.54.77-1.29 1.57-2.25 2.41-1.54 1.3-2.94 1.96-4.2 1.96-1.93 0-2.9-.92-2.9-2.76 0-.77.91-3.14 2.72-7.13.73-1.5 1.57-3.32 2.54-5.46.15-.42.02-.63-.4-.63-.85 0-1.28-.3-1.28-.87 0-.57.33-.84.98-.8 1.66.11 3.23.04 4.73-.23.27-.04.49.03.64.2.15.17.17.41.06.72zm-30.58.86c0 .19-.03.34-.1.45-.13.2-.36.3-.7.3h-3.38l-5.4 11.44c-.3.65-.45 1.2-.45 1.67 0 .76.28 1.15.86 1.15 1.04 0 2.5-1.08 4.39-3.22.42-.16.73-.06.92.28-1.85 2.65-3.85 3.97-6 3.97-1.28 0-2.2-.3-2.74-.91-.4-.45-.6-1.07-.6-1.85 0-.69.17-1.42.51-2.18l.09-.18 4.9-10.16-2.44-.01c-.5 0-.76-.25-.76-.75s.25-.75.76-.75h3.16l3.64-7.76c.34-.73 1.02-1.09 2.02-1.09.55 0 .95.06 1.21.2.23.11.34.28.34.5v.41l-.34.7-3.36 7.04h2.67c.33 0 .57.1.7.3.07.12.1.27.1.45zM90.64 20c2.46-3.83 3.7-6.5 3.7-7.99 0-.42-.18-.63-.53-.63-.46 0-1.38.97-2.76 2.9a35.8 35.8 0 0 0-3.52 6.12l-2.95 6.39A29.35 29.35 0 0 0 90.64 20zm3.98-10.06c1.2 0 1.8.71 1.8 2.13 0 1.11-.53 2.66-1.57 4.66a29.02 29.02 0 0 1-3.52 5.23c-.6.74-1.23 1.45-1.87 2.13a31.97 31.97 0 0 1-5.91 4.94 211.75 211.75 0 0 0-3.95 9.27c-.68 1.74-1.01 2.83-1.01 3.26 0 .58.27.86.8.86h.2c.78-.07 1.78-.5 2.98-1.32a8.67 8.67 0 0 0 2.25-1.9c.57.08.86.31.86.7-.54.69-1.3 1.37-2.3 2.06a8.4 8.4 0 0 1-4.45 1.5c-.85 0-1.52-.16-2.02-.47-.69-.44-1.03-1.18-1.03-2.23 0-.82.34-2.2 1.03-4.17a91.54 91.54 0 0 1 2.14-5.38l.54-1.28c1.68-3.87 3.25-7.08 4.7-9.64a37.3 37.3 0 0 1 5.03-7.01l.14-.16c2.01-2.12 3.73-3.18 5.16-3.18zM67.11 36.52c0-.84-.28-1.62-.84-2.33a6 6 0 0 0-1.13-1.08c-2.19 4.28-3.28 6.87-3.28 7.78 0 1.1.48 1.65 1.44 1.65.88 0 1.74-.62 2.57-1.88a7.32 7.32 0 0 0 1.24-4.14zm152.2-14.35l-.6.72a32.94 32.94 0 0 1-7.18 6.35c-1.49 3.33-2.64 6-3.46 8.03-1 2.47-1.5 3.97-1.5 4.5 0 .58.27.86.8.86.22 0 .45-.03.7-.09a8.2 8.2 0 0 0 2.48-1.23 8.7 8.7 0 0 0 2.25-1.9c.58.08.86.31.86.7-.53.68-1.3 1.37-2.3 2.06a8.7 8.7 0 0 1-3.29 1.4c-.39.06-.77.1-1.15.1-2.04 0-3.06-.9-3.06-2.7 0-1.42 1.06-4.6 3.17-9.55l1.04-2.4c1.5-3.37 2.9-6.21 4.21-8.52a37.2 37.2 0 0 1 5.02-7.01c.49-.53.96-.99 1.41-1.39a8.66 8.66 0 0 1 2.68-1.72 3.6 3.6 0 0 1 1.22-.23c1.19 0 1.78.7 1.78 2.13 0 1.1-.51 2.66-1.55 4.65a28.02 28.02 0 0 1-3.52 5.24zm2.08-6.83c.62-1.33.93-2.37.93-3.12 0-.42-.18-.63-.52-.63-.1 0-.24.05-.4.16-.52.35-1.31 1.26-2.37 2.74l-.32.45a35.25 35.25 0 0 0-3.2 5.67L212.57 27c2.42-1.99 4.44-4.25 6.06-6.78l.08-.14a41.44 41.44 0 0 0 2.68-4.73zM260 40.96a11.97 11.97 0 0 0 2.65-2.53c.5-.26.8-.09.92.52a12.9 12.9 0 0 1-4.55 3.82 7.95 7.95 0 0 1-3.47.84c-1.71 0-2.93-.49-3.65-1.46a4.79 4.79 0 0 1-.79-2.91c0-1.33.27-2.67.8-4.02a17.4 17.4 0 0 1 3.07-4.92 16.1 16.1 0 0 1 4.04-3.56 6.48 6.48 0 0 1 3.23-.95c2.03 0 3.05.86 3.05 2.58 0 2.5-1.44 4.74-4.32 6.73-.67.45-1.33.83-1.96 1.17a12.23 12.23 0 0 1-4.39 1.42 8.84 8.84 0 0 0-.7 2.82c0 1.34.72 2 2.14 2 .9 0 1.87-.3 2.95-.91.31-.19.64-.4.98-.64zm.31-7.53c1.75-1.91 2.63-3.71 2.63-5.4 0-.73-.27-1.1-.8-1.1-.75 0-1.8.92-3.12 2.74l-.35.49c-1.39 1.91-2.58 4-3.58 6.26 1.3-.05 2.61-.63 3.93-1.73.43-.36.86-.78 1.3-1.26zm-15.77 7.02c1.19-1 2.02-1.88 2.48-2.65.19-.07.4-.02.6.15.21.17.32.39.32.66a16.82 16.82 0 0 1-4.18 3.96 6.37 6.37 0 0 1-3.38 1.1c-2.5 0-3.75-1.6-3.75-4.77 0-2.76 1.22-5.64 3.67-8.63a15.62 15.62 0 0 1 3.46-3.26 6.78 6.78 0 0 1 3.72-1.22c1.92 0 2.88 1.03 2.88 3.1 0 .96-.28 1.7-.83 2.22-.56.51-1.15.77-1.76.77-1.16 0-1.73-.55-1.73-1.66 0-.54.3-1.05.89-1.53.6-.48.9-.83.9-1.06 0-.39-.2-.58-.58-.58-1 0-2.16 1.13-3.49 3.4-.42.7-.85 1.53-1.3 2.47-1.73 3.68-2.6 6.38-2.6 8.1 0 .85.37 1.27 1.1 1.27.78 0 1.72-.4 2.8-1.22l.78-.62zm-10.84-1.9c.16-.04.32.02.5.17.17.16.23.33.2.52a13.2 13.2 0 0 1-3.13 3.29 5.79 5.79 0 0 1-3.34 1.14c-1.8 0-2.7-.9-2.7-2.7 0-.62.3-1.75.91-3.4a25.5 25.5 0 0 1-4.74 4.95 5.22 5.22 0 0 1-2.81 1.15c-1.96 0-2.94-1.22-2.94-3.64 0-2.67 1.02-5.23 3.07-7.7a20.85 20.85 0 0 1 2.68-2.68c3-2.54 6.08-3.8 9.24-3.8h.63c1.41.03 2.45.14 3.12.34.16.08.24.17.24.29 0 .12-.12.35-.35.7-.08.11-1.08 2.4-3.01 6.83l-.05.11c-1.73 3.98-2.6 6.4-2.6 7.24 0 .58.24.87.7.87.48 0 1.13-.36 1.95-1.09.69-.6 1.5-1.47 2.43-2.59zm-14.25 3.68c.45 0 1.1-.38 1.95-1.15a39.28 39.28 0 0 0 4.11-4.59 29.11 29.11 0 0 0 3.14-4.8c.72-1.44 1.07-2.54 1.07-3.3 0-.7-.27-1.05-.8-1.05-1.58 0-3.71 1.85-6.38 5.56-.4.57-.79 1.11-1.14 1.64-1.41 2.14-2.3 3.92-2.68 5.31-.13.5-.19.94-.19 1.34 0 .32.06.56.2.73.15.2.39.3.72.3zm-26.24-5.74a29.3 29.3 0 0 0 3.14-4.8c.71-1.44 1.07-2.54 1.07-3.3 0-.7-.27-1.05-.81-1.05-1.25 0-2.85 1.16-4.79 3.5-.5.6-1.03 1.3-1.58 2.06-2.68 3.7-4.01 6.47-4.01 8.29 0 .7.3 1.04.92 1.04.84 0 2.4-1.35 4.67-4.04.44-.52.9-1.08 1.39-1.7zm5.13-10.64c1.73 0 2.98.11 3.75.34.15.08.23.17.23.29 0 .12-.11.35-.34.7-.08.11-1.1 2.43-3.06 6.94-1.73 3.98-2.6 6.4-2.6 7.24 0 .58.23.87.7.87.88 0 2.34-1.23 4.38-3.68.15-.04.32.02.49.17.17.16.24.33.2.52-2.08 2.95-4.23 4.43-6.46 4.43-1.8 0-2.71-.9-2.71-2.7 0-.62.3-1.75.92-3.4-.7.91-1.38 1.72-2.02 2.42-2.23 2.45-4.07 3.68-5.54 3.68-1.96 0-2.94-1.22-2.94-3.64 0-3.4 1.68-6.64 5.02-9.73a20.1 20.1 0 0 1 3.46-2.6 12.82 12.82 0 0 1 6.52-1.85zm-43.65 22.4l-.02.01-.18.08c-1.96.9-4.01 1.34-6.13 1.34-.84 0-1.66-.08-2.47-.24a7.1 7.1 0 0 1-2.14-.8 4.63 4.63 0 0 1-1.52-1.4 4.05 4.05 0 0 1-.68-2.05c-.04-.62.1-1.15.4-1.6.32-.47.81-.7 1.47-.7.62 0 1.17.2 1.63.58.47.38.73.88.77 1.5.04.52-.03.9-.2 1.13-.16.24-.23.5-.21.8.04.58.34 1.08.9 1.5.57.42 1.49.63 2.77.63a10.38 10.38 0 0 0 5.61-1.57 14.9 14.9 0 0 0 2.62-1.94 21.68 21.68 0 0 0 3.14-3.64 44.6 44.6 0 0 0 2.58-4.21 72.1 72.1 0 0 0 2.14-4.3 295.5 295.5 0 0 1 1.83-3.94 48.96 48.96 0 0 1 5.18-8.48 37.08 37.08 0 0 1 3.4-3.89 25.06 25.06 0 0 1 3.7-3.06 18.37 18.37 0 0 0-4.8-1.48 28.77 28.77 0 0 0-4.5-.38c-1.28 0-2.46.03-3.53.1-1.08.08-2.14.24-3.18.5.9.95 1.56 2 1.95 3.15a13.54 13.54 0 0 1-.22 9.47 18.67 18.67 0 0 1-3.23 5.41c-1.39 1.63-3.01 2.94-4.88 3.94a12.06 12.06 0 0 1-5.88 1.5 7.2 7.2 0 0 1-2.33-.37 5.95 5.95 0 0 1-3.45-2.98 6.86 6.86 0 0 1-.7-2.66c-.1-1.39.1-2.76.6-4.1a15.7 15.7 0 0 1 2.05-3.86 23.4 23.4 0 0 1 3.1-3.48 27.6 27.6 0 0 1 7.78-5.1c1.35-.57 2.62-1 3.81-1.25a9.82 9.82 0 0 0-3.17-1.37 14.26 14.26 0 0 0-4-.42c-1.87.08-3.64.5-5.33 1.27a15.7 15.7 0 0 0-5.01 3.64c-.92.99-1.65 1.95-2.2 2.9a25.88 25.88 0 0 0-2.01 4.22c-.15.43-.28.65-.4.65-.07 0-.12-.03-.17-.1a.45.45 0 0 1-.06-.17c-.02-.22.1-.7.33-1.45.24-.75.63-1.6 1.16-2.57.54-.97 1.22-1.98 2.04-3.04a15.97 15.97 0 0 1 7.1-5.15 14.3 14.3 0 0 1 5.23-.87c1.4 0 2.77.24 4.14.71 1.37.47 2.43 1 3.16 1.59 1.01-.26 2.16-.45 3.45-.58 1.3-.13 2.56-.19 3.8-.19 1.94 0 3.8.17 5.59.52 1.78.35 3.3.81 4.54 1.4.74-.44 1.39-.87 1.94-1.29.56-.42.98-.63 1.28-.63.14 0 .22.1.24.27 0 .19-.27.43-.83.74-.56.31-1.2.72-1.89 1.24 1.79.94 3.28 2.21 4.48 3.8a9.97 9.97 0 0 1 2 5.39 7.28 7.28 0 0 1-.76 3.89c-.6 1.2-1.42 2.25-2.43 3.14a11.68 11.68 0 0 1-7.35 2.88c-.51 0-1.04-.1-1.58-.28-.55-.18-1.04-.38-1.47-.6-.44-.22-.8-.44-1.1-.66-.28-.22-.43-.38-.44-.49-.01-.18.09-.27.3-.27.04 0 .17.07.38.22l.78.49c.3.18.65.34 1.05.5.4.14.83.21 1.3.21 1.36 0 2.57-.35 3.64-1.04a9.25 9.25 0 0 0 2.66-2.63 12.06 12.06 0 0 0 1.92-7.33 7.89 7.89 0 0 0-4.15-6.57c-1.12.8-2.14 1.85-3.07 3.15a36.75 36.75 0 0 0-2.7 4.43c-.87 1.66-1.77 3.47-2.69 5.42-.92 1.95-1.9 3.99-2.96 6.1a39.15 39.15 0 0 1-3.76 6.16 30.86 30.86 0 0 1-4.8 5.14 24.78 24.78 0 0 1-5.36 3.47zm0-14.07c.29-.15.58-.32.86-.5a18.63 18.63 0 0 0 4.56-4.22 21.2 21.2 0 0 0 3.14-5.61c.76-2.04 1.08-4.01.94-5.91a17.3 17.3 0 0 0-.42-2.8 4.57 4.57 0 0 0-1.26-2.24 21.8 21.8 0 0 0-7.5 3.07 28.24 28.24 0 0 0-4.65 3.61 20.92 20.92 0 0 0-3.91 5.15 9.68 9.68 0 0 0-1.27 5.25 6.02 6.02 0 0 0 1.58 3.97c.92.93 2.1 1.4 3.53 1.4 1.5 0 2.96-.4 4.4-1.17zM172 54.88h-2.25v-.25c.24-.1.49-.16.73-.21v-5.25a2.35 2.35 0 0 1-.72-.22v-.25H172v.25c-.1.06-.2.1-.32.14l-.34.08v2.31h2.78v-2.3a4.49 4.49 0 0 1-.66-.23v-.25h2.24v.25c-.1.06-.22.1-.35.14l-.38.08v5.25a3.75 3.75 0 0 1 .73.21v.26h-2.24v-.26c.2-.1.43-.16.66-.21v-2.48h-2.78v2.48a3.3 3.3 0 0 1 .66.21zm4.43-3.09c0-.46.06-.88.2-1.28.12-.39.3-.73.54-1.01.24-.29.54-.51.88-.67.35-.16.75-.24 1.2-.24.44 0 .83.08 1.18.24.35.16.65.38.89.67.24.28.42.62.55 1.01.12.4.19.82.19 1.28 0 .46-.07.89-.2 1.28-.12.4-.3.73-.54 1.02-.24.28-.54.5-.89.67-.35.15-.74.23-1.19.23-.44 0-.84-.08-1.19-.23a2.5 2.5 0 0 1-.88-.67 3.03 3.03 0 0 1-.55-1.02c-.13-.4-.19-.82-.19-1.28zm.95 0c0 .38.04.74.12 1.07.08.33.2.62.36.87a1.65 1.65 0 0 0 1.47.8c.3 0 .56-.07.78-.21.23-.15.41-.34.56-.6.14-.24.25-.53.33-.86a4.84 4.84 0 0 0 0-2.13c-.09-.34-.2-.63-.36-.87a1.64 1.64 0 0 0-1.46-.8 1.52 1.52 0 0 0-1.4.8c-.13.24-.24.53-.3.87-.07.33-.1.69-.1 1.06zm9.14 3.1h-2.5v-.26a4.57 4.57 0 0 1 .83-.21v-5.26h-1.35l-.47 1.26h-.23a5.72 5.72 0 0 1-.07-.86 25.98 25.98 0 0 1-.03-.86h5.15a9.83 9.83 0 0 1-.03.85l-.02.46-.05.41h-.23l-.47-1.26h-1.34v5.26l.43.09c.13.03.26.07.38.12zm5.97-6.2a21.57 21.57 0 0 1-.1 1.44h-.23l-.37-.97h-1.93v2.34h1.45l.34-.65h.22c.04.58.04 1.18 0 1.78h-.22l-.34-.67h-1.45v2.47h2.04l.44-1.06h.22a8.18 8.18 0 0 1 .1 1.52h-4.38v-.26c.2-.1.45-.16.73-.21v-5.25a3.67 3.67 0 0 1-.73-.22v-.25zm.95 0h2.44v.26a4.88 4.88 0 0 1-.86.22v5.26h2.05l.52-1.43h.23a8.34 8.34 0 0 1 .1 1.45l-.01.44h-4.47v-.26a2.3 2.3 0 0 1 .73-.21v-5.25a3.15 3.15 0 0 1-.73-.22zm12.96 6.2l-.47-.3c-.19-.13-.4-.3-.62-.51a2.13 2.13 0 0 1-.75.62 2.58 2.58 0 0 1-1.24.3c-.31 0-.6-.05-.85-.15a2 2 0 0 1-.65-.38 1.7 1.7 0 0 1-.41-.55c-.1-.2-.15-.42-.15-.64 0-.3.06-.55.16-.78a2.64 2.64 0 0 1 .85-1.06l.4-.3a2.67 2.67 0 0 1-.44-.66 1.69 1.69 0 0 1-.18-.7c0-.15.03-.3.1-.44.05-.15.14-.27.25-.38.12-.11.26-.2.43-.27.17-.07.36-.1.57-.1.4 0 .7.08.95.25.24.17.36.41.36.73 0 .2-.04.38-.1.55a2.61 2.61 0 0 1-.62.85l-.4.33c.24.3.52.6.84.93l1.01.95a4.1 4.1 0 0 0 .53-1.54c.04-.25.05-.5.03-.73-.17-.04-.35-.1-.52-.21v-.23h1.8v.23c-.16.1-.35.17-.58.2a7.4 7.4 0 0 1-.91 2.58 14.39 14.39 0 0 0 1.38.98l.5.2v.23zM205 53.8a12.51 12.51 0 0 1-1.18-1.22 21.02 21.02 0 0 1-.93-1.16c-.26.25-.45.49-.57.72-.11.23-.17.5-.17.82 0 .22.04.43.11.62.08.2.18.36.31.5s.29.26.47.34c.19.07.39.11.6.11.27 0 .52-.06.75-.18.23-.12.44-.3.62-.55zm-2.28-4.06c0 .1.02.22.06.34.04.12.1.24.16.36a4.24 4.24 0 0 0 .46.64c.21-.18.39-.38.52-.61.13-.23.19-.5.16-.82a.8.8 0 0 0-.18-.48c-.1-.13-.28-.19-.5-.19a.71.71 0 0 0-.33.07.57.57 0 0 0-.2.17.63.63 0 0 0-.12.25l-.03.27zm9.2 4.68a10.84 10.84 0 0 1 .76.21v.26h-2.34v-.26a7.93 7.93 0 0 1 .73-.21v-5.25a3.41 3.41 0 0 1-.73-.22v-.25h.78c.24 0 .5-.02.78-.04l.83-.03c.28 0 .56.03.8.1.26.06.48.16.66.3.19.14.33.32.44.54.1.22.15.48.15.79 0 .43-.11.79-.34 1.07a1.9 1.9 0 0 1-.93.61 29.63 29.63 0 0 0 1.67 2.37l.48.26v.22h-1.08l-.34-.25a10.48 10.48 0 0 1-1.48-2.5h-.84zm.6-5.33a6.16 6.16 0 0 0-.6.04v2.63h.64c.41 0 .73-.13.97-.39s.36-.6.36-1.02c0-.43-.13-.75-.38-.96-.25-.2-.58-.3-.98-.3zm7.68-.4a21.57 21.57 0 0 1-.1 1.44h-.22l-.37-.97h-1.93v2.34h1.44l.35-.65h.22c.04.58.04 1.18 0 1.78h-.22l-.35-.67h-1.44v2.47h2.04l.43-1.06h.22a7.85 7.85 0 0 1 .1 1.52H216v-.26c.2-.1.45-.16.72-.21v-5.25a3.82 3.82 0 0 1-.72-.22v-.25zm2.04 5.59c.07.07.16.13.27.18.11.05.28.07.5.07.2 0 .37-.02.54-.07.17-.05.3-.12.43-.22.12-.1.22-.22.29-.36.07-.13.1-.3.1-.47a.85.85 0 0 0-.21-.6 2.2 2.2 0 0 0-.54-.42 9.43 9.43 0 0 0-.71-.36 3.9 3.9 0 0 1-.7-.42 2.2 2.2 0 0 1-.55-.58 1.55 1.55 0 0 1-.21-.86c0-.24.04-.47.13-.66.09-.2.21-.36.38-.5.16-.13.35-.24.58-.3.22-.08.47-.12.75-.12.36 0 .7.03 1 .08.29.06.52.13.7.21l-.03.35a11.88 11.88 0 0 1-.19 1.17h-.23l-.35-1.2c-.1-.06-.25-.1-.41-.11a3.64 3.64 0 0 0-.52-.04c-.3 0-.55.08-.74.25a.9.9 0 0 0-.28.7c0 .25.08.45.22.62.15.16.33.3.55.44.22.13.46.25.71.37.25.13.5.27.71.42.22.16.4.35.55.57.15.22.22.49.22.81 0 .27-.05.51-.15.73-.1.22-.24.4-.42.56-.18.15-.4.27-.67.35a3.5 3.5 0 0 1-1.9 0c-.3-.1-.52-.2-.64-.3a8.11 8.11 0 0 1 .15-1.23l.07-.36h.23zm7.41.6h-2.49v-.25a4.59 4.59 0 0 1 .83-.21v-5.26h-1.36l-.47 1.26h-.22a5.76 5.76 0 0 1-.08-.86 25.98 25.98 0 0 1-.03-.86h5.16a8.38 8.38 0 0 1-.04.85 198 198 0 0 1-.06.87h-.24l-.46-1.26h-1.35v5.26l.43.09c.13.03.26.07.38.12zm2.76 0h-1.97v-.25c.2-.1.42-.16.64-.21l2.24-5.83h.26l2.24 5.83.35.08c.12.03.23.07.33.13v.26h-2.3v-.26a3.77 3.77 0 0 1 .74-.21l-.6-1.62h-2.11l-.59 1.62c.25.04.5.1.77.21zm0-2.54h1.78l-.7-1.87-.17-.77h-.02l-.22.78zm4.18-3.64h2.25v.25a4 4 0 0 1-.67.22v3.6c0 .32.03.58.1.79.07.2.17.38.3.5.13.13.29.22.48.28.2.05.41.08.65.08.47 0 .83-.13 1.1-.38.26-.26.39-.68.39-1.27v-3.52a5.7 5.7 0 0 1-.7-.3v-.25h1.88v.25a4.46 4.46 0 0 1-.69.3v3.55c0 .38-.05.7-.15.97a1.68 1.68 0 0 1-1.08 1.07c-.25.09-.54.13-.85.13-.74 0-1.3-.17-1.7-.5-.39-.33-.59-.85-.59-1.54v-3.76a2.66 2.66 0 0 1-.72-.22zm7.71 5.72a9.91 9.91 0 0 1 .75.21v.26h-2.33v-.26c.13-.06.25-.1.37-.13l.36-.08v-5.25a3.36 3.36 0 0 1-.73-.22v-.25h.78c.24 0 .5-.02.78-.04l.82-.03c.3 0 .56.03.82.1.25.06.47.16.65.3.18.14.33.32.43.54.1.22.16.48.16.79 0 .43-.12.79-.35 1.07a1.9 1.9 0 0 1-.93.61 29.6 29.6 0 0 0 1.67 2.37l.49.26v.22h-1.08l-.34-.25a10.48 10.48 0 0 1-1.48-2.5h-.84zm.6-5.33a6.1 6.1 0 0 0-.6.04v2.63h.64c.4 0 .73-.13.97-.39s.36-.6.36-1.02c0-.43-.13-.75-.38-.96-.26-.2-.58-.3-.99-.3zm5.19 5.8h-1.97v-.26c.21-.1.42-.16.64-.21l2.24-5.83h.26l2.24 5.83.35.08c.12.03.23.07.33.13v.26h-2.3v-.26a3.77 3.77 0 0 1 .74-.21l-.6-1.62h-2.11l-.59 1.62c.25.04.5.1.77.21zm0-2.55h1.78l-.7-1.87-.17-.77h-.02l-.22.78zm8.41-3.64h1.92v.25c-.25.17-.5.29-.73.36v5.68h-.5l-3.23-4.87-.34-.69h-.03l.08.7v4.2c.24.06.47.16.68.3v.26h-1.91v-.26a2.52 2.52 0 0 1 .72-.3v-5.08a8.11 8.11 0 0 1-.67-.3v-.25h1.5l2.8 4.2.4.76h.04l-.05-.76v-3.6a5.76 5.76 0 0 1-.68-.35zm6.17 6.19h-2.5v-.26a4.68 4.68 0 0 1 .83-.21v-5.26h-1.36l-.47 1.26h-.22a6.38 6.38 0 0 1-.08-.86l-.02-.46v-.4H266a8.28 8.28 0 0 1-.03.85l-.03.46c0 .15-.02.29-.04.41h-.23l-.47-1.26h-1.35v5.26l.43.09c.14.03.27.07.39.12z"/>
    </symbol>
    <symbol id="icon_mobile-icon-picture" viewBox="0 0 78 46">
      <path d="M77.28.91c-.33-.23-.74-.3-1.13-.17a120.72 120.72 0 0 1-73.88 0C1.89.62 1.47.68 1.15.9c-.33.24-.52.6-.52 1v42.82c0 .4.2.76.52 1 .32.23.74.3 1.12.17a120.73 120.73 0 0 1 73.88 0 1.28 1.28 0 0 0 1.13-.17c.32-.24.51-.6.51-1V1.9c0-.4-.19-.76-.51-1zm-1.99 42.13a123.23 123.23 0 0 0-72.16 0V3.6a123.27 123.27 0 0 0 72.16 0zm-46.03-19.4a1.26 1.26 0 0 0-1.77 0L17.34 33.65c-3.69.66-7.38 1.5-10.99 2.5a1.23 1.23 0 0 0 .34 2.42c.11 0 .23-.01.34-.05 3.65-1 7.4-1.85 11.14-2.51l.1-.02.03-.01.1-.03.01-.01.1-.04.02-.01.06-.04.04-.02.05-.03.05-.05c.02 0 .03-.02.04-.03l.06-.05 9.54-9.43 6.34 6.27c.5.48 1.28.48 1.77 0 .5-.48.5-1.27 0-1.75l-3.33-3.29 7.26-7.17L55.3 35l.01.01a.7.7 0 0 0 .1.08l.06.05.04.03.06.03c.02 0 .03.02.05.03l.06.02.05.03.06.01.06.02.06.02h.06l.03.02c5.2.72 10.4 1.8 15.44 3.2.12.03.23.04.34.04a1.23 1.23 0 0 0 .34-2.42 123.98 123.98 0 0 0-15.35-3.2L41.3 17.68a1.26 1.26 0 0 0-1.77 0l-8.15 8.05zm26.81-1.46a4.84 4.84 0 0 0 4.86-4.8c0-2.65-2.18-4.8-4.86-4.8a4.84 4.84 0 0 0-4.86 4.8c0 2.64 2.18 4.8 4.86 4.8zm0-7.14c1.3 0 2.36 1.05 2.36 2.33a2.35 2.35 0 0 1-2.36 2.33 2.35 2.35 0 0 1-2.36-2.33 2.35 2.35 0 0 1 2.36-2.33z"/>
    </symbol>
    <symbol id="icon_mobile-icon-telephone" viewBox="0 0 53 53">
      <path d="M40.48 34.92c-1.7-1.7-3.83-1.7-5.53 0-1.29 1.3-2.58 2.6-3.85 3.91-.35.36-.65.44-1.07.2-.84-.46-1.73-.84-2.53-1.34a40.3 40.3 0 0 1-9.67-8.9 23.2 23.2 0 0 1-3.46-5.61c-.18-.42-.15-.7.2-1.04 1.29-1.26 2.55-2.55 3.82-3.85 1.77-1.8 1.77-3.91-.02-5.72-1-1.04-2.02-2.05-3.03-3.08-1.04-1.05-2.07-2.12-3.13-3.16-1.7-1.68-3.83-1.68-5.52 0-1.3 1.3-2.56 2.63-3.88 3.9a6.4 6.4 0 0 0-1.98 4.3c-.2 2.74.46 5.32 1.4 7.83a47.7 47.7 0 0 0 8.34 14.08A51.78 51.78 0 0 0 27.7 49.98c3 1.47 6.1 2.6 9.48 2.8 2.32.12 4.34-.47 5.96-2.3 1.11-1.26 2.36-2.4 3.53-3.6 1.74-1.78 1.75-3.93.03-5.69l-6.22-6.27zm-2.07-8.75l4-.7a18.19 18.19 0 0 0-5-9.77 17.75 17.75 0 0 0-10.21-5.16l-.57 4.08a14.04 14.04 0 0 1 11.78 11.54zm6.27-17.62A29.44 29.44 0 0 0 27.73 0l-.57 4.08a25.99 25.99 0 0 1 21.82 21.39l4.02-.7a30.22 30.22 0 0 0-8.33-16.22z"/>
    </symbol>
    <symbol id="icon_mobile-marker-map" viewBox="0 0 58 55">
      <path d="M57.09 1a1.1 1.1 0 0 0-1.24-.24L1.63 25.31a1.07 1.07 0 0 0 .28 2.04l24.32 4.02L29 54.04a1.09 1.09 0 0 0 1.08.95c.41 0 .8-.22.98-.6L57.29 2.22c.2-.4.12-.9-.2-1.23z"/>
    </symbol>
    <symbol id="icon_slider-arrow-left" viewBox="0 0 17 32">
      <path fill="#fff" d="M.28 16.64l14.26 15.09c.34.36.88.36 1.21 0a.94.94 0 0 0 0-1.28L2.1 16 15.75 1.55a.94.94 0 0 0 0-1.28.82.82 0 0 0-.6-.27.82.82 0 0 0-.6.27L.28 15.36a.95.95 0 0 0 0 1.28z"/>
    </symbol>
    <symbol id="icon_slider-arrow-right" viewBox="0 0 18 32">
      <path fill="#fff" d="M16.75 15.36L2.45.27a.82.82 0 0 0-1.2 0 .94.94 0 0 0 0 1.28L14.93 16 1.25 30.45a.94.94 0 0 0 0 1.28c.16.18.38.27.6.27.21 0 .44-.09.6-.27l14.3-15.09a.94.94 0 0 0 0-1.28z"/>
    </symbol>
    <symbol id="icon_slider-picture" viewBox="0 0 23 19">
      <path fill="#fff" d="M21.84 5.97L9.94.03a.27.27 0 0 0-.37.14L6.98 5.82H8.4l1.9-4.15L20.6 6.8l-3.22 7.05-1.82-.9v3.72l1.12.55c.14.08.3.01.37-.13l4.91-10.75a.3.3 0 0 0-.13-.38zm-7.38.54H1.28A.28.28 0 0 0 1 6.8v11.9c0 .17.13.3.28.3h13.18c.16 0 .28-.13.28-.3V6.8a.28.28 0 0 0-.28-.3zm-.76 9.12h-.83c-.49-1.3-1.09-3.12-2-2.88-1.06.29-1.6 2.88-1.6 2.88s-.54-2.93-2.05-4.5c-1.5-1.57-2.96 4.5-2.96 4.5H2.27v-7.8H13.7zM3.18 9.5c0 .54.42.97.94.97.51 0 .93-.43.93-.97a.95.95 0 0 0-.93-.97.95.95 0 0 0-.94.97zm7.2.69c.2 0 .4-.03.57-.06.2.09.46.14.72.14.69 0 1.25-.35 1.25-.78 0-.43-.56-.78-1.25-.78-.26 0-.5.05-.7.13a.43.43 0 0 0-.3-.13h-.19a.45.45 0 0 0-.44.41c-.55.06-.97.27-.97.52 0 .3.59.55 1.3.55z"/>
    </symbol>
    <symbol id="icon_telephone" viewBox="0 0 20 19">
      <path d="M15.44 12.57c-.62-.61-1.4-.61-2.01 0l-1.4 1.4c-.13.14-.24.16-.4.08-.3-.17-.63-.3-.92-.49a14.59 14.59 0 0 1-3.52-3.2 8.36 8.36 0 0 1-1.26-2.02c-.07-.15-.05-.25.07-.37.47-.45.93-.92 1.4-1.39.64-.65.64-1.4-.01-2.06l-1.1-1.1c-.39-.38-.76-.77-1.15-1.14-.62-.6-1.4-.6-2.01 0-.48.47-.93.95-1.41 1.4-.45.43-.68.95-.72 1.55-.08.99.16 1.91.5 2.82.7 1.87 1.76 3.54 3.05 5.06A18.83 18.83 0 0 0 10.78 18c1.1.53 2.23.94 3.46 1 .84.05 1.58-.16 2.17-.82.4-.45.86-.86 1.29-1.3.63-.64.63-1.41 0-2.04l-2.26-2.26zm-.76-3.15l1.46-.25A6.51 6.51 0 0 0 10.6 3.8l-.2 1.46a5.04 5.04 0 0 1 4.28 4.16zm2.29-6.34A10.78 10.78 0 0 0 10.8 0l-.21 1.47a9.34 9.34 0 0 1 7.95 7.7L20 8.91a10.84 10.84 0 0 0-3.03-5.84z"/>
    </symbol></svg>